{
.appVersion = "919";
copyright = "Copyright (c) 2014 by . All rights reserved.";
customParameters = (
{
name = glyphOrder;
value = (
.notdef,
aadeva,
aasigndeva,
abbreviationsigndeva,
acandradeva,
acombiningletterdeva,
acutedeva,
adeva,
aideva,
aisign_ra_virama.alt1,
aisign_ra_virama_anusvara,
aisigndeva,
aisigndeva_anusvaradeva,
ampersand,
anudattadeva,
anusvaradeva,
apostrophe,
asciicircum,
asciitilde,
ashortdeva,
asterisk,
at,
audeva,
ausign_ra_virama.alt1,
ausign_ra_virama_anusvara,
ausigndeva,
ausigndeva_anusvaradeva,
avagrahacombiningsigndeva,
avagrahadeva,
awdeva,
awsigndeva,
ba_virama_ra_viramadeva,
backslash,
badeva,
badeva_viramadeva,
badeva_viramadeva_radeva,
bar,
bbadeva,
bhadeva,
bhadeva_viramadeva,
bhadeva_viramadeva_radeva,
braceleft,
braceright,
bracketleft,
bracketright,
cadeva,
cadeva_viramadeva,
cadeva_viramadeva_cadeva,
cadeva_viramadeva_radeva,
candrabinduavagrahadeva,
candrabindudeva,
candrabindudigitthreedeva,
candrabindudigittwodeva,
candrabinduinverteddeva,
candrabinduviramadeva,
caretdeva,
cent,
chadeva,
chadeva_viramadeva,
chadeva_viramadeva_vadeva,
colon,
comma,
da_ddha_ra_yadeva,
dadeva,
dadeva_rvocalicsigndeva,
dadeva_viramadeva,
dadeva_viramadeva_badeva,
dadeva_viramadeva_bhadeva,
dadeva_viramadeva_dadeva,
dadeva_viramadeva_dhadeva,
dadeva_viramadeva_gadeva,
dadeva_viramadeva_ghadeva,
dadeva_viramadeva_madeva,
dadeva_viramadeva_nadeva,
dadeva_viramadeva_radeva,
dadeva_viramadeva_vadeva,
dadeva_viramadeva_yadeva,
danda,
dbldanda,
ddadeva,
ddadeva_viramadeva,
ddadeva_viramadeva_ddadeva,
ddadeva_viramadeva_ddhadeva,
ddadeva_viramadeva_yadeva,
dddadeva,
dddhadeva,
ddhadeva,
ddhadeva_viramadeva,
ddhadeva_viramadeva_ddhadeva,
ddhadeva_viramadeva_yadeva,
dhadeva,
dhadeva_viramadeva,
dhadeva_viramadeva_radeva,
divide,
dollar,
dottedcircle,
doublecandrabinduviramadeva,
ecandradeva,
ecandralongsigndeva,
ecandrasigndeva,
edeva,
eight,
eightcombiningdigitdeva,
eightdeva,
eightdeva.np,
ellipsis,
emdash,
endash,
eprishthamatrasigndeva,
equal,

glyphs = (
{
glyphname = .notdef;
lastChange = "2016-09-19 15:51:21 +0000";
layers = (
{
layerId = "25D154CF-C470-4D68-A10D-6356F2BE0292";
paths = (
{
closed = 1;
nodes = (
"200 67 LINE",
"866 67 LINE",
"866 866 LINE",
"200 866 LINE"
);
},
{
closed = 1;
nodes = (
"133 0 LINE",
"133 932 LINE",
"932 932 LINE",
"932 0 LINE"
);
}
);
width = 1065;
}
);
userData = {
org.fontforge.glyphclass = baseglyph;
};
},
{
glyphname = aadeva;
lastChange = "2016-09-19 15:51:21 +0000";
layers = (
{
anchors = (
{
name = "Lohit-Devanagari-DVAnchor3";
position = "{792, 664}";
}
);
layerId = "25D154CF-C470-4D68-A10D-6356F2BE0292";
paths = (
{
closed = 1;
nodes = (
"300 85 CURVE SMOOTH",
"394 85 OFFCURVE",
"469 134 OFFCURVE",
"469 234 CURVE SMOOTH",
"469 259 OFFCURVE",
"460 288 OFFCURVE",
"443 316 CURVE",
"448 316 LINE SMOOTH",
"508 316 OFFCURVE",
"558 330 OFFCURVE",
"594 361 CURVE",
"594 0 LINE",
"681 0 LINE",
"681 621 LINE",
"867 621 LINE",
"867 0 LINE",
"954 0 LINE",
"954 621 LINE",
"1057 621 LINE",
"1057 666 LINE",
"484 666 LINE",
"484 621 LINE",
"594 621 LINE",
"594 421 LINE",
"555 383 OFFCURVE",
"514 369 OFFCURVE",
"466 369 CURVE SMOOTH",
"428 369 OFFCURVE",
"399 378 OFFCURVE",
"380 398 CURVE",
"432 427 OFFCURVE",
"457 474 OFFCURVE",
"457 530 CURVE SMOOTH",
"457 613 OFFCURVE",
"395 677 OFFCURVE",
"285 677 CURVE SMOOTH",
"183 677 OFFCURVE",
"127 636 OFFCURVE",
"127 582 CURVE SMOOTH",
"127 536 OFFCURVE",
"156 509 OFFCURVE",
"192 509 CURVE SMOOTH",
"200 509 OFFCURVE",
"204 511 OFFCURVE",
"204 516 CURVE SMOOTH",
"204 523 OFFCURVE",
"197 529 OFFCURVE",
"197 561 CURVE SMOOTH",
"197 604 OFFCURVE",
"227 637 OFFCURVE",
"286 637 CURVE SMOOTH",
"333 637 OFFCURVE",
"373 605 OFFCURVE",
"373 529 CURVE SMOOTH",
"373 447 OFFCURVE",
"328 410 OFFCURVE",
"242 407 CURVE SMOOTH",
"235 407 OFFCURVE",
"232 399 OFFCURVE",
"232 391 CURVE SMOOTH",
"232 378 OFFCURVE",
"239 365 OFFCURVE",
"247 365 CURVE SMOOTH",
"266 365 OFFCURVE",
"289 368 OFFCURVE",
"306 371 CURVE",
"361 329 OFFCURVE",
"384 289 OFFCURVE",
"384 243 CURVE SMOOTH",
"384 180 OFFCURVE",
"351 148 OFFCURVE",
"293 148 CURVE SMOOTH",
"190 148 OFFCURVE",
"113.755 241.06 OFFCURVE",
"60 396 CURVE SMOOTH",
"58.749 399.604 OFFCURVE",
"53.236 401.65 OFFCURVE",
"43.744 401.65 CURVE SMOOTH",
"27.455 401.65 OFFCURVE",
"11.461 390.957 OFFCURVE",
"11.461 378.308 CURVE SMOOTH",
"11.461 376.519 OFFCURVE",
"11.771 374.661 OFFCURVE",
"12.436 372.747 CURVE SMOOTH",
"71.763 201.746 OFFCURVE",
"171 85 OFFCURVE"
);
}
);
width = 1044;
}
);
unicode = 0906;
userData = {
org.fontforge.glyphclass = baseglyph;
};
},
{
glyphname = aasigndeva;
lastChange = "2016-09-19 15:51:21 +0000";
layers = (
{
layerId = "25D154CF-C470-4D68-A10D-6356F2BE0292";
paths = (
{
closed = 1;
nodes = (
"-13 621 LINE",
"90 621 LINE",
"90 0 LINE",
"176 0 LINE",
"176 621 LINE",
"279 621 LINE",
"279 666 LINE",
"-13 666 LINE"
);
}
);
width = 266;
}
);
unicode = 093E;
userData = {
org.fontforge.glyphclass = baseglyph;
};
},
{
glyphname = abbreviationsigndeva;
lastChange = "2016-09-19 15:51:21 +0000";
layers = (
{
layerId = "25D154CF-C470-4D68-A10D-6356F2BE0292";
paths = (
{
closed = 1;
nodes = (
"274 381 CURVE SMOOTH",
"336 381 OFFCURVE",
"385 432 OFFCURVE",
"385 496 CURVE SMOOTH",
"385 560 OFFCURVE",
"336 610 OFFCURVE",
"274 610 CURVE SMOOTH",
"214 610 OFFCURVE",
"164 560 OFFCURVE",
"164 496 CURVE SMOOTH",
"164 432 OFFCURVE",
"214 381 OFFCURVE"
);
},
{
closed = 1;
nodes = (
"446 496 CURVE SMOOTH",
"446 401 OFFCURVE",
"369 325 OFFCURVE",
"273 325 CURVE SMOOTH",
"177 325 OFFCURVE",
"100 401 OFFCURVE",
"100 496 CURVE SMOOTH",
"100 590 OFFCURVE",
"177 666 OFFCURVE",
"273 666 CURVE SMOOTH",
"369 666 OFFCURVE",
"446 590 OFFCURVE"
);
}
);
width = 545;
}
);
unicode = 0970;
userData = {
org.fontforge.glyphclass = baseglyph;
};
},
{
glyphname = acombiningletterdeva;
lastChange = "2016-09-19 15:51:21 +0000";
layers = (
{
anchors = (
{
name = "_Lohit-Devanagari-DVAnchor3";
position = "{-137, 681}";
}
);
layerId = "25D154CF-C470-4D68-A10D-6356F2BE0292";
paths = (
{
closed = 1;
nodes = (
"-348.589 871.726 CURVE SMOOTH",
"-318.712 785.609 OFFCURVE",
"-268.101 735.5 OFFCURVE",
"-201.5 735.5 CURVE SMOOTH",
"-153.815 735.5 OFFCURVE",
"-113.5 761.126 OFFCURVE",
"-113.5 813.5 CURVE SMOOTH",
"-113.5 825.253 OFFCURVE",
"-117.512 838.692 OFFCURVE",
"-124.017 851.08 CURVE",
"-95.6 852.044 OFFCURVE",
"-76.618 857.731 OFFCURVE",
"-59.5 869.784 CURVE",
"-59.5 729 LINE",
"-9 729 LINE",
"-9 1003.5 LINE",
"42.5 1003.5 LINE",
"42.5 1033 LINE",
"-114 1033 LINE",
"-114 1003.5 LINE",
"-59.5 1003.5 LINE",
"-59.5 908.46 LINE",
"-78.428 890.248 OFFCURVE",
"-96.159 884.5 OFFCURVE",
"-118.5 884.5 CURVE SMOOTH",
"-135.038 884.5 OFFCURVE",
"-147.795 888.526 OFFCURVE",
"-155.685 894.873 CURVE",
"-130.771 910.709 OFFCURVE",
"-119.5 933.989 OFFCURVE",
"-119.5 961.5 CURVE SMOOTH",
"-119.5 1005.111 OFFCURVE",
"-152.499 1038.5 OFFCURVE",
"-209 1038.5 CURVE SMOOTH",
"-260.504 1038.5 OFFCURVE",
"-291.5 1017.595 OFFCURVE",
"-291.5 987.5 CURVE SMOOTH",
"-291.5 962.858 OFFCURVE",
"-275.521 947.5 OFFCURVE",
"-255.5 947.5 CURVE SMOOTH",
"-251.407 947.5 OFFCURVE",
"-246 948.924 OFFCURVE",
"-246 954.5 CURVE SMOOTH",
"-246 960.391 OFFCURVE",
"-249.5 961.194 OFFCURVE",
"-249.5 977 CURVE SMOOTH",
"-249.5 996.473 OFFCURVE",
"-236.441 1011.5 OFFCURVE",
"-208.5 1011.5 CURVE SMOOTH",
"-187.034 1011.5 OFFCURVE",
"-168.5 997.539 OFFCURVE",
"-168.5 961 CURVE SMOOTH",
"-168.5 921.953 OFFCURVE",
"-188.893 904.953 OFFCURVE",
"-230.561 903.5 CURVE SMOOTH",
"-237.396 903.5 OFFCURVE",
"-239 896.1 OFFCURVE",
"-239 892 CURVE SMOOTH",
"-239 885.203 OFFCURVE",
"-235.662 875.5 OFFCURVE",
"-228 875.5 CURVE SMOOTH",
"-218.871 875.5 OFFCURVE",
"-206.545 877.093 OFFCURVE",
"-199.414 878.29 CURVE",
"-172.363 857.078 OFFCURVE",
"-163 839.333 OFFCURVE",
"-163 818 CURVE SMOOTH",
"-163 788.155 OFFCURVE",
"-178.247 774 OFFCURVE",
"-205 774 CURVE SMOOTH",
"-254.381 774 OFFCURVE",
"-291.488 808.672 OFFCURVE",
"-318.193 885.646 CURVE SMOOTH",
"-319.775 890.211 OFFCURVE",
"-324.978 890.825 OFFCURVE",
"-329.628 890.825 CURVE SMOOTH",
"-338.718 890.825 OFFCURVE",
"-349.27 885.011 OFFCURVE",
"-349.27 875.654 CURVE SMOOTH",
"-349.27 874.354 OFFCURVE",
"-349.04 873.027 OFFCURVE"
);
}
);
width = 0;
}
);
unicode = A8EA;
userData = {
org.fontforge.glyphclass = mark;
};
},
{
glyphname = acutedeva;
lastChange = "2016-09-19 15:51:21 +0000";
layers = (
{
anchors = (
{
name = "_Lohit-Devanagari-DVAnchor3";
position = "{-137, 664}";
}
);
layerId = "25D154CF-C470-4D68-A10D-6356F2BE0292";
paths = (
{
closed = 1;
nodes = (
"-219 740 LINE",
"-188 704 LINE",
"-70 762 LINE SMOOTH",
"-27 783 OFFCURVE",
"-12 807 OFFCURVE",
"-12 838 CURVE SMOOTH",
"-12 868 OFFCURVE",
"-29 891 OFFCURVE",
"-56 903 CURVE"
);
}
);
width = 0;
}
);
unicode = 0954;
userData = {
org.fontforge.glyphclass = mark;
};
},
{
glyphname = adeva;
lastChange = "2016-09-19 15:51:21 +0000";
layers = (
{
anchors = (
{
name = "Lohit-Devanagari-DVAnchor3";
position = "{636, 664}";
}
);
layerId = "25D154CF-C470-4D68-A10D-6356F2BE0292";
paths = (
{
closed = 1;
nodes = (
"300 85 CURVE SMOOTH",
"393 85 OFFCURVE",
"469 134 OFFCURVE",
"469 234 CURVE SMOOTH",
"469 259 OFFCURVE",
"460 288 OFFCURVE",
"443 316 CURVE",
"507 316 OFFCURVE",
"555 330 OFFCURVE",
"591 361 CURVE",
"591 0 LINE",
"678 0 LINE",
"678 621 LINE",
"781 621 LINE",
"781 666 LINE",
"482 666 LINE",
"482 621 LINE",
"591 621 LINE",
"591 421 LINE",
"553 383 OFFCURVE",
"513 369 OFFCURVE",
"466 369 CURVE SMOOTH",
"428 369 OFFCURVE",
"399 378 OFFCURVE",
"380 398 CURVE",
"432 427 OFFCURVE",
"457 474 OFFCURVE",
"457 530 CURVE SMOOTH",
"457 613 OFFCURVE",
"395 677 OFFCURVE",
"285 677 CURVE SMOOTH",
"183 677 OFFCURVE",
"127 636 OFFCURVE",
"127 582 CURVE SMOOTH",
"127 536 OFFCURVE",
"156 509 OFFCURVE",
"192 509 CURVE SMOOTH",
"200 509 OFFCURVE",
"204 511 OFFCURVE",
"204 516 CURVE SMOOTH",
"204 523 OFFCURVE",
"197 529 OFFCURVE",
"197 561 CURVE SMOOTH",
"197 604 OFFCURVE",
"227 637 OFFCURVE",
"286 637 CURVE SMOOTH",
"333 637 OFFCURVE",
"373 605 OFFCURVE",
"373 529 CURVE SMOOTH",
"373 447 OFFCURVE",
"328 410 OFFCURVE",
"242 407 CURVE SMOOTH",
"235 407 OFFCURVE",
"232 399 OFFCURVE",
"232 391 CURVE SMOOTH",
"232 378 OFFCURVE",
"239 365 OFFCURVE",
"247 365 CURVE SMOOTH",
"266 365 OFFCURVE",
"289 368 OFFCURVE",
"306 371 CURVE",
"361 329 OFFCURVE",
"384 289 OFFCURVE",
"384 243 CURVE SMOOTH",
"384 180 OFFCURVE",
"350 148 OFFCURVE",
"293 148 CURVE SMOOTH",
"190 148 OFFCURVE",
"113.755 221.06 OFFCURVE",
"60 376 CURVE SMOOTH",
"58.749 379.604 OFFCURVE",
"53.236 381.65 OFFCURVE",
"43.744 381.65 CURVE SMOOTH",
"27.455 381.65 OFFCURVE",
"11.461 370.957 OFFCURVE",
"11.461 358.308 CURVE SMOOTH",
"11.461 356.519 OFFCURVE",
"11.771 354.661 OFFCURVE",
"12.436 352.747 CURVE SMOOTH",
"71.763 181.746 OFFCURVE",
"171 85 OFFCURVE"
);
}
);
width = 768;
}
);
unicode = 0905;
userData = {
org.fontforge.glyphclass = baseglyph;
};
},
{
glyphname = aisign_ra_virama.alt1;
lastChange = "2016-09-19 15:51:21 +0000";
layers = (
{
anchors = (
{
name = "_Lohit-Devanagari-DVAnchor3";
position = "{-143, 664}";
}
);
layerId = "25D154CF-C470-4D68-A10D-6356F2BE0292";
paths = (
{
closed = 1;
nodes = (
"-181 799 CURVE SMOOTH",
"-181 791 OFFCURVE",
"-180 784 OFFCURVE",
"-179 776 CURVE",
"-145 761 LINE",
"-148 771 OFFCURVE",
"-149 780 OFFCURVE",
"-149 789 CURVE SMOOTH",
"-149 858 OFFCURVE",
"-97 886 OFFCURVE",
"-56 886 CURVE SMOOTH",
"1 886 OFFCURVE",
"10 861 OFFCURVE",
"29 861 CURVE SMOOTH",
"38 861 OFFCURVE",
"42 870 OFFCURVE",
"42 886 CURVE SMOOTH",
"42 922 OFFCURVE",
"8 945 OFFCURVE",
"-46 945 CURVE SMOOTH",
"-101 945 OFFCURVE",
"-181 908 OFFCURVE"
);
},
{
closed = 1;
nodes = (
"-99 666 LINE",
"-223 988 LINE SMOOTH",
"-226 996 OFFCURVE",
"-229 998 OFFCURVE",
"-237 998 CURVE SMOOTH",
"-261 998 OFFCURVE",
"-316 975 OFFCURVE",
"-316 958 CURVE SMOOTH",
"-316 955 OFFCURVE",
"-314 952 OFFCURVE",
"-313 949 CURVE",
"-158 694 LINE",
"-421 868 LINE",
"-424 868 OFFCURVE",
"-427 873 OFFCURVE",
"-431 873 CURVE SMOOTH",
"-441 873 OFFCURVE",
"-472 830 OFFCURVE",
"-472 802 CURVE SMOOTH",
"-472 797 OFFCURVE",
"-468 793 OFFCURVE",
"-463 790 CURVE",
"-185 666 LINE"
);
}
);
width = 0;
}
);
userData = {
org.fontforge.glyphclass = mark;
};
},
{
glyphname = aisign_ra_virama_anusvara;
lastChange = "2016-09-19 15:51:21 +0000";
layers = (
{
anchors = (
{
name = "_Lohit-Devanagari-DVAnchor3";
position = "{-143, 664}";
}
);
layerId = "25D154CF-C470-4D68-A10D-6356F2BE0292";
paths = (
{
closed = 1;
nodes = (
"-181 799 CURVE SMOOTH",
"-181 791 OFFCURVE",
"-180 784 OFFCURVE",
"-179 776 CURVE",
"-145 761 LINE",
"-148 771 OFFCURVE",
"-149 780 OFFCURVE",
"-149 789 CURVE SMOOTH",
"-149 858 OFFCURVE",
"-97 886 OFFCURVE",
"-56 886 CURVE SMOOTH",
"1 886 OFFCURVE",
"10 861 OFFCURVE",
"29 861 CURVE SMOOTH",
"38 861 OFFCURVE",
"42 870 OFFCURVE",
"42 886 CURVE SMOOTH",
"42 922 OFFCURVE",
"8 945 OFFCURVE",
"-46 945 CURVE SMOOTH",
"-101 945 OFFCURVE",
"-181 908 OFFCURVE"
);
},
{
closed = 1;
nodes = (
"-99 666 LINE",
"-223 988 LINE SMOOTH",
"-226 996 OFFCURVE",
"-229 998 OFFCURVE",
"-237 998 CURVE SMOOTH",
"-261 998 OFFCURVE",
"-316 975 OFFCURVE",
"-316 958 CURVE SMOOTH",
"-316 955 OFFCURVE",
"-314 952 OFFCURVE",
"-313 949 CURVE",
"-158 694 LINE",
"-421 868 LINE",
"-424 868 OFFCURVE",
"-427 873 OFFCURVE",
"-431 873 CURVE SMOOTH",
"-441 873 OFFCURVE",
"-472 830 OFFCURVE",
"-472 802 CURVE SMOOTH",
"-472 797 OFFCURVE",
"-468 793 OFFCURVE",
"-463 790 CURVE",
"-185 666 LINE"
);
},
{
closed = 1;
nodes = (
"-89 786 CURVE SMOOTH",
"-89 766 OFFCURVE",
"-61 737 OFFCURVE",
"-44 737 CURVE SMOOTH",
"-25 737 OFFCURVE",
"3 766 OFFCURVE",
"3 786 CURVE SMOOTH",
"3 805 OFFCURVE",
"-25 835 OFFCURVE",
"-44 835 CURVE SMOOTH",
"-62 835 OFFCURVE",
"-89 805 OFFCURVE"
);
}
);
width = 0;
}
);
userData = {
org.fontforge.glyphclass = mark;
};
},
{
glyphname = aisigndeva;
lastChange = "2016-09-19 15:51:21 +0000";
layers = (
{
anchors = (
{
name = "Lohit-Devanagari-DVAnchor2";
position = "{-120, 820}";
},
{
name = "_Lohit-Devanagari-DVAnchor3";
position = "{-143, 664}";
}
);
layerId = "25D154CF-C470-4D68-A10D-6356F2BE0292";
paths = (
{
closed = 1;
nodes = (
"-330 904 CURVE SMOOTH",
"-236.292 904 OFFCURVE",
"-167.905 816.222 OFFCURVE",
"-153.528 698.046 CURVE",
"-217.331 812.619 OFFCURVE",
"-287.935 838 OFFCURVE",
"-356 838 CURVE SMOOTH",
"-428 838 OFFCURVE",
"-456 790 OFFCURVE",
"-456 763 CURVE SMOOTH",
"-456 755 OFFCURVE",
"-453 748 OFFCURVE",
"-443 748 CURVE SMOOTH",
"-426 748 OFFCURVE",
"-406 767 OFFCURVE",
"-361 767 CURVE SMOOTH",
"-281 767 OFFCURVE",
"-224 720 OFFCURVE",
"-182 666 CURVE",
"-151 666 LINE",
"-137 666 LINE",
"-107 666 LINE",
"-125 914 OFFCURVE",
"-219 975 OFFCURVE",
"-325 975 CURVE SMOOTH",
"-397 975 OFFCURVE",
"-425 927 OFFCURVE",
"-425 900 CURVE SMOOTH",
"-425 892 OFFCURVE",
"-422 885 OFFCURVE",
"-412 885 CURVE SMOOTH",
"-395 885 OFFCURVE",
"-375 904 OFFCURVE"
);
}
);
width = 0;
}
);
unicode = 0948;
userData = {
org.fontforge.glyphclass = mark;
};
},
{
glyphname = aisigndeva_anusvaradeva;
lastChange = "2016-09-19 15:51:21 +0000";
layers = (
{
anchors = (
{
name = "_Lohit-Devanagari-DVAnchor3";
position = "{-143, 664}";
}
);
layerId = "25D154CF-C470-4D68-A10D-6356F2BE0292";
paths = (
{
closed = 1;
nodes = (
"-182 666 LINE",
"-224 720 OFFCURVE",
"-281 767 OFFCURVE",
"-361 767 CURVE SMOOTH",
"-406 767 OFFCURVE",
"-426 748 OFFCURVE",
"-443 748 CURVE SMOOTH",
"-453 748 OFFCURVE",
"-456 755 OFFCURVE",
"-456 763 CURVE SMOOTH",
"-456 790 OFFCURVE",
"-428 838 OFFCURVE",
"-356 838 CURVE SMOOTH",
"-287.935 838 OFFCURVE",
"-217.331 812.619 OFFCURVE",
"-153.528 698.046 CURVE",
"-167.905 816.222 OFFCURVE",
"-236.292 904 OFFCURVE",
"-330 904 CURVE SMOOTH",
"-375 904 OFFCURVE",
"-395 885 OFFCURVE",
"-412 885 CURVE SMOOTH",
"-422 885 OFFCURVE",
"-425 892 OFFCURVE",
"-425 900 CURVE SMOOTH",
"-425 927 OFFCURVE",
"-397 975 OFFCURVE",
"-325 975 CURVE SMOOTH",
"-219 975 OFFCURVE",
"-125 914 OFFCURVE",
"-107 666 CURVE"
);
},
{
closed = 1;
nodes = (
"-83 878 CURVE SMOOTH",
"-83 856 OFFCURVE",
"-52 824 OFFCURVE",
"-33 824 CURVE SMOOTH",
"-12 824 OFFCURVE",
"19 856 OFFCURVE",
"19 878 CURVE SMOOTH",
"19 899 OFFCURVE",
"-12 932 OFFCURVE",
"-33 932 CURVE SMOOTH",
"-53 932 OFFCURVE",
"-83 899 OFFCURVE"
);
}
);
width = 0;
}
);
userData = {
org.fontforge.glyphclass = mark;
};
},
{
glyphname = ampersand;
lastChange = "2016-09-19 15:51:21 +0000";
layers = (
{
layerId = "25D154CF-C470-4D68-A10D-6356F2BE0292";
paths = (
{
closed = 1;
nodes = (
"281 349 CURVE",
"290 349 OFFCURVE",
"293 360 OFFCURVE",
"293 367 CURVE SMOOTH",
"293 376 OFFCURVE",
"289 388 OFFCURVE",
"280 388 CURVE SMOOTH",
"220 388 OFFCURVE",
"167 430 OFFCURVE",
"167 517 CURVE SMOOTH",
"167 578 OFFCURVE",
"207 636 OFFCURVE",
"284 636 CURVE SMOOTH",
"337 636 OFFCURVE",
"369 605 OFFCURVE",
"369 559 CURVE SMOOTH",
"369 516 OFFCURVE",
"350 503 OFFCURVE",
"350 497 CURVE SMOOTH",
"350 491 OFFCURVE",
"356 487 OFFCURVE",
"369 487 CURVE SMOOTH",
"419 487 OFFCURVE",
"450 520 OFFCURVE",
"450 568 CURVE SMOOTH",
"450 634 OFFCURVE",
"380 679 OFFCURVE",
"294 679 CURVE SMOOTH",
"141 679 OFFCURVE",
"65 596 OFFCURVE",
"65 512 CURVE SMOOTH",
"65 427 OFFCURVE",
"118 378 OFFCURVE",
"197 359 CURVE",
"85 329 OFFCURVE",
"29 261 OFFCURVE",
"29 178 CURVE SMOOTH",
"29 56 OFFCURVE",
"122 -13 OFFCURVE",
"265 -13 CURVE SMOOTH",
"425 -13 OFFCURVE",
"481 76 OFFCURVE",
"481 147 CURVE SMOOTH",
"481 184 OFFCURVE",
"463 220 OFFCURVE",
"436 243 CURVE",
"518 249 OFFCURVE",
"620 272 OFFCURVE",
"620 365 CURVE SMOOTH",
"620 424 OFFCURVE",
"573 461 OFFCURVE",
"521 461 CURVE SMOOTH",
"504 461 OFFCURVE",
"481 457 OFFCURVE",
"481 447 CURVE SMOOTH",
"481 435 OFFCURVE",
"530 419 OFFCURVE",
"530 360 CURVE SMOOTH",
"530 226 OFFCURVE",
"227 326 OFFCURVE",
"227 220 CURVE SMOOTH",
"227 206 OFFCURVE",
"236 190 OFFCURVE",
"246 190 CURVE SMOOTH",
"260 190 OFFCURVE",
"266 231 OFFCURVE",
"355 238 CURVE",
"365 238 OFFCURVE",
"376 239 OFFCURVE",
"390 239 CURVE",
"403 222 OFFCURVE",
"413 198 OFFCURVE",
"413 164 CURVE SMOOTH",
"413 81 OFFCURVE",
"352 36 OFFCURVE",
"270 36 CURVE SMOOTH",
"184 36 OFFCURVE",
"134 108 OFFCURVE",
"134 179 CURVE SMOOTH",
"134 251 OFFCURVE",
"178 322 OFFCURVE"
);
}
);
width = 684;
}
);
unicode = 0026;
userData = {
org.fontforge.glyphclass = baseglyph;
};
},
{
glyphname = anudattadeva;
lastChange = "2016-09-19 15:51:21 +0000";
layers = (
{
anchors = (
{
name = "_Lohit-Devanagari-DVAnchor1";
position = "{-310, 0}";
}
);
layerId = "25D154CF-C470-4D68-A10D-6356F2BE0292";
paths = (
{
closed = 1;
nodes = (
"-637 -159 LINE",
"-637 -99 LINE",
"-111 -99 LINE",
"-111 -159 LINE"
);
}
);
width = 0;
}
);
unicode = 0952;
userData = {
org.fontforge.glyphclass = mark;
};
},
{
glyphname = anusvaradeva;
lastChange = "2016-09-19 15:51:21 +0000";
layers = (
{
anchors = (
{
name = "Lohit-Devanagari-DVAnchor2";
position = "{-30, 840}";
},
{
name = "_Lohit-Devanagari-DVAnchor3";
position = "{-143, 666}";
}
);
layerId = "25D154CF-C470-4D68-A10D-6356F2BE0292";
paths = (
{
closed = 1;
nodes = (
"-201 878 CURVE SMOOTH",
"-201 853 OFFCURVE",
"-165 816 OFFCURVE",
"-143 816 CURVE SMOOTH",
"-119 816 OFFCURVE",
"-83 853 OFFCURVE",
"-83 878 CURVE SMOOTH",
"-83 902 OFFCURVE",
"-119 940 OFFCURVE",
"-143 940 CURVE SMOOTH",
"-166 940 OFFCURVE",
"-201 902 OFFCURVE"
);
}
);
width = 0;
}
);
unicode = 0902;
userData = {
org.fontforge.glyphclass = mark;
};
},
{
glyphname = apostrophe;
lastChange = "2016-09-19 15:51:21 +0000";
layers = (
{
layerId = "25D154CF-C470-4D68-A10D-6356F2BE0292";
paths = (
{
closed = 1;
nodes = (
"89 842 LINE",
"93 821 LINE",
"111 808 LINE SMOOTH",
"125 798 OFFCURVE",
"131 789 OFFCURVE",
"131 775 CURVE SMOOTH",
"131 764 OFFCURVE",
"128 752 OFFCURVE",
"121 737 CURVE SMOOTH",
"78 653 LINE",
"106 635 LINE",
"142 674 LINE SMOOTH",
"185 721 OFFCURVE",
"218 760 OFFCURVE",
"218 798 CURVE SMOOTH",
"218 844 OFFCURVE",
"191 859 OFFCURVE",
"157 859 CURVE SMOOTH",
"141 859 OFFCURVE",
"122 855 OFFCURVE",
"106 849 CURVE SMOOTH"
);
}
);
width = 314;
}
);
unicode = 2019;
userData = {
org.fontforge.glyphclass = baseglyph;
};
},
{
glyphname = asciicircum;
lastChange = "2016-09-19 15:51:21 +0000";
layers = (
{
layerId = "25D154CF-C470-4D68-A10D-6356F2BE0292";
paths = (
{
closed = 1;
nodes = (
"247 666 LINE",
"89 369 LINE",
"165 369 LINE",
"286 605 LINE",
"411 369 LINE",
"486 369 LINE",
"328 666 LINE"
);
}
);
width = 636;
}
);
unicode = 005E;
userData = {
org.fontforge.glyphclass = baseglyph;
};
},
{
glyphname = asciitilde;
lastChange = "2016-09-19 15:51:21 +0000";
layers = (
{
layerId = "25D154CF-C470-4D68-A10D-6356F2BE0292";
paths = (
{
closed = 1;
nodes = (
"484 369 LINE",
"458 390 OFFCURVE",
"427 399 OFFCURVE",
"395 399 CURVE SMOOTH",
"316 399 OFFCURVE",
"263 339 OFFCURVE",
"185 339 CURVE SMOOTH",
"152 339 OFFCURVE",
"120 350 OFFCURVE",
"91 369 CURVE",
"91 299 LINE",
"117 278 OFFCURVE",
"149 269 OFFCURVE",
"182 269 CURVE SMOOTH",
"261 269 OFFCURVE",
"313 329 OFFCURVE",
"390 329 CURVE SMOOTH",
"423 329 OFFCURVE",
"456 318 OFFCURVE",
"484 299 CURVE"
);
}
);
width = 636;
}
);
unicode = 007E;
userData = {
org.fontforge.glyphclass = baseglyph;
};
},
{
glyphname = asterisk;
lastChange = "2016-09-19 15:51:21 +0000";
layers = (
{
layerId = "25D154CF-C470-4D68-A10D-6356F2BE0292";
paths = (
{
closed = 1;
nodes = (
"467 609 CURVE SMOOTH",
"467 636 OFFCURVE",
"451 655 OFFCURVE",
"423 662 CURVE",
"360 628 OFFCURVE",
"315 602 OFFCURVE",
"284 587 CURVE",
"314 742 LINE",
"303 761 OFFCURVE",
"285 770 OFFCURVE",
"266 770 CURVE SMOOTH",
"246 770 OFFCURVE",
"230 761 OFFCURVE",
"219 742 CURVE",
"233 672 OFFCURVE",
"241 621 OFFCURVE",
"247 587 CURVE",
"217 603 OFFCURVE",
"172 628 OFFCURVE",
"109 663 CURVE",
"83 657 OFFCURVE",
"65 635 OFFCURVE",
"65 607 CURVE SMOOTH",
"65 595 OFFCURVE",
"70 584 OFFCURVE",
"80 572 CURVE",
"150 563 OFFCURVE",
"201 555 OFFCURVE",
"235 551 CURVE",
"211 529 OFFCURVE",
"174 491 OFFCURVE",
"122 443 CURVE",
"122 414 OFFCURVE",
"138 382 OFFCURVE",
"173 382 CURVE SMOOTH",
"180 382 OFFCURVE",
"190 384 OFFCURVE",
"197 388 CURVE",
"228 453 OFFCURVE",
"252 498 OFFCURVE",
"266 530 CURVE",
"280 498 OFFCURVE",
"304 453 OFFCURVE",
"334 387 CURVE",
"343 383 OFFCURVE",
"350 381 OFFCURVE",
"359 381 CURVE SMOOTH",
"388 381 OFFCURVE",
"410 407 OFFCURVE",
"410 443 CURVE",
"358 492 OFFCURVE",
"321 529 OFFCURVE",
"297 551 CURVE",
"330 555 OFFCURVE",
"381 563 OFFCURVE",
"453 572 CURVE",
"463 584 OFFCURVE",
"467 596 OFFCURVE"
);
}
);
width = 588;
}
);
unicode = 002A;
userData = {
org.fontforge.glyphclass = baseglyph;
};
},
{
glyphname = at;
lastChange = "2016-09-19 15:51:21 +0000";
layers = (
{
layerId = "25D154CF-C470-4D68-A10D-6356F2BE0292";
paths = (
{
closed = 1;
nodes = (
"419 419 CURVE SMOOTH",
"440 419 OFFCURVE",
"459 414 OFFCURVE",
"479 398 CURVE",
"463 213 LINE",
"435 173 OFFCURVE",
"404 154 OFFCURVE",
"378 154 CURVE SMOOTH",
"339 154 OFFCURVE",
"307 197 OFFCURVE",
"307 261 CURVE SMOOTH",
"307 335 OFFCURVE",
"343 419 OFFCURVE"
);
},
{
closed = 1;
nodes = (
"777 292 CURVE SMOOTH",
"777 479 OFFCURVE",
"646 627 OFFCURVE",
"445 627 CURVE SMOOTH",
"225 627 OFFCURVE",
"51 447 OFFCURVE",
"51 232 CURVE SMOOTH",
"51 46 OFFCURVE",
"181 -102 OFFCURVE",
"384 -102 CURVE SMOOTH",
"458 -102 OFFCURVE",
"517 -83 OFFCURVE",
"578 -47 CURVE",
"555 -7 LINE",
"503 -39 OFFCURVE",
"452 -49 OFFCURVE",
"389 -49 CURVE SMOOTH",
"230 -49 OFFCURVE",
"140 70 OFFCURVE",
"140 230 CURVE SMOOTH",
"140 420 OFFCURVE",
"262 573 OFFCURVE",
"440 573 CURVE SMOOTH",
"596 573 OFFCURVE",
"686 455 OFFCURVE",
"686 296 CURVE SMOOTH",
"686 148 OFFCURVE",
"627 82 OFFCURVE",
"590 82 CURVE SMOOTH",
"563 82 OFFCURVE",
"542 107 OFFCURVE",
"542 157 CURVE SMOOTH",
"542 163 OFFCURVE",
"542 169 OFFCURVE",
"562 402 CURVE SMOOTH",
"563 414 OFFCURVE",
"569 422 OFFCURVE",
"573 428 CURVE",
"582 444 LINE",
"575 454 LINE",
"529 458 OFFCURVE",
"465 472 OFFCURVE",
"420 472 CURVE SMOOTH",
"300 472 OFFCURVE",
"216 382 OFFCURVE",
"216 237 CURVE SMOOTH",
"216 136 OFFCURVE",
"268 84 OFFCURVE",
"331 84 CURVE SMOOTH",
"374 84 OFFCURVE",
"425 108 OFFCURVE",
"464 155 CURVE",
"464 75 OFFCURVE",
"512 34 OFFCURVE",
"577 34 CURVE SMOOTH",
"710 34 OFFCURVE",
"777 178 OFFCURVE"
);
}
);
width = 913;
}
);
unicode = 0040;
userData = {
org.fontforge.glyphclass = baseglyph;
};
},
{
glyphname = avagrahacombiningsigndeva;
lastChange = "2016-09-19 15:51:21 +0000";
layers = (
{
anchors = (
{
name = "_Lohit-Devanagari-DVAnchor3";
position = "{-137, 681}";
}
);
layerId = "25D154CF-C470-4D68-A10D-6356F2BE0292";
paths = (
{
closed = 1;
nodes = (
"-167 974.5 CURVE SMOOTH",
"-167 995.033 OFFCURVE",
"-153.367 1003.5 OFFCURVE",
"-130 1003.5 CURVE SMOOTH",
"-52 1003.5 LINE",
"-52 1033 LINE",
"-130 1033 LINE SMOOTH",
"-170.739 1033 OFFCURVE",
"-203.5 1012 OFFCURVE",
"-203.5 971 CURVE SMOOTH",
"-203.5 942.142 OFFCURVE",
"-187.909 922.976 OFFCURVE",
"-168.414 906 CURVE SMOOTH",
"-117.554 858 LINE",
"-103.006 842.69 OFFCURVE",
"-92.5 829.574 OFFCURVE",
"-92.5 804.5 CURVE SMOOTH",
"-92.5 780.457 OFFCURVE",
"-111.502 767 OFFCURVE",
"-137 767 CURVE SMOOTH",
"-166.256 767 OFFCURVE",
"-186 786.446 OFFCURVE",
"-186 814 CURVE SMOOTH",
"-186 835.55 OFFCURVE",
"-176.5 843.168 OFFCURVE",
"-176.5 850.5 CURVE SMOOTH",
"-176.5 855.281 OFFCURVE",
"-181.898 858.5 OFFCURVE",
"-189 858.5 CURVE SMOOTH",
"-215.725 858.5 OFFCURVE",
"-236.5 839.547 OFFCURVE",
"-236.5 812.5 CURVE SMOOTH",
"-236.5 766.848 OFFCURVE",
"-194.021 736 OFFCURVE",
"-136.5 736 CURVE SMOOTH",
"-78.627 736 OFFCURVE",
"-45.5 767.738 OFFCURVE",
"-45.5 807 CURVE SMOOTH",
"-45.5 845.64 OFFCURVE",
"-67.158 868.343 OFFCURVE",
"-87 887 CURVE SMOOTH",
"-147 944 LINE SMOOTH",
"-162.627 958.602 OFFCURVE",
"-167 964.721 OFFCURVE"
);
}
);
width = 0;
}
);
unicode = A8F1;
userData = {
org.fontforge.glyphclass = mark;
};
},
{
glyphname = avagrahadeva;
lastChange = "2016-09-19 15:51:21 +0000";
layers = (
{
layerId = "25D154CF-C470-4D68-A10D-6356F2BE0292";
paths = (
{
closed = 1;
nodes = (
"223 11 CURVE SMOOTH",
"322 11 OFFCURVE",
"388 68 OFFCURVE",
"388 152 CURVE SMOOTH",
"388 216 OFFCURVE",
"362 255 OFFCURVE",
"263 364 CURVE SMOOTH",
"183 452 OFFCURVE",
"167 493 OFFCURVE",
"167 530 CURVE SMOOTH",
"167 580 OFFCURVE",
"197 621 OFFCURVE",
"254 621 CURVE SMOOTH",
"397 621 LINE",
"397 666 LINE",
"262 666 LINE SMOOTH",
"182 666 OFFCURVE",
"96 635 OFFCURVE",
"96 519 CURVE SMOOTH",
"96 466 OFFCURVE",
"118 416 OFFCURVE",
"215 312 CURVE SMOOTH",
"290 231 OFFCURVE",
"308 196 OFFCURVE",
"308 153 CURVE SMOOTH",
"308 94 OFFCURVE",
"277 59 OFFCURVE",
"222 59 CURVE SMOOTH",
"160 59 OFFCURVE",
"117 101 OFFCURVE",
"117 160 CURVE SMOOTH",
"117 204 OFFCURVE",
"136 225 OFFCURVE",
"136 233 CURVE SMOOTH",
"136 236 OFFCURVE",
"131 242 OFFCURVE",
"118 242 CURVE SMOOTH",
"68 242 OFFCURVE",
"30 207 OFFCURVE",
"30 157 CURVE SMOOTH",
"30 71 OFFCURVE",
"110 11 OFFCURVE"
);
}
);
width = 442;
}
);
unicode = 093D;
userData = {
org.fontforge.glyphclass = baseglyph;
};
},
{
glyphname = awdeva;
lastChange = "2016-09-19 15:51:21 +0000";
layers = (
{
components = (
{
name = aadeva;
}
);
layerId = "25D154CF-C470-4D68-A10D-6356F2BE0292";
paths = (
{
closed = 1;
nodes = (
"635 850 CURVE SMOOTH",
"635 884 OFFCURVE",
"656 899 OFFCURVE",
"656 911 CURVE SMOOTH",
"656 919 OFFCURVE",
"650 922 OFFCURVE",
"638 922 CURVE SMOOTH",
"597 922 OFFCURVE",
"555 890 OFFCURVE",
"555 838 CURVE SMOOTH",
"555 679 OFFCURVE",
"870 795 OFFCURVE",
"870 666 CURVE",
"905 666 LINE",
"905 835 OFFCURVE",
"635 724 OFFCURVE"
);
},
{
closed = 1;
nodes = (
"753 908 CURVE SMOOTH",
"753 947 OFFCURVE",
"774 968 OFFCURVE",
"774 978 CURVE SMOOTH",
"774 986 OFFCURVE",
"768 989 OFFCURVE",
"756 989 CURVE SMOOTH",
"715 989 OFFCURVE",
"673 957 OFFCURVE",
"673 905 CURVE SMOOTH",
"673 752 OFFCURVE",
"915 862 OFFCURVE",
"915 666 CURVE",
"950 666 LINE",
"950 897 OFFCURVE",
"753 794 OFFCURVE"
);
}
);
width = 1044;
}
);
unicode = 0975;
userData = {
org.fontforge.glyphclass = baseglyph;
};
},
{
glyphname = awsigndeva;
lastChange = "2016-09-19 15:51:21 +0000";
layers = (
{
components = (
{
name = aasigndeva;
}
);
layerId = "25D154CF-C470-4D68-A10D-6356F2BE0292";
paths = (
{
closed = 1;
nodes = (
"-142 850 CURVE SMOOTH",
"-142 884 OFFCURVE",
"-121 899 OFFCURVE",
"-121 911 CURVE SMOOTH",
"-121 919 OFFCURVE",
"-127 922 OFFCURVE",
"-139 922 CURVE SMOOTH",
"-180 922 OFFCURVE",
"-222 890 OFFCURVE",
"-222 838 CURVE SMOOTH",
"-222 679 OFFCURVE",
"93 795 OFFCURVE",
"93 666 CURVE",
"128 666 LINE",
"128 835 OFFCURVE",
"-142 724 OFFCURVE"
);
},
{
closed = 1;
nodes = (
"-24 908 CURVE SMOOTH",
"-24 947 OFFCURVE",
"-3 968 OFFCURVE",
"-3 978 CURVE SMOOTH",
"-3 986 OFFCURVE",
"-9 989 OFFCURVE",
"-21 989 CURVE SMOOTH",
"-62 989 OFFCURVE",
"-104 957 OFFCURVE",
"-104 905 CURVE SMOOTH",
"-104 752 OFFCURVE",
"138 862 OFFCURVE",
"138 666 CURVE",
"173 666 LINE",
"173 897 OFFCURVE",
"-24 794 OFFCURVE"
);
}
);
width = 266;
}
);
unicode = 094F;
userData = {
org.fontforge.glyphclass = baseglyph;
};
},
{
glyphname = ba_virama_ra_viramadeva;
lastChange = "2016-09-19 15:51:21 +0000";
layers = (
{
components = (
{
name = badeva_viramadeva;
}
);
layerId = "25D154CF-C470-4D68-A10D-6356F2BE0292";
paths = (
{
closed = 1;
nodes = (
"383 203 LINE",
"356 220 LINE",
"128 55 LINE SMOOTH",
"122.816 51.248 OFFCURVE",
"120 46 OFFCURVE",
"120 39 CURVE SMOOTH",
"120 14 OFFCURVE",
"152 -12 OFFCURVE",
"167 -12 CURVE SMOOTH",
"172 -12 OFFCURVE",
"178.123 -8.117 OFFCURVE",
"186 0 CURVE SMOOTH"
);
}
);
width = 347;
}
);
userData = {
org.fontforge.glyphclass = baseglyph;
};
},
{
glyphname = backslash;
lastChange = "2016-09-19 15:51:21 +0000";
layers = (
{
layerId = "25D154CF-C470-4D68-A10D-6356F2BE0292";
paths = (
{
closed = 1;
nodes = (
"345 -59 LINE",
"66 725 LINE",
"0 725 LINE",
"278 -59 LINE"
);
}
);
width = 380;
}
);
unicode = 005C;
userData = {
org.fontforge.glyphclass = baseglyph;
};
},
{
glyphname = badeva;
lastChange = "2016-09-19 15:51:21 +0000";
layers = (
{
anchors = (
{
name = "Lohit-Devanagari-DVAnchor3";
position = "{462, 664}";
}
);
layerId = "25D154CF-C470-4D68-A10D-6356F2BE0292";
paths = (
{
closed = 1;
nodes = (
"327.624 209.196 CURVE",
"170.054 438.625 LINE",
"185.755 449.702 OFFCURVE",
"204.348 455 OFFCURVE",
"224 455 CURVE SMOOTH",
"265 455 OFFCURVE",
"286 428 OFFCURVE",
"286 394 CURVE SMOOTH",
"286 374 OFFCURVE",
"282 371 OFFCURVE",
"282 367 CURVE SMOOTH",
"282 361 OFFCURVE",
"287 359 OFFCURVE",
"296 359 CURVE SMOOTH",
"331 359 OFFCURVE",
"358 377 OFFCURVE",
"358 409 CURVE SMOOTH",
"358 459 OFFCURVE",
"313 497 OFFCURVE",
"231 497 CURVE SMOOTH",
"108 497 OFFCURVE",
"37 422 OFFCURVE",
"37 325 CURVE SMOOTH",
"37 211 OFFCURVE",
"124 139 OFFCURVE",
"230 139 CURVE SMOOTH",
"297 139 OFFCURVE",
"357 162 OFFCURVE",
"417 208 CURVE",
"417 0 LINE",
"503 0 LINE",
"503 621 LINE",
"614 621 LINE",
"614 666 LINE",
"-13 666 LINE",
"-13 621 LINE",
"417 621 LINE",
"417 267 LINE",
"391.945 242.478 OFFCURVE",
"360.638 222.503 OFFCURVE"
);
},
{
closed = 1;
nodes = (
"276.437 194.329 LINE",
"264.135 192.145 OFFCURVE",
"251.915 191 OFFCURVE",
"240 191 CURVE SMOOTH",
"176 191 OFFCURVE",
"124 230 OFFCURVE",
"124 325 CURVE SMOOTH",
"124 353.814 OFFCURVE",
"128.715 377.502 OFFCURVE",
"136.898 396.394 CURVE"
);
}
);
width = 601;
}
);
unicode = 092C;
userData = {
org.fontforge.glyphclass = baseglyph;
};
},
{
glyphname = badeva_viramadeva;
lastChange = "2016-09-19 15:51:21 +0000";
layers = (
{
layerId = "25D154CF-C470-4D68-A10D-6356F2BE0292";
paths = (
{
closed = 1;
nodes = (
"360 666 LINE",
"-13 666 LINE",
"-13 621 LINE",
"360 621 LINE"
);
},
{
closed = 1;
nodes = (
"226 193 CURVE SMOOTH",
"166 193 OFFCURVE",
"125 235 OFFCURVE",
"125 325 CURVE SMOOTH",
"125 352.088 OFFCURVE",
"128.805 374.647 OFFCURVE",
"135.405 392.949 CURVE",
"248.663 194.2 LINE",
"241.469 193.422 OFFCURVE",
"233.92 193 OFFCURVE"
);
},
{
closed = 1;
nodes = (
"299.496 206.914 CURVE",
"167.39 439.352 LINE",
"181.181 449.934 OFFCURVE",
"197.274 455 OFFCURVE",
"214 455 CURVE SMOOTH",
"252 455 OFFCURVE",
"270 428 OFFCURVE",
"270 394 CURVE SMOOTH",
"270 359 OFFCURVE",
"262 354 OFFCURVE",
"262 347 CURVE SMOOTH",
"262 340 OFFCURVE",
"267 339 OFFCURVE",
"276 339 CURVE SMOOTH",
"312 339 OFFCURVE",
"342 365 OFFCURVE",
"342 409 CURVE SMOOTH",
"342 459 OFFCURVE",
"297 497 OFFCURVE",
"215 497 CURVE SMOOTH",
"102 497 OFFCURVE",
"39 421 OFFCURVE",
"39 325 CURVE SMOOTH",
"39 211 OFFCURVE",
"108 139 OFFCURVE",
"224 139 CURVE SMOOTH",
"330 139 OFFCURVE",
"404 214 OFFCURVE",
"404 236 CURVE SMOOTH",
"404 246 OFFCURVE",
"398 259 OFFCURVE",
"382 259 CURVE SMOOTH",
"370.734 259 OFFCURVE",
"347.073 226.277 OFFCURVE"
);
}
);
width = 347;
}
);
userData = {
org.fontforge.glyphclass = baseglyph;
};
},
{
glyphname = badeva_viramadeva_radeva;
lastChange = "2016-09-19 15:51:21 +0000";
layers = (
{
components = (
{
name = badeva;
}
);
layerId = "25D154CF-C470-4D68-A10D-6356F2BE0292";
paths = (
{
closed = 1;
nodes = (
"417 206 LINE",
"417 246 LINE",
"93 74 LINE SMOOTH",
"87 71 OFFCURVE",
"85 65 OFFCURVE",
"85 58 CURVE SMOOTH",
"85 33 OFFCURVE",
"107 -12 OFFCURVE",
"122 -12 CURVE SMOOTH",
"125 -12 OFFCURVE",
"128 -12 OFFCURVE",
"133 -8 CURVE SMOOTH"
);
}
);
width = 601;
}
);
userData = {
org.fontforge.glyphclass = baseglyph;
};
},
{
glyphname = bar;
lastChange = "2016-09-19 15:51:21 +0000";
layers = (
{
layerId = "25D154CF-C470-4D68-A10D-6356F2BE0292";
paths = (
{
closed = 1;
nodes = (
"210 -77 LINE",
"210 690 LINE",
"117 690 LINE",
"117 -77 LINE"
);
}
);
width = 359;
}
);
unicode = 007C;
userData = {
org.fontforge.glyphclass = baseglyph;
};
},
{
glyphname = bbadeva;
lastChange = "2016-09-19 15:51:21 +0000";
layers = (
{
anchors = (
{
name = "Lohit-Devanagari-DVAnchor3";
position = "{460, 664}";
}
);
layerId = "25D154CF-C470-4D68-A10D-6356F2BE0292";
paths = (
{
closed = 1;
nodes = (
"-13 -45 LINE",
"503 -45 LINE",
"503 0 LINE",
"-13 0 LINE"
);
},
{
closed = 1;
nodes = (
"170.054 438.625 LINE",
"185.755 449.702 OFFCURVE",
"204.348 455 OFFCURVE",
"224 455 CURVE SMOOTH",
"265 455 OFFCURVE",
"286 428 OFFCURVE",
"286 394 CURVE SMOOTH",
"286 374 OFFCURVE",
"282 371 OFFCURVE",
"282 367 CURVE SMOOTH",
"282 361 OFFCURVE",
"287 359 OFFCURVE",
"296 359 CURVE SMOOTH",
"331 359 OFFCURVE",
"358 377 OFFCURVE",
"358 409 CURVE SMOOTH",
"358 459 OFFCURVE",
"313 497 OFFCURVE",
"231 497 CURVE SMOOTH",
"108 497 OFFCURVE",
"37 422 OFFCURVE",
"37 325 CURVE SMOOTH",
"37 211 OFFCURVE",
"124 139 OFFCURVE",
"230 139 CURVE SMOOTH",
"297 139 OFFCURVE",
"357 162 OFFCURVE",
"417 208 CURVE",
"417 0 LINE",
"503 0 LINE",
"503 621 LINE",
"614 621 LINE",
"614 666 LINE",
"-13 666 LINE",
"-13 621 LINE",
"417 621 LINE",
"417 267 LINE",
"391.945 242.478 OFFCURVE",
"360.638 222.503 OFFCURVE",
"327.624 209.196 CURVE"
);
},
{
closed = 1;
nodes = (
"136.898 396.394 CURVE",
"276.437 194.329 LINE",
"264.135 192.145 OFFCURVE",
"251.915 191 OFFCURVE",
"240 191 CURVE SMOOTH",
"176 191 OFFCURVE",
"124 230 OFFCURVE",
"124 325 CURVE SMOOTH",
"124 353.814 OFFCURVE",
"128.715 377.502 OFFCURVE"
);
}
);
width = 601;
}
);
unicode = 097F;
userData = {
org.fontforge.glyphclass = baseglyph;
};
},
{
glyphname = bhadeva;
lastChange = "2016-09-19 15:51:21 +0000";
layers = (
{
anchors = (
{
name = "Lohit-Devanagari-DVAnchor3";
position = "{561, 664}";
}
);
layerId = "25D154CF-C470-4D68-A10D-6356F2BE0292";
paths = (
{
closed = 1;
nodes = (
"116 287 CURVE SMOOTH",
"116 229 OFFCURVE",
"160 193 OFFCURVE",
"213 193 CURVE SMOOTH",
"265 193 OFFCURVE",
"310 229 OFFCURVE",
"310 287 CURVE SMOOTH",
"310 318 OFFCURVE",
"250 321 OFFCURVE",
"250 321 CURVE",
"250 321 OFFCURVE",
"256 322 OFFCURVE",
"225 322 CURVE SMOOTH",
"184 322 OFFCURVE",
"166 333 OFFCURVE",
"146 333 CURVE SMOOTH",
"126 333 OFFCURVE",
"116 311 OFFCURVE"
);
},
{
closed = 1;
nodes = (
"516 621 LINE",
"516 0 LINE",
"603 0 LINE",
"603 621 LINE",
"706 621 LINE",
"706 666 LINE",
"353 666 LINE",
"353 621 LINE"
);
},
{
closed = 1;
nodes = (
"259 270 LINE",
"545 270 LINE",
"545 322 LINE",
"259 322 LINE"
);
},
{
closed = 1;
nodes = (
"310 531 LINE SMOOTH",
"310 599 OFFCURVE",
"273 677 OFFCURVE",
"158 677 CURVE SMOOTH",
"83 677 OFFCURVE",
"15 634 OFFCURVE",
"15 557 CURVE SMOOTH",
"15 482 OFFCURVE",
"70 432 OFFCURVE",
"161 432 CURVE SMOOTH",
"175 432 OFFCURVE",
"177 442 OFFCURVE",
"177 460 CURVE SMOOTH",
"177 470 OFFCURVE",
"176 481 OFFCURVE",
"169 481 CURVE SMOOTH",
"109 481 OFFCURVE",
"87 510 OFFCURVE",
"87 557 CURVE SMOOTH",
"87 605 OFFCURVE",
"122 624 OFFCURVE",
"153 624 CURVE SMOOTH",
"204 624 OFFCURVE",
"225 581 OFFCURVE",
"225 531 CURVE SMOOTH",
"225 309 LINE",
"310 309 LINE"
);
}
);
width = 692;
}
);
unicode = 092D;
userData = {
org.fontforge.glyphclass = baseglyph;
};
},
{
glyphname = bhadeva_viramadeva;
lastChange = "2016-09-19 15:51:21 +0000";
layers = (
{
layerId = "25D154CF-C470-4D68-A10D-6356F2BE0292";
paths = (
{
closed = 1;
nodes = (
"310 531 LINE SMOOTH",
"310 599 OFFCURVE",
"273 677 OFFCURVE",
"158 677 CURVE SMOOTH",
"83 677 OFFCURVE",
"15 634 OFFCURVE",
"15 557 CURVE SMOOTH",
"15 482 OFFCURVE",
"70 432 OFFCURVE",
"161 432 CURVE SMOOTH",
"175 432 OFFCURVE",
"177 442 OFFCURVE",
"177 460 CURVE SMOOTH",
"177 470 OFFCURVE",
"176 481 OFFCURVE",
"169 481 CURVE SMOOTH",
"109 481 OFFCURVE",
"87 510 OFFCURVE",
"87 557 CURVE SMOOTH",
"87 605 OFFCURVE",
"122 624 OFFCURVE",
"153 624 CURVE SMOOTH",
"204 624 OFFCURVE",
"225 581 OFFCURVE",
"225 531 CURVE SMOOTH",
"225 309 LINE",
"310 309 LINE"
);
},
{
closed = 1;
nodes = (
"150 312 CURVE SMOOTH",
"150 263 OFFCURVE",
"186 234 OFFCURVE",
"230 234 CURVE SMOOTH",
"273 234 OFFCURVE",
"310 263 OFFCURVE",
"310 312 CURVE SMOOTH",
"310 356 OFFCURVE",
"284 383 OFFCURVE",
"260 383 CURVE",
"260 336 OFFCURVE",
"245 327 OFFCURVE",
"234 327 CURVE SMOOTH",
"207 327 OFFCURVE",
"195 345 OFFCURVE",
"173 345 CURVE SMOOTH",
"158 345 OFFCURVE",
"150 329 OFFCURVE"
);
},
{
closed = 1;
nodes = (
"259 270 LINE",
"554 270 LINE",
"554 322 LINE",
"259 322 LINE"
);
},
{
closed = 1;
nodes = (
"514 666 LINE",
"353 666 LINE",
"353 621 LINE",
"514 621 LINE"
);
}
);
width = 501;
}
);
userData = {
org.fontforge.glyphclass = baseglyph;
};
},
{
glyphname = braceleft;
lastChange = "2016-09-19 15:51:21 +0000";
layers = (
{
layerId = "25D154CF-C470-4D68-A10D-6356F2BE0292";
paths = (
{
closed = 1;
nodes = (
"173 148 CURVE SMOOTH",
"173 253 OFFCURVE",
"132 295 OFFCURVE",
"72 307 CURVE",
"132 320 OFFCURVE",
"173 362 OFFCURVE",
"173 465 CURVE SMOOTH",
"173 572 OFFCURVE",
"201 661 OFFCURVE",
"268 677 CURVE",
"262 718 LINE",
"123 701 OFFCURVE",
"71 594 OFFCURVE",
"71 465 CURVE SMOOTH",
"71 369 OFFCURVE",
"53 334 OFFCURVE",
"0 324 CURVE",
"0 289 LINE",
"53 278 OFFCURVE",
"71 245 OFFCURVE",
"71 148 CURVE SMOOTH",
"71 20 OFFCURVE",
"123 -87 OFFCURVE",
"262 -103 CURVE",
"268 -62 LINE",
"201 -47 OFFCURVE",
"173 43 OFFCURVE"
);
}
);
width = 324;
}
);
unicode = 007B;
userData = {
org.fontforge.glyphclass = baseglyph;
};
},
{
glyphname = braceright;
lastChange = "2016-09-19 15:51:21 +0000";
layers = (
{
layerId = "25D154CF-C470-4D68-A10D-6356F2BE0292";
paths = (
{
closed = 1;
nodes = (
"119 148 CURVE SMOOTH",
"119 253 OFFCURVE",
"160 295 OFFCURVE",
"220 307 CURVE",
"160 320 OFFCURVE",
"119 362 OFFCURVE",
"119 465 CURVE SMOOTH",
"119 572 OFFCURVE",
"91 661 OFFCURVE",
"24 677 CURVE",
"31 718 LINE",
"170 701 OFFCURVE",
"221 594 OFFCURVE",
"221 465 CURVE SMOOTH",
"221 369 OFFCURVE",
"240 334 OFFCURVE",
"293 324 CURVE",
"293 289 LINE",
"240 278 OFFCURVE",
"221 245 OFFCURVE",
"221 148 CURVE SMOOTH",
"221 20 OFFCURVE",
"170 -87 OFFCURVE",
"31 -103 CURVE",
"24 -62 LINE",
"91 -47 OFFCURVE",
"119 43 OFFCURVE"
);
}
);
width = 324;
}
);
leftKerningGroup = kc0_6;
unicode = 007D;
userData = {
org.fontforge.glyphclass = baseglyph;
};
},
{
glyphname = bracketleft;
lastChange = "2016-09-19 15:51:21 +0000";
layers = (
{
layerId = "25D154CF-C470-4D68-A10D-6356F2BE0292";
paths = (
{
closed = 1;
nodes = (
"117 -103 LINE",
"334 -103 LINE",
"334 -59 LINE",
"260 -48 LINE SMOOTH",
"226 -43 OFFCURVE",
"210 -34 OFFCURVE",
"210 1 CURVE SMOOTH",
"210 614 LINE SMOOTH",
"210 647 OFFCURVE",
"226 657 OFFCURVE",
"260 663 CURVE SMOOTH",
"334 673 LINE",
"334 718 LINE",
"117 718 LINE"
);
}
);
width = 396;
}
);
unicode = 005B;
userData = {
org.fontforge.glyphclass = baseglyph;
};
},
{
glyphname = bracketright;
lastChange = "2016-09-19 15:51:21 +0000";
layers = (
{
layerId = "25D154CF-C470-4D68-A10D-6356F2BE0292";
paths = (
{
closed = 1;
nodes = (
"243 -103 LINE",
"26 -103 LINE",
"26 -59 LINE",
"100 -48 LINE SMOOTH",
"134 -43 OFFCURVE",
"150 -34 OFFCURVE",
"150 1 CURVE SMOOTH",
"150 614 LINE SMOOTH",
"150 647 OFFCURVE",
"134 657 OFFCURVE",
"100 663 CURVE SMOOTH",
"26 673 LINE",
"26 718 LINE",
"243 718 LINE"
);
}
);
width = 396;
}
);
leftKerningGroup = kc0_6;
unicode = 005D;
userData = {
org.fontforge.glyphclass = baseglyph;
};
},
{
glyphname = cadeva;
lastChange = "2016-09-19 15:51:21 +0000";
layers = (
{
anchors = (
{
name = "Lohit-Devanagari-DVAnchor3";
position = "{513, 664}";
}
);
layerId = "25D154CF-C470-4D68-A10D-6356F2BE0292";
paths = (
{
closed = 1;
nodes = (
"470 304 LINE",
"427 234 OFFCURVE",
"374 188 OFFCURVE",
"307 188 CURVE SMOOTH",
"244 188 OFFCURVE",
"191 223 OFFCURVE",
"191 311 CURVE SMOOTH",
"191 394 OFFCURVE",
"241 430 OFFCURVE",
"299 430 CURVE",
"299 467 LINE",
"176 467 OFFCURVE",
"105 399 OFFCURVE",
"105 301 CURVE SMOOTH",
"105 193 OFFCURVE",
"192 135 OFFCURVE",
"281 135 CURVE SMOOTH",
"360 135 OFFCURVE",
"414 169 OFFCURVE",
"469 235 CURVE",
"469 0 LINE",
"556 0 LINE",
"556 621 LINE",
"659 621 LINE",
"659 666 LINE",
"-13 666 LINE",
"-13 621 LINE",
"470 621 LINE"
);
},
{
closed = 1;
nodes = (
"22 483 LINE SMOOTH",
"15 483 OFFCURVE",
"12 467 OFFCURVE",
"12 457 CURVE SMOOTH",
"12 446 OFFCURVE",
"15 430 OFFCURVE",
"22 430 CURVE SMOOTH",
"389 430 LINE SMOOTH",
"396 430 OFFCURVE",
"399 446 OFFCURVE",
"399 457 CURVE SMOOTH",
"399 467 OFFCURVE",
"396 483 OFFCURVE",
"389 483 CURVE SMOOTH"
);
}
);
width = 646;
}
);
unicode = 091A;
userData = {
org.fontforge.glyphclass = baseglyph;
};
},
{
glyphname = cadeva_viramadeva;
lastChange = "2016-09-19 15:51:21 +0000";
layers = (
{
layerId = "25D154CF-C470-4D68-A10D-6356F2BE0292";
paths = (
{
closed = 1;
nodes = (
"22 483 LINE SMOOTH",
"15 483 OFFCURVE",
"12 467 OFFCURVE",
"12 457 CURVE SMOOTH",
"12 446 OFFCURVE",
"15 430 OFFCURVE",
"22 430 CURVE SMOOTH",
"389 430 LINE SMOOTH",
"396 430 OFFCURVE",
"399 446 OFFCURVE",
"399 457 CURVE SMOOTH",
"399 467 OFFCURVE",
"396 483 OFFCURVE",
"389 483 CURVE SMOOTH"
);
},
{
closed = 1;
nodes = (
"501 621 LINE",
"501 666 LINE",
"-13 666 LINE",
"-13 621 LINE"
);
},
{
closed = 1;
nodes = (
"285 135 CURVE SMOOTH",
"478 135 OFFCURVE",
"576 278 OFFCURVE",
"576 294 CURVE SMOOTH",
"576 303 OFFCURVE",
"564 316 OFFCURVE",
"547 316 CURVE SMOOTH",
"527 316 OFFCURVE",
"467 188 OFFCURVE",
"302 188 CURVE SMOOTH",
"239 188 OFFCURVE",
"191 223 OFFCURVE",
"191 311 CURVE SMOOTH",
"191 394 OFFCURVE",
"241 430 OFFCURVE",
"299 430 CURVE",
"299 467 LINE",
"176 467 OFFCURVE",
"105 399 OFFCURVE",
"105 301 CURVE SMOOTH",
"105 193 OFFCURVE",
"192 135 OFFCURVE"
);
}
);
width = 488;
}
);
userData = {
org.fontforge.glyphclass = baseglyph;
};
},
{
glyphname = cadeva_viramadeva_cadeva;
lastChange = "2016-09-19 15:51:21 +0000";
layers = (
{
layerId = "25D154CF-C470-4D68-A10D-6356F2BE0292";
paths = (
{
closed = 1;
nodes = (
"288 333 LINE",
"209 333 OFFCURVE",
"181 366 OFFCURVE",
"181 409 CURVE SMOOTH",
"181 458 OFFCURVE",
"231 480 OFFCURVE",
"289 480 CURVE",
"289 517 LINE",
"166 517 OFFCURVE",
"95 468 OFFCURVE",
"95 399 CURVE SMOOTH",
"95 356 OFFCURVE",
"128 291 OFFCURVE",
"288 291 CURVE"
);
},
{
closed = 1;
nodes = (
"459 0 LINE",
"546 0 LINE",
"546 621 LINE",
"651 621 LINE",
"651 666 LINE",
"-13 666 LINE",
"-13 621 LINE",
"460 621 LINE"
);
},
{
closed = 1;
nodes = (
"22 533 LINE SMOOTH",
"15 533 OFFCURVE",
"12 517 OFFCURVE",
"12 507 CURVE SMOOTH",
"12 496 OFFCURVE",
"15 480 OFFCURVE",
"22 480 CURVE SMOOTH",
"379 480 LINE SMOOTH",
"386 480 OFFCURVE",
"389 496 OFFCURVE",
"389 507 CURVE SMOOTH",
"389 517 OFFCURVE",
"386 533 OFFCURVE",
"379 533 CURVE SMOOTH"
);
},
{
closed = 1;
nodes = (
"460 204 LINE",
"412 134 OFFCURVE",
"353 88 OFFCURVE",
"279 88 CURVE SMOOTH",
"226 88 OFFCURVE",
"181 116 OFFCURVE",
"181 186 CURVE SMOOTH",
"181 251 OFFCURVE",
"230 280 OFFCURVE",
"288 280 CURVE",
"288 317 LINE",
"165 317 OFFCURVE",
"95 259 OFFCURVE",
"95 176 CURVE SMOOTH",
"95 84 OFFCURVE",
"173 35 OFFCURVE",
"253 35 CURVE SMOOTH",
"340 35 OFFCURVE",
"399 69 OFFCURVE",
"459 135 CURVE"
);
},
{
closed = 1;
nodes = (
"22 333 LINE SMOOTH",
"15 333 OFFCURVE",
"12 317 OFFCURVE",
"12 307 CURVE SMOOTH",
"12 296 OFFCURVE",
"15 280 OFFCURVE",
"22 280 CURVE SMOOTH",
"379 280 LINE SMOOTH",
"386 280 OFFCURVE",
"389 296 OFFCURVE",
"389 307 CURVE SMOOTH",
"389 317 OFFCURVE",
"386 333 OFFCURVE",
"379 333 CURVE SMOOTH"
);
}
);
width = 637;
}
);
userData = {
org.fontforge.glyphclass = baseglyph;
};
},
{
glyphname = cadeva_viramadeva_radeva;
lastChange = "2016-09-19 15:51:21 +0000";
layers = (
{
components = (
{
name = cadeva;
}
);
layerId = "25D154CF-C470-4D68-A10D-6356F2BE0292";
paths = (
{
closed = 1;
nodes = (
"506 250 LINE",
"423 226 LINE",
"99 54 LINE SMOOTH",
"93 51 OFFCURVE",
"91 45 OFFCURVE",
"91 38 CURVE SMOOTH",
"91 13 OFFCURVE",
"113 -32 OFFCURVE",
"128 -32 CURVE SMOOTH",
"131 -32 OFFCURVE",
"134 -32 OFFCURVE",
"139 -28 CURVE SMOOTH"
);
}
);
width = 646;
}
);
userData = {
org.fontforge.glyphclass = baseglyph;
};
},
{
glyphname = candrabinduavagrahadeva;
lastChange = "2016-09-19 15:51:21 +0000";
layers = (
{
layerId = "25D154CF-C470-4D68-A10D-6356F2BE0292";
paths = (
{
closed = 1;
nodes = (
"272 -33 CURVE SMOOTH",
"365 -33 OFFCURVE",
"427 14 OFFCURVE",
"427 83 CURVE SMOOTH",
"427 203 OFFCURVE",
"231 227 OFFCURVE",
"231 306 CURVE SMOOTH",
"231 328 OFFCURVE",
"251 345 OFFCURVE",
"290 345 CURVE SMOOTH",
"403 345 LINE",
"403 390 LINE",
"290 390 LINE SMOOTH",
"223 390 OFFCURVE",
"160 370 OFFCURVE",
"160 295 CURVE SMOOTH",
"160 178 OFFCURVE",
"347 167 OFFCURVE",
"347 84 CURVE SMOOTH",
"347 41 OFFCURVE",
"319 15 OFFCURVE",
"271 15 CURVE SMOOTH",
"229 15 OFFCURVE",
"200 43 OFFCURVE",
"200 77 CURVE SMOOTH",
"200 116 OFFCURVE",
"218 133 OFFCURVE",
"218 145 CURVE SMOOTH",
"218 149 OFFCURVE",
"213 153 OFFCURVE",
"203 153 CURVE SMOOTH",
"154 153 OFFCURVE",
"119 120 OFFCURVE",
"119 74 CURVE SMOOTH",
"119 16 OFFCURVE",
"178 -33 OFFCURVE"
);
},
{
closed = 1;
nodes = (
"236 644 CURVE SMOOTH",
"236 622 OFFCURVE",
"267 590 OFFCURVE",
"286 590 CURVE SMOOTH",
"307 590 OFFCURVE",
"338 622 OFFCURVE",
"338 644 CURVE SMOOTH",
"338 665 OFFCURVE",
"307 698 OFFCURVE",
"286 698 CURVE SMOOTH",
"266 698 OFFCURVE",
"236 665 OFFCURVE"
);
},
{
closed = 1;
nodes = (
"286 506 CURVE SMOOTH",
"228 506 OFFCURVE",
"186 546 OFFCURVE",
"181 609 CURVE SMOOTH",
"177 655 OFFCURVE",
"168 661 OFFCURVE",
"156 661 CURVE SMOOTH",
"133 661 OFFCURVE",
"105 636 OFFCURVE",
"105 592 CURVE SMOOTH",
"105 517 OFFCURVE",
"183 465 OFFCURVE",
"286 465 CURVE SMOOTH",
"388 465 OFFCURVE",
"466 517 OFFCURVE",
"466 592 CURVE SMOOTH",
"466 636 OFFCURVE",
"438 661 OFFCURVE",
"415 661 CURVE SMOOTH",
"403 661 OFFCURVE",
"394 655 OFFCURVE",
"390 609 CURVE SMOOTH",
"385 546 OFFCURVE",
"342 506 OFFCURVE"
);
}
);
width = 571;
}
);
unicode = A8F7;
userData = {
org.fontforge.glyphclass = baseglyph;
};
},
{
glyphname = candrabindudeva;
lastChange = "2016-09-19 15:51:21 +0000";
layers = (
{
anchors = (
{
name = "_Lohit-Devanagari-DVAnchor3";
position = "{-143, 666}";
}
);
layerId = "25D154CF-C470-4D68-A10D-6356F2BE0292";
paths = (
{
closed = 1;
nodes = (
"-143 800 CURVE SMOOTH",
"-201 800 OFFCURVE",
"-243 840 OFFCURVE",
"-248 903 CURVE SMOOTH",
"-252 949 OFFCURVE",
"-261 955 OFFCURVE",
"-273 955 CURVE SMOOTH",
"-296 955 OFFCURVE",
"-324 930 OFFCURVE",
"-324 886 CURVE SMOOTH",
"-324 811 OFFCURVE",
"-246 759 OFFCURVE",
"-143 759 CURVE SMOOTH",
"-41 759 OFFCURVE",
"37 811 OFFCURVE",
"37 886 CURVE SMOOTH",
"37 930 OFFCURVE",
"9 955 OFFCURVE",
"-14 955 CURVE SMOOTH",
"-26 955 OFFCURVE",
"-35 949 OFFCURVE",
"-39 903 CURVE SMOOTH",
"-44 840 OFFCURVE",
"-87 800 OFFCURVE"
);
},
{
closed = 1;
nodes = (
"-193 938 CURVE SMOOTH",
"-193 916 OFFCURVE",
"-162 884 OFFCURVE",
"-143 884 CURVE SMOOTH",
"-122 884 OFFCURVE",
"-91 916 OFFCURVE",
"-91 938 CURVE SMOOTH",
"-91 959 OFFCURVE",
"-122 992 OFFCURVE",
"-143 992 CURVE SMOOTH",
"-163 992 OFFCURVE",
"-193 959 OFFCURVE"
);
}
);
width = 0;
}
);
unicode = 0901;
userData = {
org.fontforge.glyphclass = mark;
};
},
{
glyphname = candrabindudigitthreedeva;
lastChange = "2016-09-19 15:51:21 +0000";
layers = (
{
layerId = "25D154CF-C470-4D68-A10D-6356F2BE0292";
paths = (
{
closed = 1;
nodes = (
"236 644 CURVE SMOOTH",
"236 622 OFFCURVE",
"267 590 OFFCURVE",
"286 590 CURVE SMOOTH",
"307 590 OFFCURVE",
"338 622 OFFCURVE",
"338 644 CURVE SMOOTH",
"338 665 OFFCURVE",
"307 698 OFFCURVE",
"286 698 CURVE SMOOTH",
"266 698 OFFCURVE",
"236 665 OFFCURVE"
);
},
{
closed = 1;
nodes = (
"286 506 CURVE SMOOTH",
"228 506 OFFCURVE",
"186 546 OFFCURVE",
"181 609 CURVE SMOOTH",
"177 655 OFFCURVE",
"168 661 OFFCURVE",
"156 661 CURVE SMOOTH",
"133 661 OFFCURVE",
"105 636 OFFCURVE",
"105 592 CURVE SMOOTH",
"105 517 OFFCURVE",
"183 465 OFFCURVE",
"286 465 CURVE SMOOTH",
"388 465 OFFCURVE",
"466 517 OFFCURVE",
"466 592 CURVE SMOOTH",
"466 636 OFFCURVE",
"438 661 OFFCURVE",
"415 661 CURVE SMOOTH",
"403 661 OFFCURVE",
"394 655 OFFCURVE",
"390 609 CURVE SMOOTH",
"385 546 OFFCURVE",
"342 506 OFFCURVE"
);
},
{
closed = 1;
nodes = (
"253 162 CURVE SMOOTH",
"326 162 OFFCURVE",
"364 128 OFFCURVE",
"364 85 CURVE SMOOTH",
"364 44 OFFCURVE",
"333 17 OFFCURVE",
"292 8 CURVE",
"248 53 OFFCURVE",
"216 63 OFFCURVE",
"187 63 CURVE SMOOTH",
"150 63 OFFCURVE",
"135 46 OFFCURVE",
"135 25 CURVE SMOOTH",
"135 -4 OFFCURVE",
"165 -42 OFFCURVE",
"246 -42 CURVE SMOOTH",
"387 -42 OFFCURVE",
"449 23 OFFCURVE",
"449 88 CURVE SMOOTH",
"449 148 OFFCURVE",
"387 209 OFFCURVE",
"278 209 CURVE SMOOTH",
"224 209 OFFCURVE",
"188 195 OFFCURVE",
"188 184 CURVE SMOOTH",
"188 174 OFFCURVE",
"193 155 OFFCURVE",
"204 155 CURVE SMOOTH",
"211 155 OFFCURVE",
"222 162 OFFCURVE"
);
},
{
closed = 1;
nodes = (
"252 -31 LINE",
"327 -58 OFFCURVE",
"406 -149 OFFCURVE",
"417 -149 CURVE SMOOTH",
"427 -149 OFFCURVE",
"447 -130 OFFCURVE",
"447 -123 CURVE SMOOTH",
"447 -111 OFFCURVE",
"381 -42 OFFCURVE",
"292 2 CURVE"
);
},
{
closed = 1;
nodes = (
"273 332 CURVE SMOOTH",
"323 332 OFFCURVE",
"349 308 OFFCURVE",
"349 278 CURVE SMOOTH",
"349 241 OFFCURVE",
"318 217 OFFCURVE",
"278 209 CURVE",
"264 172 LINE",
"383 172 OFFCURVE",
"434 226 OFFCURVE",
"434 281 CURVE SMOOTH",
"434 331 OFFCURVE",
"382 382 OFFCURVE",
"280 382 CURVE SMOOTH",
"205 382 OFFCURVE",
"140 356 OFFCURVE",
"140 338 CURVE SMOOTH",
"140 327 OFFCURVE",
"145 307 OFFCURVE",
"156 307 CURVE SMOOTH",
"164 307 OFFCURVE",
"206 332 OFFCURVE"
);
}
);
width = 571;
}
);
unicode = A8F6;
userData = {
org.fontforge.glyphclass = baseglyph;
};
},
{
glyphname = candrabindudigittwodeva;
lastChange = "2016-09-19 15:51:21 +0000";
layers = (
{
layerId = "25D154CF-C470-4D68-A10D-6356F2BE0292";
paths = (
{
closed = 1;
nodes = (
"236 644 CURVE SMOOTH",
"236 622 OFFCURVE",
"267 590 OFFCURVE",
"286 590 CURVE SMOOTH",
"307 590 OFFCURVE",
"338 622 OFFCURVE",
"338 644 CURVE SMOOTH",
"338 665 OFFCURVE",
"307 698 OFFCURVE",
"286 698 CURVE SMOOTH",
"266 698 OFFCURVE",
"236 665 OFFCURVE"
);
},
{
closed = 1;
nodes = (
"286 506 CURVE SMOOTH",
"228 506 OFFCURVE",
"186 546 OFFCURVE",
"181 609 CURVE SMOOTH",
"177 655 OFFCURVE",
"168 661 OFFCURVE",
"156 661 CURVE SMOOTH",
"133 661 OFFCURVE",
"105 636 OFFCURVE",
"105 592 CURVE SMOOTH",
"105 517 OFFCURVE",
"183 465 OFFCURVE",
"286 465 CURVE SMOOTH",
"388 465 OFFCURVE",
"466 517 OFFCURVE",
"466 592 CURVE SMOOTH",
"466 636 OFFCURVE",
"438 661 OFFCURVE",
"415 661 CURVE SMOOTH",
"403 661 OFFCURVE",
"394 655 OFFCURVE",
"390 609 CURVE SMOOTH",
"385 546 OFFCURVE",
"342 506 OFFCURVE"
);
},
{
closed = 1;
nodes = (
"255 327 CURVE SMOOTH",
"337 327 OFFCURVE",
"379 278 OFFCURVE",
"379 214 CURVE SMOOTH",
"379 148 OFFCURVE",
"337 105 OFFCURVE",
"280 90 CURVE",
"236 135 OFFCURVE",
"204 145 OFFCURVE",
"175 145 CURVE SMOOTH",
"138 145 OFFCURVE",
"123 128 OFFCURVE",
"123 107 CURVE SMOOTH",
"123 78 OFFCURVE",
"153 40 OFFCURVE",
"234 40 CURVE SMOOTH",
"393 40 OFFCURVE",
"464 129 OFFCURVE",
"464 217 CURVE SMOOTH",
"464 300 OFFCURVE",
"399 382 OFFCURVE",
"283 382 CURVE SMOOTH",
"211 382 OFFCURVE",
"124 354 OFFCURVE",
"124 338 CURVE SMOOTH",
"124 324 OFFCURVE",
"131 302 OFFCURVE",
"139 302 CURVE SMOOTH",
"148 302 OFFCURVE",
"187 327 OFFCURVE"
);
},
{
closed = 1;
nodes = (
"240 51 LINE",
"316 24 OFFCURVE",
"394 -67 OFFCURVE",
"405 -67 CURVE SMOOTH",
"415 -67 OFFCURVE",
"435 -49 OFFCURVE",
"435 -41 CURVE SMOOTH",
"435 -29 OFFCURVE",
"369 40 OFFCURVE",
"280 84 CURVE"
);
}
);
width = 571;
}
);
unicode = A8F5;
userData = {
org.fontforge.glyphclass = baseglyph;
};
},
{
glyphname = candrabinduinverteddeva;
lastChange = "2016-09-19 15:51:21 +0000";
layers = (
{
anchors = (
{
name = "_Lohit-Devanagari-DVAnchor3";
position = "{-143, 666}";
}
);
layerId = "25D154CF-C470-4D68-A10D-6356F2BE0292";
paths = (
{
closed = 1;
nodes = (
"-193 813 CURVE SMOOTH",
"-193 792 OFFCURVE",
"-163 759 OFFCURVE",
"-143 759 CURVE SMOOTH",
"-122 759 OFFCURVE",
"-91 792 OFFCURVE",
"-91 813 CURVE SMOOTH",
"-91 835 OFFCURVE",
"-122 867 OFFCURVE",
"-143 867 CURVE SMOOTH",
"-162 867 OFFCURVE",
"-193 835 OFFCURVE"
);
},
{
closed = 1;
nodes = (
"-143 951 CURVE SMOOTH",
"-87 951 OFFCURVE",
"-44 911 OFFCURVE",
"-39 848 CURVE SMOOTH",
"-35 802 OFFCURVE",
"-26 796 OFFCURVE",
"-14 796 CURVE SMOOTH",
"9 796 OFFCURVE",
"37 821 OFFCURVE",
"37 865 CURVE SMOOTH",
"37 940 OFFCURVE",
"-41 992 OFFCURVE",
"-143 992 CURVE SMOOTH",
"-246 992 OFFCURVE",
"-324 940 OFFCURVE",
"-324 865 CURVE SMOOTH",
"-324 821 OFFCURVE",
"-296 796 OFFCURVE",
"-273 796 CURVE SMOOTH",
"-261 796 OFFCURVE",
"-252 802 OFFCURVE",
"-248 848 CURVE SMOOTH",
"-243 911 OFFCURVE",
"-201 951 OFFCURVE"
);
}
);
width = 0;
}
);
unicode = 0900;
userData = {
org.fontforge.glyphclass = mark;
};
},
{
glyphname = candrabinduviramadeva;
lastChange = "2016-09-19 15:51:21 +0000";
layers = (
{
layerId = "25D154CF-C470-4D68-A10D-6356F2BE0292";
paths = (
{
closed = 1;
nodes = (
"236 644 CURVE SMOOTH",
"236 622 OFFCURVE",
"267 590 OFFCURVE",
"286 590 CURVE SMOOTH",
"307 590 OFFCURVE",
"338 622 OFFCURVE",
"338 644 CURVE SMOOTH",
"338 665 OFFCURVE",
"307 698 OFFCURVE",
"286 698 CURVE SMOOTH",
"266 698 OFFCURVE",
"236 665 OFFCURVE"
);
},
{
closed = 1;
nodes = (
"286 506 CURVE SMOOTH",
"228 506 OFFCURVE",
"186 546 OFFCURVE",
"181 609 CURVE SMOOTH",
"177 655 OFFCURVE",
"168 661 OFFCURVE",
"156 661 CURVE SMOOTH",
"133 661 OFFCURVE",
"105 636 OFFCURVE",
"105 592 CURVE SMOOTH",
"105 517 OFFCURVE",
"183 465 OFFCURVE",
"286 465 CURVE SMOOTH",
"388 465 OFFCURVE",
"466 517 OFFCURVE",
"466 592 CURVE SMOOTH",
"466 636 OFFCURVE",
"438 661 OFFCURVE",
"415 661 CURVE SMOOTH",
"403 661 OFFCURVE",
"394 655 OFFCURVE",
"390 609 CURVE SMOOTH",
"385 546 OFFCURVE",
"342 506 OFFCURVE"
);
},
{
closed = 1;
nodes = (
"477 132 CURVE SMOOTH",
"494 132 OFFCURVE",
"525 162 OFFCURVE",
"525 181 CURVE SMOOTH",
"525 187 OFFCURVE",
"522 191 OFFCURVE",
"514 197 CURVE SMOOTH",
"285 359 LINE",
"217 318 LINE SMOOTH",
"208 312 OFFCURVE",
"202 307 OFFCURVE",
"202 300 CURVE SMOOTH",
"202 285 OFFCURVE",
"227 252 OFFCURVE",
"241 252 CURVE SMOOTH",
"248 252 OFFCURVE",
"254 254 OFFCURVE",
"264 268 CURVE SMOOTH",
"286 298 LINE",
"457 142 LINE SMOOTH",
"465 135 OFFCURVE",
"471 132 OFFCURVE"
);
}
);
width = 571;
}
);
unicode = A8F3;
userData = {
org.fontforge.glyphclass = baseglyph;
};
},
{
glyphname = caretdeva;
lastChange = "2016-09-19 15:51:21 +0000";
layers = (
{
layerId = "25D154CF-C470-4D68-A10D-6356F2BE0292";
paths = (
{
closed = 1;
nodes = (
"173 933 CURVE SMOOTH",
"148 933 OFFCURVE",
"108 900 OFFCURVE",
"108 885 CURVE SMOOTH",
"108 883 OFFCURVE",
"109 881 OFFCURVE",
"110 880 CURVE",
"277 666 LINE",
"339 666 LINE",
"506 880 LINE",
"507 881 OFFCURVE",
"508 883 OFFCURVE",
"508 885 CURVE SMOOTH",
"508 900 OFFCURVE",
"469 934 OFFCURVE",
"444 934 CURVE SMOOTH",
"437 934 OFFCURVE",
"431 931 OFFCURVE",
"427 924 CURVE SMOOTH",
"308 712 LINE",
"189 924 LINE SMOOTH",
"185 931 OFFCURVE",
"180 933 OFFCURVE"
);
}
);
width = 615;
}
);
unicode = A8FA;
userData = {
org.fontforge.glyphclass = baseglyph;
};
},
{
glyphname = cent;
lastChange = "2016-09-19 15:51:21 +0000";
layers = (
{
layerId = "25D154CF-C470-4D68-A10D-6356F2BE0292";
paths = (
{
closed = 1;
nodes = (
"269 152 CURVE SMOOTH",
"188 152 OFFCURVE",
"136 224 OFFCURVE",
"136 334 CURVE SMOOTH",
"136 450 OFFCURVE",
"184 529 OFFCURVE",
"254 529 CURVE SMOOTH",
"307 529 OFFCURVE",
"342 497 OFFCURVE",
"342 448 CURVE SMOOTH",
"342 397 OFFCURVE",
"319 380 OFFCURVE",
"319 371 CURVE SMOOTH",
"319 365 OFFCURVE",
"324 362 OFFCURVE",
"336 362 CURVE SMOOTH",
"390 362 OFFCURVE",
"428 399 OFFCURVE",
"428 453 CURVE SMOOTH",
"428 521 OFFCURVE",
"366 573 OFFCURVE",
"279 577 CURVE",
"279 744 LINE",
"260 744 OFFCURVE",
"234 738 OFFCURVE",
"221 721 CURVE",
"221 573 LINE",
"109 553 OFFCURVE",
"40 462 OFFCURVE",
"40 332 CURVE SMOOTH",
"40 202 OFFCURVE",
"112 109 OFFCURVE",
"221 93 CURVE",
"221 -78 LINE",
"240 -78 OFFCURVE",
"267 -72 OFFCURVE",
"279 -54 CURVE",
"279 93 LINE",
"332 99 OFFCURVE",
"381 124 OFFCURVE",
"419 168 CURVE",
"421 170 OFFCURVE",
"421 173 OFFCURVE",
"421 177 CURVE SMOOTH",
"421 189 OFFCURVE",
"410 202 OFFCURVE",
"399 202 CURVE SMOOTH",
"395 202 OFFCURVE",
"391 200 OFFCURVE",
"390 199 CURVE",
"353 168 OFFCURVE",
"314 152 OFFCURVE"
);
}
);
width = 498;
}
);
unicode = 00A2;
userData = {
org.fontforge.glyphclass = baseglyph;
};
},
{
glyphname = chadeva;
lastChange = "2016-09-19 15:51:21 +0000";
layers = (
{
anchors = (
{
name = DVAnchor0;
position = "{308, 61}";
},
{
name = DVAnchor3;
position = "{523, 664}";
},
{
name = "Lohit-Devanagari-DVAnchor0";
position = "{308, 61}";
},
{
name = "Lohit-Devanagari-DVAnchor3";
position = "{523, 664}";
}
);
layerId = "25D154CF-C470-4D68-A10D-6356F2BE0292";
paths = (
{
closed = 1;
nodes = (
"375 355 CURVE SMOOTH",
"375 268 OFFCURVE",
"429 248 OFFCURVE",
"461 248 CURVE SMOOTH",
"469 248 OFFCURVE",
"478 250 OFFCURVE",
"478 258 CURVE SMOOTH",
"478 270 OFFCURVE",
"452 290 OFFCURVE",
"452 358 CURVE SMOOTH",
"452 422 OFFCURVE",
"489 445 OFFCURVE",
"518 445 CURVE SMOOTH",
"562 445 OFFCURVE",
"591 400 OFFCURVE",
"591 337 CURVE SMOOTH",
"591 189 OFFCURVE",
"481 87 OFFCURVE",
"308 87 CURVE SMOOTH",
"206 87 OFFCURVE",
"161 156 OFFCURVE",
"161 226 CURVE SMOOTH",
"161 297 OFFCURVE",
"207 368 OFFCURVE",
"303 368 CURVE SMOOTH",
"313 368 OFFCURVE",
"319 380 OFFCURVE",
"319 393 CURVE SMOOTH",
"319 403 OFFCURVE",
"316 410 OFFCURVE",
"309 410 CURVE SMOOTH",
"135 410 OFFCURVE",
"75 310 OFFCURVE",
"75 229 CURVE SMOOTH",
"75 112 OFFCURVE",
"159 34 OFFCURVE",
"308 34 CURVE SMOOTH",
"484 34 OFFCURVE",
"670 154 OFFCURVE",
"670 350 CURVE SMOOTH",
"670 393 OFFCURVE",
"649 492 OFFCURVE",
"517 492 CURVE SMOOTH",
"444 492 OFFCURVE",
"375 443 OFFCURVE"
);
},
{
closed = 1;
nodes = (
"-13 621 LINE",
"723 621 LINE",
"723 666 LINE",
"-13 666 LINE"
);
},
{
closed = 1;
nodes = (
"253 404 LINE",
"189 411 OFFCURVE",
"125 439 OFFCURVE",
"125 527 CURVE SMOOTH",
"125 583 OFFCURVE",
"158 625 OFFCURVE",
"199 625 CURVE",
"197 648 LINE",
"109 648 OFFCURVE",
"46 588 OFFCURVE",
"46 517 CURVE SMOOTH",
"46 445 OFFCURVE",
"95 394 OFFCURVE",
"187 366 CURVE"
);
},
{
closed = 1;
nodes = (
"480 453 LINE",
"566 453 LINE",
"566 621 LINE",
"480 621 LINE"
);
}
);
width = 709;
}
);
unicode = 091B;
userData = {
org.fontforge.glyphclass = baseglyph;
};
},
{
glyphname = chadeva_viramadeva;
lastChange = "2016-09-19 15:51:21 +0000";
layers = (
{
layerId = "25D154CF-C470-4D68-A10D-6356F2BE0292";
paths = (
{
closed = 1;
nodes = (
"591 337 CURVE SMOOTH",
"591 189 OFFCURVE",
"481 87 OFFCURVE",
"308 87 CURVE SMOOTH",
"206 87 OFFCURVE",
"161 156 OFFCURVE",
"161 226 CURVE SMOOTH",
"161 297 OFFCURVE",
"207 368 OFFCURVE",
"303 368 CURVE SMOOTH",
"313 368 OFFCURVE",
"319 380 OFFCURVE",
"319 393 CURVE SMOOTH",
"319 403 OFFCURVE",
"316 410 OFFCURVE",
"309 410 CURVE SMOOTH",
"135 410 OFFCURVE",
"75 310 OFFCURVE",
"75 229 CURVE SMOOTH",
"75 112 OFFCURVE",
"159 34 OFFCURVE",
"308 34 CURVE SMOOTH",
"484 34 OFFCURVE",
"670 154 OFFCURVE",
"670 350 CURVE SMOOTH",
"670 393 OFFCURVE",
"649 492 OFFCURVE",
"517 492 CURVE SMOOTH",
"444 492 OFFCURVE",
"375 443 OFFCURVE",
"375 355 CURVE SMOOTH",
"375 268 OFFCURVE",
"429 248 OFFCURVE",
"461 248 CURVE SMOOTH",
"469 248 OFFCURVE",
"478 250 OFFCURVE",
"478 258 CURVE SMOOTH",
"478 270 OFFCURVE",
"452 290 OFFCURVE",
"452 358 CURVE SMOOTH",
"452 422 OFFCURVE",
"489 445 OFFCURVE",
"518 445 CURVE SMOOTH",
"562 445 OFFCURVE",
"591 400 OFFCURVE"
);
},
{
closed = 1;
nodes = (
"253 404 LINE",
"189 411 OFFCURVE",
"125 439 OFFCURVE",
"125 527 CURVE SMOOTH",
"125 583 OFFCURVE",
"158 625 OFFCURVE",
"199 625 CURVE",
"197 648 LINE",
"109 648 OFFCURVE",
"46 588 OFFCURVE",
"46 517 CURVE SMOOTH",
"46 445 OFFCURVE",
"95 394 OFFCURVE",
"187 366 CURVE"
);
},
{
closed = 1;
nodes = (
"-13 621 LINE",
"723 621 LINE",
"723 666 LINE",
"-13 666 LINE"
);
}
);
width = 709;
}
);
userData = {
org.fontforge.glyphclass = baseglyph;
};
},
{
glyphname = chadeva_viramadeva_vadeva;
lastChange = "2016-09-19 15:51:21 +0000";
layers = (
{
anchors = (
{
name = "Lohit-Devanagari-DVAnchor0";
position = "{529, -147}";
}
);
layerId = "25D154CF-C470-4D68-A10D-6356F2BE0292";
paths = (
{
closed = 1;
nodes = (
"533 518 CURVE SMOOTH",
"586 518 OFFCURVE",
"615 466 OFFCURVE",
"615 409 CURVE SMOOTH",
"615 270 OFFCURVE",
"499 184 OFFCURVE",
"317 184 CURVE SMOOTH",
"232 184 OFFCURVE",
"195 221 OFFCURVE",
"195 258 CURVE SMOOTH",
"195 292 OFFCURVE",
"233 325 OFFCURVE",
"312 325 CURVE SMOOTH",
"321 325 OFFCURVE",
"327 337 OFFCURVE",
"327 350 CURVE SMOOTH",
"327 360 OFFCURVE",
"325 367 OFFCURVE",
"318 367 CURVE SMOOTH",
"283 367 OFFCURVE",
"248 363 OFFCURVE",
"216 355 CURVE",
"170 360 OFFCURVE",
"125 379 OFFCURVE",
"125 440 CURVE SMOOTH",
"125 480 OFFCURVE",
"154 511 OFFCURVE",
"188 511 CURVE SMOOTH",
"225 511 OFFCURVE",
"244 489 OFFCURVE",
"244 461 CURVE SMOOTH",
"244 427 OFFCURVE",
"236 421 OFFCURVE",
"236 414 CURVE SMOOTH",
"236 408 OFFCURVE",
"241 407 OFFCURVE",
"249 407 CURVE SMOOTH",
"286 407 OFFCURVE",
"316 432 OFFCURVE",
"316 476 CURVE SMOOTH",
"316 520 OFFCURVE",
"274 552 OFFCURVE",
"198 552 CURVE SMOOTH",
"109 552 OFFCURVE",
"46 501 OFFCURVE",
"46 440 CURVE SMOOTH",
"46 386 OFFCURVE",
"83 348 OFFCURVE",
"155 327 CURVE",
"123 307 OFFCURVE",
"109 281 OFFCURVE",
"109 254 CURVE SMOOTH",
"109 182 OFFCURVE",
"183 137 OFFCURVE",
"317 137 CURVE SMOOTH",
"482 137 OFFCURVE",
"699 211 OFFCURVE",
"699 405 CURVE SMOOTH",
"699 450 OFFCURVE",
"680 552 OFFCURVE",
"531 552 CURVE SMOOTH",
"458 552 OFFCURVE",
"380 516 OFFCURVE",
"380 428 CURVE SMOOTH",
"380 356 OFFCURVE",
"443 328 OFFCURVE",
"475 328 CURVE SMOOTH",
"483 328 OFFCURVE",
"492 330 OFFCURVE",
"492 338 CURVE SMOOTH",
"492 350 OFFCURVE",
"457 363 OFFCURVE",
"457 431 CURVE SMOOTH",
"457 495 OFFCURVE",
"494 518 OFFCURVE"
);
},
{
closed = 1;
nodes = (
"-13 621 LINE",
"486 621 LINE",
"486 535 LINE",
"572 535 LINE",
"572 621 LINE",
"766 621 LINE",
"766 666 LINE",
"-13 666 LINE"
);
},
{
closed = 1;
nodes = (
"531 -10 CURVE SMOOTH",
"513 -10 OFFCURVE",
"459 -118 OFFCURVE",
"338 -118 CURVE SMOOTH",
"294 -118 OFFCURVE",
"250 -89 OFFCURVE",
"250 -30 CURVE SMOOTH",
"250 24 OFFCURVE",
"278 47 OFFCURVE",
"311 47 CURVE SMOOTH",
"353 47 OFFCURVE",
"373 24 OFFCURVE",
"373 -8 CURVE SMOOTH",
"373 -42 OFFCURVE",
"365 -48 OFFCURVE",
"365 -55 CURVE SMOOTH",
"365 -61 OFFCURVE",
"370 -63 OFFCURVE",
"378 -63 CURVE SMOOTH",
"414 -63 OFFCURVE",
"444 -36 OFFCURVE",
"444 7 CURVE SMOOTH",
"444 54 OFFCURVE",
"404 94 OFFCURVE",
"312 94 CURVE SMOOTH",
"216 94 OFFCURVE",
"164 38 OFFCURVE",
"164 -30 CURVE SMOOTH",
"164 -113 OFFCURVE",
"238 -167 OFFCURVE",
"330 -167 CURVE SMOOTH",
"454 -167 OFFCURVE",
"558 -50 OFFCURVE",
"558 -32 CURVE SMOOTH",
"558 -23 OFFCURVE",
"544 -10 OFFCURVE"
);
},
{
closed = 1;
nodes = (
"491 -167 LINE",
"567 -167 LINE",
"567 202 LINE",
"491 202 LINE"
);
}
);
width = 753;
}
);
userData = {
org.fontforge.glyphclass = baseglyph;
};
},
{
glyphname = colon;
lastChange = "2016-09-19 15:51:21 +0000";
layers = (
{
layerId = "25D154CF-C470-4D68-A10D-6356F2BE0292";
paths = (
{
closed = 1;
nodes = (
"31 47 CURVE SMOOTH",
"31 24 OFFCURVE",
"65 -13 OFFCURVE",
"87 -13 CURVE SMOOTH",
"109 -13 OFFCURVE",
"146 24 OFFCURVE",
"146 47 CURVE SMOOTH",
"146 73 OFFCURVE",
"109 109 OFFCURVE",
"87 109 CURVE SMOOTH",
"65 109 OFFCURVE",
"31 73 OFFCURVE"
);
},
{
closed = 1;
nodes = (
"31 381 CURVE SMOOTH",
"31 358 OFFCURVE",
"65 321 OFFCURVE",
"87 321 CURVE SMOOTH",
"109 321 OFFCURVE",
"146 358 OFFCURVE",
"146 381 CURVE SMOOTH",
"146 407 OFFCURVE",
"109 443 OFFCURVE",
"87 443 CURVE SMOOTH",
"65 443 OFFCURVE",
"31 407 OFFCURVE"
);
}
);
width = 196;
}
);
unicode = 003A;
userData = {
org.fontforge.glyphclass = baseglyph;
};
},
{
glyphname = comma;
lastChange = "2016-09-19 15:51:21 +0000";
layers = (
{
layerId = "25D154CF-C470-4D68-A10D-6356F2BE0292";
paths = (
{
closed = 1;
nodes = (
"17 93 LINE",
"21 71 LINE",
"39 59 LINE SMOOTH",
"53 49 OFFCURVE",
"60 40 OFFCURVE",
"60 26 CURVE SMOOTH",
"60 15 OFFCURVE",
"56 2 OFFCURVE",
"49 -13 CURVE SMOOTH",
"6 -97 LINE",
"34 -115 LINE",
"70 -76 LINE SMOOTH",
"113 -29 OFFCURVE",
"146 10 OFFCURVE",
"146 48 CURVE SMOOTH",
"146 94 OFFCURVE",
"119 110 OFFCURVE",
"85 110 CURVE SMOOTH",
"69 110 OFFCURVE",
"50 105 OFFCURVE",
"34 99 CURVE SMOOTH"
);
}
);
width = 196;
}
);
unicode = 002C;
userData = {
org.fontforge.glyphclass = baseglyph;
};
},
{
glyphname = da_ddha_ra_yadeva;
lastChange = "2016-09-19 15:51:21 +0000";
layers = (
{
anchors = (
{
name = "Lohit-Devanagari-DVAnchor0";
position = "{1151, 23}";
}
);
layerId = "25D154CF-C470-4D68-A10D-6356F2BE0292";
paths = (
{
closed = 1;
nodes = (
"1108 0 LINE",
"1194 0 LINE",
"1194 636 LINE",
"1108 636 LINE"
);
},
{
closed = 1;
nodes = (
"601 472 LINE",
"601 636 LINE",
"1305 636 LINE",
"1305 666 LINE",
"-13 666 LINE",
"-13 621 LINE",
"514 621 LINE",
"514 472 LINE"
);
},
{
closed = 1;
nodes = (
"632 68 LINE",
"587 5 OFFCURVE",
"526 -30 OFFCURVE",
"455 -30 CURVE SMOOTH",
"379 -30 OFFCURVE",
"344 14 OFFCURVE",
"344 60 CURVE SMOOTH",
"344 95 OFFCURVE",
"367 130 OFFCURVE",
"413 142 CURVE",
"374 182 LINE",
"316 165 OFFCURVE",
"258 127 OFFCURVE",
"258 51 CURVE SMOOTH",
"258 -30 OFFCURVE",
"330 -83 OFFCURVE",
"440 -83 CURVE SMOOTH",
"515 -83 OFFCURVE",
"594 -49 OFFCURVE",
"657 26 CURVE"
);
},
{
closed = 1;
nodes = (
"309 79 LINE",
"277 72 OFFCURVE",
"250 69 OFFCURVE",
"227 69 CURVE SMOOTH",
"129 69 OFFCURVE",
"109 124 OFFCURVE",
"109 174 CURVE SMOOTH",
"109 214 OFFCURVE",
"133 237 OFFCURVE",
"161 237 CURVE SMOOTH",
"188 237 OFFCURVE",
"202 216 OFFCURVE",
"202 188 CURVE SMOOTH",
"202 152 OFFCURVE",
"192 147 OFFCURVE",
"192 139 CURVE SMOOTH",
"192 133 OFFCURVE",
"196 132 OFFCURVE",
"205 132 CURVE SMOOTH",
"242 132 OFFCURVE",
"271 157 OFFCURVE",
"271 201 CURVE SMOOTH",
"271 246 OFFCURVE",
"235 279 OFFCURVE",
"165 279 CURVE SMOOTH",
"86 279 OFFCURVE",
"30 229 OFFCURVE",
"30 167 CURVE SMOOTH",
"30 123 OFFCURVE",
"52 24 OFFCURVE",
"205 24 CURVE SMOOTH",
"234 24 OFFCURVE",
"269 28 OFFCURVE",
"310 37 CURVE"
);
},
{
closed = 1;
nodes = (
"570 157 CURVE",
"550 152 OFFCURVE",
"528 150 OFFCURVE",
"503 150 CURVE SMOOTH",
"417 150 OFFCURVE",
"377 206 OFFCURVE",
"377 279 CURVE SMOOTH",
"377 450 OFFCURVE",
"572 460 OFFCURVE",
"665 460 CURVE SMOOTH",
"806 460 OFFCURVE",
"867 423 OFFCURVE",
"867 371 CURVE SMOOTH",
"867 326 OFFCURVE",
"824 290 OFFCURVE",
"754 274 CURVE",
"754 149 OFFCURVE",
"851 71 OFFCURVE",
"968 71 CURVE SMOOTH",
"1108 71 OFFCURVE",
"1173 153 OFFCURVE",
"1173 155 CURVE SMOOTH",
"1173 167 OFFCURVE",
"1161 182 OFFCURVE",
"1151 182 CURVE SMOOTH",
"1141 182 OFFCURVE",
"1082 119 OFFCURVE",
"978 119 CURVE SMOOTH",
"908 119 OFFCURVE",
"848 158 OFFCURVE",
"839 252 CURVE",
"909 272 OFFCURVE",
"952 321 OFFCURVE",
"952 377 CURVE SMOOTH",
"952 455 OFFCURVE",
"870 511 OFFCURVE",
"665 511 CURVE SMOOTH",
"512 511 OFFCURVE",
"296 479 OFFCURVE",
"296 281 CURVE SMOOTH",
"296 157 OFFCURVE",
"395 95 OFFCURVE",
"495 95 CURVE SMOOTH",
"525 95 OFFCURVE",
"552 99 OFFCURVE",
"577 107 CURVE",
"602 -12 OFFCURVE",
"694 -121 OFFCURVE",
"729 -121 CURVE SMOOTH",
"748 -121 OFFCURVE",
"753 -100 OFFCURVE",
"753 -95 CURVE SMOOTH",
"753 -89 OFFCURVE",
"752 -86 OFFCURVE",
"741 -76 CURVE SMOOTH",
"684 -27 OFFCURVE",
"643 41 OFFCURVE",
"625 126 CURVE",
"667 150 OFFCURVE",
"712 177 OFFCURVE",
"712 227 CURVE SMOOTH",
"712 258 OFFCURVE",
"692 290 OFFCURVE",
"649 290 CURVE SMOOTH",
"600 290 OFFCURVE",
"570 255 OFFCURVE"
);
},
{
closed = 1;
nodes = (
"526 -124 LINE SMOOTH",
"516 -130 OFFCURVE",
"513 -134 OFFCURVE",
"513 -143 CURVE SMOOTH",
"513 -170 OFFCURVE",
"540 -198 OFFCURVE",
"555 -198 CURVE SMOOTH",
"562 -198 OFFCURVE",
"567 -197 OFFCURVE",
"580 -186 CURVE SMOOTH",
"694 -86 LINE SMOOTH",
"708 -74 OFFCURVE",
"711 -68 OFFCURVE",
"711 -61 CURVE SMOOTH",
"711 -51 OFFCURVE",
"701 -36 OFFCURVE",
"687 -36 CURVE SMOOTH",
"682 -36 OFFCURVE",
"678 -37 OFFCURVE",
"667 -43 CURVE SMOOTH"
);
}
);
width = 1292;
}
);
userData = {
org.fontforge.glyphclass = baseligature;
};
},
{
glyphname = dadeva;
lastChange = "2016-09-19 15:51:21 +0000";
layers = (
{
anchors = (
{
name = "Lohit-Devanagari-DVAnchor0";
position = "{487, -86}";
},
{
name = "Lohit-Devanagari-DVAnchor3";
position = "{425, 664}";
}
);
layerId = "25D154CF-C470-4D68-A10D-6356F2BE0292";
paths = (
{
closed = 1;
nodes = (
"335 173 CURVE SMOOTH",
"335 130 OFFCURVE",
"369 95 OFFCURVE",
"413 95 CURVE SMOOTH",
"456 95 OFFCURVE",
"491 130 OFFCURVE",
"491 173 CURVE SMOOTH",
"491 217 OFFCURVE",
"456 252 OFFCURVE",
"413 252 CURVE SMOOTH",
"369 252 OFFCURVE",
"335 217 OFFCURVE"
);
},
{
closed = 1;
nodes = (
"433 152 LINE",
"395 127 OFFCURVE",
"348 113 OFFCURVE",
"290 113 CURVE SMOOTH",
"194 113 OFFCURVE",
"129 171.557 OFFCURVE",
"129 256 CURVE SMOOTH",
"129 328 OFFCURVE",
"158 440 OFFCURVE",
"466 445 CURVE",
"466 621 LINE",
"563 621 LINE",
"563 666 LINE",
"-13 666 LINE",
"-13 621 LINE",
"380 621 LINE",
"380 491 LINE",
"170 481 OFFCURVE",
"43 381 OFFCURVE",
"43 257 CURVE SMOOTH",
"43 122.729 OFFCURVE",
"167 63 OFFCURVE",
"290 63 CURVE SMOOTH",
"360 63 OFFCURVE",
"491 85 OFFCURVE",
"491 173 CURVE"
);
},
{
closed = 1;
nodes = (
"335 173 LINE",
"335 44 OFFCURVE",
"430 -63 OFFCURVE",
"476 -95 CURVE SMOOTH",
"488.53 -103.717 OFFCURVE",
"494 -104 OFFCURVE",
"499 -104 CURVE SMOOTH",
"511 -104 OFFCURVE",
"523 -87 OFFCURVE",
"523 -76 CURVE SMOOTH",
"523 -69 OFFCURVE",
"522.034 -64.144 OFFCURVE",
"510 -53 CURVE SMOOTH",
"456 -3 OFFCURVE",
"400 96 OFFCURVE",
"400 173 CURVE"
);
}
);
width = 550;
}
);
unicode = 0926;
userData = {
org.fontforge.glyphclass = baseglyph;
};
},
{
glyphname = dadeva_rvocalicsigndeva;
lastChange = "2016-09-19 15:51:21 +0000";
layers = (
{
components = (
{
name = dadeva;
}
);
layerId = "25D154CF-C470-4D68-A10D-6356F2BE0292";
paths = (
{
closed = 1;
nodes = (
"499 -104 LINE SMOOTH",
"506 -104 OFFCURVE",
"507 -93 OFFCURVE",
"507 -83 CURVE SMOOTH",
"507 -65 OFFCURVE",
"505 -55 OFFCURVE",
"492 -55 CURVE SMOOTH",
"410 -55 LINE SMOOTH",
"334 -55 OFFCURVE",
"234 -104 OFFCURVE",
"234 -209 CURVE SMOOTH",
"234 -305 OFFCURVE",
"310 -358 OFFCURVE",
"401 -358 CURVE SMOOTH",
"444 -358 OFFCURVE",
"488 -344 OFFCURVE",
"532 -321 CURVE",
"538 -317 OFFCURVE",
"540 -313 OFFCURVE",
"540 -308 CURVE SMOOTH",
"540 -295 OFFCURVE",
"528 -271 OFFCURVE",
"520 -271 CURVE SMOOTH",
"514 -271 OFFCURVE",
"479 -306 OFFCURVE",
"410 -306 CURVE SMOOTH",
"361 -306 OFFCURVE",
"312 -276 OFFCURVE",
"312 -202 CURVE SMOOTH",
"312 -133 OFFCURVE",
"359 -104 OFFCURVE",
"417 -104 CURVE SMOOTH"
);
}
);
width = 550;
}
);
userData = {
org.fontforge.glyphclass = baseglyph;
};
},
{
glyphname = dadeva_viramadeva_badeva;
lastChange = "2016-09-19 15:51:21 +0000";
layers = (
{
anchors = (
{
name = "Lohit-Devanagari-DVAnchor0";
position = "{611.5, -86}";
}
);
layerId = "25D154CF-C470-4D68-A10D-6356F2BE0292";
paths = (
{
closed = 1;
nodes = (
"459 173 CURVE SMOOTH",
"459 130 OFFCURVE",
"493 95 OFFCURVE",
"537 95 CURVE SMOOTH",
"580 95 OFFCURVE",
"615 130 OFFCURVE",
"615 173 CURVE SMOOTH",
"615 217 OFFCURVE",
"580 252 OFFCURVE",
"537 252 CURVE SMOOTH",
"493 252 OFFCURVE",
"459 217 OFFCURVE"
);
},
{
closed = 1;
nodes = (
"557 152 LINE",
"519 127 OFFCURVE",
"472 113 OFFCURVE",
"414 113 CURVE SMOOTH",
"318 113 OFFCURVE",
"253 171.557 OFFCURVE",
"253 256 CURVE SMOOTH",
"253 328 OFFCURVE",
"282 440 OFFCURVE",
"590 445 CURVE",
"590 621 LINE",
"689 621 LINE",
"689 666 LINE",
"-13 666 LINE",
"-13 621 LINE",
"504 621 LINE",
"504 491 LINE",
"294 481 OFFCURVE",
"167 381 OFFCURVE",
"167 257 CURVE SMOOTH",
"167 122.729 OFFCURVE",
"291 63 OFFCURVE",
"414 63 CURVE SMOOTH",
"484 63 OFFCURVE",
"615 85 OFFCURVE",
"615 173 CURVE"
);
},
{
closed = 1;
nodes = (
"459 173 LINE",
"459 44 OFFCURVE",
"554 -63 OFFCURVE",
"600 -95 CURVE SMOOTH",
"612.53 -103.717 OFFCURVE",
"618 -104 OFFCURVE",
"623 -104 CURVE SMOOTH",
"635 -104 OFFCURVE",
"647 -87 OFFCURVE",
"647 -76 CURVE SMOOTH",
"647 -69 OFFCURVE",
"646.034 -64.144 OFFCURVE",
"634 -53 CURVE SMOOTH",
"580 -3 OFFCURVE",
"524 96 OFFCURVE",
"524 173 CURVE"
);
},
{
closed = 1;
nodes = (
"246 -134 CURVE SMOOTH",
"351 -134 OFFCURVE",
"468 -66 OFFCURVE",
"497 103 CURVE",
"444 103 LINE",
"424 -12 OFFCURVE",
"355 -81 OFFCURVE",
"260 -81 CURVE SMOOTH",
"169 -81 OFFCURVE",
"128 -24 OFFCURVE",
"128 33 CURVE SMOOTH",
"128 90 OFFCURVE",
"168 148 OFFCURVE",
"239 148 CURVE SMOOTH",
"246 148 OFFCURVE",
"254 160 OFFCURVE",
"254 174 CURVE SMOOTH",
"254 190 OFFCURVE",
"251 195 OFFCURVE",
"245 195 CURVE SMOOTH",
"111 195 OFFCURVE",
"41 110 OFFCURVE",
"41 27 CURVE SMOOTH",
"41 -54 OFFCURVE",
"108 -134 OFFCURVE"
);
},
{
closed = 1;
nodes = (
"120 107 LINE",
"353 -98 LINE",
"385 -58 LINE",
"154 146 LINE"
);
}
);
width = 676;
}
);
userData = {
org.fontforge.glyphclass = baseglyph;
};
},
{
glyphname = dadeva_viramadeva_bhadeva;
lastChange = "2016-09-19 15:51:21 +0000";
layers = (
{
anchors = (
{
name = "Lohit-Devanagari-DVAnchor0";
position = "{784, -86}";
}
);
layerId = "25D154CF-C470-4D68-A10D-6356F2BE0292";
paths = (
{
closed = 1;
nodes = (
"632 173 CURVE SMOOTH",
"632 130 OFFCURVE",
"666 95 OFFCURVE",
"710 95 CURVE SMOOTH",
"753 95 OFFCURVE",
"788 130 OFFCURVE",
"788 173 CURVE SMOOTH",
"788 217 OFFCURVE",
"753 252 OFFCURVE",
"710 252 CURVE SMOOTH",
"666 252 OFFCURVE",
"632 217 OFFCURVE"
);
},
{
closed = 1;
nodes = (
"730 152 LINE",
"692 127 OFFCURVE",
"645 113 OFFCURVE",
"587 113 CURVE SMOOTH",
"491 113 OFFCURVE",
"426 181.557 OFFCURVE",
"426 266 CURVE SMOOTH",
"426 358 OFFCURVE",
"455 440 OFFCURVE",
"692 445 CURVE",
"692 621 LINE",
"862 621 LINE",
"862 666 LINE",
"-13 666 LINE",
"-13 621 LINE",
"606 621 LINE",
"606 491 LINE",
"467 481 OFFCURVE",
"340 431 OFFCURVE",
"340 267 CURVE SMOOTH",
"340 132.729 OFFCURVE",
"464 63 OFFCURVE",
"587 63 CURVE SMOOTH",
"657 63 OFFCURVE",
"788 85 OFFCURVE",
"788 173 CURVE"
);
},
{
closed = 1;
nodes = (
"632 173 LINE",
"632 44 OFFCURVE",
"727 -63 OFFCURVE",
"773 -95 CURVE SMOOTH",
"785.53 -103.717 OFFCURVE",
"791 -104 OFFCURVE",
"796 -104 CURVE SMOOTH",
"808 -104 OFFCURVE",
"820 -87 OFFCURVE",
"820 -76 CURVE SMOOTH",
"820 -69 OFFCURVE",
"819.034 -64.144 OFFCURVE",
"807 -53 CURVE SMOOTH",
"753 -3 OFFCURVE",
"697 96 OFFCURVE",
"697 173 CURVE"
);
},
{
closed = 1;
nodes = (
"353 -63 LINE",
"665 69 LINE",
"644 118 LINE",
"332 -15 LINE"
);
},
{
closed = 1;
nodes = (
"322 116 LINE SMOOTH",
"296 178 OFFCURVE",
"256 230 OFFCURVE",
"173 230 CURVE SMOOTH",
"75 230 OFFCURVE",
"29 172 OFFCURVE",
"29 114 CURVE SMOOTH",
"29 56 OFFCURVE",
"74 0 OFFCURVE",
"156 0 CURVE SMOOTH",
"181 0 OFFCURVE",
"231 8 OFFCURVE",
"231 26 CURVE SMOOTH",
"231 32 OFFCURVE",
"221 62 OFFCURVE",
"212 62 CURVE SMOOTH",
"211 62 OFFCURVE",
"210 61 OFFCURVE",
"210 61 CURVE",
"196 55 OFFCURVE",
"182 52 OFFCURVE",
"169 52 CURVE SMOOTH",
"123 52 OFFCURVE",
"99 85 OFFCURVE",
"99 118 CURVE SMOOTH",
"99 148 OFFCURVE",
"121 178 OFFCURVE",
"165 178 CURVE SMOOTH",
"202 178 OFFCURVE",
"224 156 OFFCURVE",
"241 113 CURVE SMOOTH",
"314 -64 LINE",
"384 -33 LINE"
);
},
{
closed = 1;
nodes = (
"295 -120 CURVE SMOOTH",
"348 -120 OFFCURVE",
"381 -84 OFFCURVE",
"381 -41 CURVE SMOOTH",
"381 11 OFFCURVE",
"336 40 OFFCURVE",
"312 40 CURVE SMOOTH",
"307 40 OFFCURVE",
"303 39 OFFCURVE",
"298 37 CURVE",
"306 19 OFFCURVE",
"315 7 OFFCURVE",
"315 -2 CURVE SMOOTH",
"315 -17 OFFCURVE",
"303 -28 OFFCURVE",
"282 -28 CURVE SMOOTH",
"270 -28 OFFCURVE",
"250 -24 OFFCURVE",
"243 -24 CURVE SMOOTH",
"227 -24 OFFCURVE",
"218 -36 OFFCURVE",
"218 -53 CURVE SMOOTH",
"218 -95 OFFCURVE",
"259 -120 OFFCURVE"
);
}
);
width = 849;
}
);
userData = {
org.fontforge.glyphclass = baseglyph;
};
},
{
glyphname = dadeva_viramadeva_dadeva;
lastChange = "2016-09-19 15:51:21 +0000";
layers = (
{
anchors = (
{
name = "Lohit-Devanagari-DVAnchor0";
position = "{448, -29}";
}
);
layerId = "25D154CF-C470-4D68-A10D-6356F2BE0292";
paths = (
{
closed = 1;
nodes = (
"199 310 LINE",
"155 323 OFFCURVE",
"127 354 OFFCURVE",
"127 392 CURVE SMOOTH",
"127 444 OFFCURVE",
"166 468 OFFCURVE",
"232 468 CURVE SMOOTH",
"423 468 LINE",
"423 621 LINE",
"593 621 LINE",
"593 666 LINE",
"-13 666 LINE",
"-13 621 LINE",
"337 621 LINE",
"337 519 LINE",
"216 519 LINE SMOOTH",
"100 519 OFFCURVE",
"44 475 OFFCURVE",
"44 398 CURVE SMOOTH",
"44 339 OFFCURVE",
"96 289 OFFCURVE",
"183 268 CURVE"
);
},
{
closed = 1;
nodes = (
"350 361 CURVE SMOOTH",
"214 361 OFFCURVE",
"83 305 OFFCURVE",
"83 209 CURVE SMOOTH",
"83 103 OFFCURVE",
"204 50 OFFCURVE",
"325 50 CURVE SMOOTH",
"389 50 OFFCURVE",
"511 70 OFFCURVE",
"511 155 CURVE",
"453 141 LINE",
"419 120 OFFCURVE",
"376 108 OFFCURVE",
"325 108 CURVE SMOOTH",
"232 108 OFFCURVE",
"169 148 OFFCURVE",
"169 209 CURVE SMOOTH",
"169 260 OFFCURVE",
"205 318 OFFCURVE",
"344 318 CURVE SMOOTH",
"354 318 OFFCURVE",
"360 331 OFFCURVE",
"360 344 CURVE SMOOTH",
"360 353 OFFCURVE",
"357 361 OFFCURVE"
);
},
{
closed = 1;
nodes = (
"365 114 CURVE SMOOTH",
"365 28 OFFCURVE",
"453 -64 OFFCURVE",
"477 -64 CURVE SMOOTH",
"486 -64 OFFCURVE",
"492 -47 OFFCURVE",
"492 -38 CURVE SMOOTH",
"492 -30 OFFCURVE",
"493 -26 OFFCURVE",
"480 -15 CURVE SMOOTH",
"446 15 OFFCURVE",
"406 93 OFFCURVE",
"406 143 CURVE",
"354 106 OFFCURVE",
"384 77 OFFCURVE",
"422 77 CURVE SMOOTH",
"471 77 OFFCURVE",
"511 111 OFFCURVE",
"511 155 CURVE SMOOTH",
"511 191 OFFCURVE",
"480 221 OFFCURVE",
"443 221 CURVE SMOOTH",
"400 221 OFFCURVE",
"365 190 OFFCURVE"
);
}
);
width = 557;
}
);
userData = {
org.fontforge.glyphclass = baseglyph;
};
},
{
glyphname = dadeva_viramadeva_dhadeva;
lastChange = "2016-09-19 15:51:21 +0000";
layers = (
{
anchors = (
{
name = "Lohit-Devanagari-DVAnchor0";
position = "{784, -86}";
}
);
layerId = "25D154CF-C470-4D68-A10D-6356F2BE0292";
paths = (
{
closed = 1;
nodes = (
"632 173 CURVE SMOOTH",
"632 130 OFFCURVE",
"666 95 OFFCURVE",
"710 95 CURVE SMOOTH",
"753 95 OFFCURVE",
"788 130 OFFCURVE",
"788 173 CURVE SMOOTH",
"788 217 OFFCURVE",
"753 252 OFFCURVE",
"710 252 CURVE SMOOTH",
"666 252 OFFCURVE",
"632 217 OFFCURVE"
);
},
{
closed = 1;
nodes = (
"730 152 LINE",
"692 127 OFFCURVE",
"645 113 OFFCURVE",
"587 113 CURVE SMOOTH",
"491 113 OFFCURVE",
"426 171.557 OFFCURVE",
"426 256 CURVE SMOOTH",
"426 328 OFFCURVE",
"455 440 OFFCURVE",
"763 445 CURVE",
"763 621 LINE",
"860 621 LINE",
"860 666 LINE",
"-13 666 LINE",
"-13 621 LINE",
"677 621 LINE",
"677 491 LINE",
"467 481 OFFCURVE",
"340 381 OFFCURVE",
"340 257 CURVE SMOOTH",
"340 122.729 OFFCURVE",
"464 63 OFFCURVE",
"587 63 CURVE SMOOTH",
"657 63 OFFCURVE",
"788 85 OFFCURVE",
"788 173 CURVE"
);
},
{
closed = 1;
nodes = (
"632 173 LINE",
"632 44 OFFCURVE",
"727 -63 OFFCURVE",
"773 -95 CURVE SMOOTH",
"785.53 -103.717 OFFCURVE",
"791 -104 OFFCURVE",
"796 -104 CURVE SMOOTH",
"808 -104 OFFCURVE",
"820 -87 OFFCURVE",
"820 -76 CURVE SMOOTH",
"820 -69 OFFCURVE",
"819.034 -64.144 OFFCURVE",
"807 -53 CURVE SMOOTH",
"753 -3 OFFCURVE",
"697 96 OFFCURVE",
"697 173 CURVE"
);
},
{
closed = 1;
nodes = (
"295 91 CURVE",
"198 99 OFFCURVE",
"122 134 OFFCURVE",
"122 213 CURVE SMOOTH",
"122 267 OFFCURVE",
"151 298 OFFCURVE",
"186 298 CURVE SMOOTH",
"224 298 OFFCURVE",
"243 267 OFFCURVE",
"243 228 CURVE SMOOTH",
"243 192 OFFCURVE",
"233 187 OFFCURVE",
"233 179 CURVE SMOOTH",
"233 174 OFFCURVE",
"237 172 OFFCURVE",
"246 172 CURVE SMOOTH",
"283 172 OFFCURVE",
"312 197 OFFCURVE",
"312 241 CURVE SMOOTH",
"312 298 OFFCURVE",
"271 340 OFFCURVE",
"194 340 CURVE SMOOTH",
"106 340 OFFCURVE",
"43 280 OFFCURVE",
"43 206 CURVE SMOOTH",
"43 137 OFFCURVE",
"101 66 OFFCURVE",
"233 60 CURVE",
"189 33 OFFCURVE",
"170 -4 OFFCURVE",
"170 -41 CURVE SMOOTH",
"170 -122 OFFCURVE",
"245 -175 OFFCURVE",
"363 -175 CURVE SMOOTH",
"491 -175 OFFCURVE",
"661 -76 OFFCURVE",
"696 122 CURVE",
"643 122 LINE",
"617 -19 OFFCURVE",
"502 -122 OFFCURVE",
"378 -122 CURVE SMOOTH",
"294 -122 OFFCURVE",
"256 -77 OFFCURVE",
"256 -32 CURVE SMOOTH",
"256 11 OFFCURVE",
"292 54 OFFCURVE",
"358 54 CURVE SMOOTH",
"365 54 OFFCURVE",
"373 66 OFFCURVE",
"373 79 CURVE SMOOTH",
"373 96 OFFCURVE",
"371 101 OFFCURVE",
"364 101 CURVE SMOOTH",
"340 101 OFFCURVE",
"317 97 OFFCURVE"
);
}
);
width = 847;
}
);
userData = {
org.fontforge.glyphclass = baseglyph;
};
},
{
glyphname = dadeva_viramadeva_gadeva;
lastChange = "2016-09-19 15:51:21 +0000";
layers = (
{
anchors = (
{
name = "Lohit-Devanagari-DVAnchor0";
position = "{487, -86}";
}
);
layerId = "25D154CF-C470-4D68-A10D-6356F2BE0292";
paths = (
{
closed = 1;
nodes = (
"335 173 CURVE SMOOTH",
"335 130 OFFCURVE",
"369 95 OFFCURVE",
"413 95 CURVE SMOOTH",
"456 95 OFFCURVE",
"491 130 OFFCURVE",
"491 173 CURVE SMOOTH",
"491 217 OFFCURVE",
"456 252 OFFCURVE",
"413 252 CURVE SMOOTH",
"369 252 OFFCURVE",
"335 217 OFFCURVE"
);
},
{
closed = 1;
nodes = (
"433 152 LINE",
"395 127 OFFCURVE",
"348 113 OFFCURVE",
"290 113 CURVE SMOOTH",
"194 113 OFFCURVE",
"129 171.557 OFFCURVE",
"129 256 CURVE SMOOTH",
"129 328 OFFCURVE",
"158 440 OFFCURVE",
"466 445 CURVE",
"466 621 LINE",
"563 621 LINE",
"563 666 LINE",
"-13 666 LINE",
"-13 621 LINE",
"380 621 LINE",
"380 491 LINE",
"170 481 OFFCURVE",
"43 381 OFFCURVE",
"43 257 CURVE SMOOTH",
"43 122.729 OFFCURVE",
"167 63 OFFCURVE",
"290 63 CURVE SMOOTH",
"360 63 OFFCURVE",
"491 85 OFFCURVE",
"491 173 CURVE"
);
},
{
closed = 1;
nodes = (
"335 173 LINE",
"335 44 OFFCURVE",
"430 -63 OFFCURVE",
"476 -95 CURVE SMOOTH",
"488.53 -103.717 OFFCURVE",
"494 -104 OFFCURVE",
"499 -104 CURVE SMOOTH",
"511 -104 OFFCURVE",
"523 -87 OFFCURVE",
"523 -76 CURVE SMOOTH",
"523 -69 OFFCURVE",
"522.034 -64.144 OFFCURVE",
"510 -53 CURVE SMOOTH",
"456 -3 OFFCURVE",
"400 96 OFFCURVE",
"400 173 CURVE"
);
},
{
closed = 1;
nodes = (
"219 108 LINE",
"142 129 LINE",
"142 -84 LINE",
"219 -84 LINE"
);
},
{
closed = 1;
nodes = (
"84 -84 CURVE SMOOTH",
"84 -125 OFFCURVE",
"114 -151 OFFCURVE",
"151 -151 CURVE SMOOTH",
"188 -151 OFFCURVE",
"219 -125 OFFCURVE",
"219 -84 CURVE SMOOTH",
"219 -47 OFFCURVE",
"178 -19 OFFCURVE",
"142 -19 CURVE",
"142 -63 OFFCURVE",
"132 -73 OFFCURVE",
"121 -73 CURVE SMOOTH",
"111 -73 OFFCURVE",
"101 -66 OFFCURVE",
"94 -66 CURVE SMOOTH",
"88 -66 OFFCURVE",
"84 -70 OFFCURVE"
);
}
);
width = 550;
}
);
userData = {
org.fontforge.glyphclass = baseglyph;
};
},
{
glyphname = dadeva_viramadeva_ghadeva;
lastChange = "2016-09-19 15:51:21 +0000";
layers = (
{
anchors = (
{
name = "Lohit-Devanagari-DVAnchor0";
position = "{692, -86}";
}
);
layerId = "25D154CF-C470-4D68-A10D-6356F2BE0292";
paths = (
{
closed = 1;
nodes = (
"540 173 CURVE SMOOTH",
"540 130 OFFCURVE",
"574 95 OFFCURVE",
"618 95 CURVE SMOOTH",
"661 95 OFFCURVE",
"696 130 OFFCURVE",
"696 173 CURVE SMOOTH",
"696 217 OFFCURVE",
"661 252 OFFCURVE",
"618 252 CURVE SMOOTH",
"574 252 OFFCURVE",
"540 217 OFFCURVE"
);
},
{
closed = 1;
nodes = (
"638 152 LINE",
"600 127 OFFCURVE",
"553 113 OFFCURVE",
"495 113 CURVE SMOOTH",
"399 113 OFFCURVE",
"334 171.557 OFFCURVE",
"334 256 CURVE SMOOTH",
"334 328 OFFCURVE",
"363 440 OFFCURVE",
"671 445 CURVE",
"671 621 LINE",
"781 621 LINE",
"781 666 LINE",
"-13 666 LINE",
"-13 621 LINE",
"585 621 LINE",
"585 491 LINE",
"375 481 OFFCURVE",
"248 381 OFFCURVE",
"248 257 CURVE SMOOTH",
"248 122.729 OFFCURVE",
"372 63 OFFCURVE",
"495 63 CURVE SMOOTH",
"565 63 OFFCURVE",
"696 85 OFFCURVE",
"696 173 CURVE"
);
},
{
closed = 1;
nodes = (
"540 173 LINE",
"540 44 OFFCURVE",
"635 -63 OFFCURVE",
"681 -95 CURVE SMOOTH",
"693.53 -103.717 OFFCURVE",
"699 -104 OFFCURVE",
"704 -104 CURVE SMOOTH",
"716 -104 OFFCURVE",
"728 -87 OFFCURVE",
"728 -76 CURVE SMOOTH",
"728 -69 OFFCURVE",
"727.034 -64.144 OFFCURVE",
"715 -53 CURVE SMOOTH",
"661 -3 OFFCURVE",
"605 96 OFFCURVE",
"605 173 CURVE"
);
},
{
closed = 1;
nodes = (
"309 279 LINE",
"287 292 OFFCURVE",
"264 306 OFFCURVE",
"184 306 CURVE SMOOTH",
"86 306 OFFCURVE",
"22 247 OFFCURVE",
"22 176 CURVE SMOOTH",
"22 121 OFFCURVE",
"59 81 OFFCURVE",
"131 60 CURVE",
"87 33 OFFCURVE",
"68 -4 OFFCURVE",
"68 -41 CURVE SMOOTH",
"68 -122 OFFCURVE",
"143 -175 OFFCURVE",
"261 -175 CURVE SMOOTH",
"419 -175 OFFCURVE",
"570 -62 OFFCURVE",
"606 136 CURVE",
"553 136 LINE",
"527 -5 OFFCURVE",
"430 -122 OFFCURVE",
"276 -122 CURVE SMOOTH",
"192 -122 OFFCURVE",
"154 -77 OFFCURVE",
"154 -32 CURVE SMOOTH",
"154 11 OFFCURVE",
"190 54 OFFCURVE",
"256 54 CURVE SMOOTH",
"263 54 OFFCURVE",
"271 66 OFFCURVE",
"271 79 CURVE SMOOTH",
"271 96 OFFCURVE",
"269 101 OFFCURVE",
"262 101 CURVE SMOOTH",
"238 101 OFFCURVE",
"215 97 OFFCURVE",
"193 92 CURVE",
"147 97 OFFCURVE",
"101 115 OFFCURVE",
"101 171 CURVE SMOOTH",
"101 230 OFFCURVE",
"159 257 OFFCURVE",
"218 257 CURVE SMOOTH",
"263 257 OFFCURVE",
"310 241 OFFCURVE",
"332 211 CURVE"
);
}
);
width = 768;
}
);
userData = {
org.fontforge.glyphclass = baseglyph;
};
},
{
glyphname = dadeva_viramadeva_madeva;
lastChange = "2016-09-19 15:51:21 +0000";
layers = (
{
layerId = "25D154CF-C470-4D68-A10D-6356F2BE0292";
paths = (
{
closed = 1;
nodes = (
"239 95 CURVE SMOOTH",
"239 37 OFFCURVE",
"283 1 OFFCURVE",
"336 1 CURVE SMOOTH",
"388 1 OFFCURVE",
"433 37 OFFCURVE",
"433 95 CURVE SMOOTH",
"433 126 OFFCURVE",
"373 129 OFFCURVE",
"373 129 CURVE",
"373 129 OFFCURVE",
"379 130 OFFCURVE",
"348 130 CURVE SMOOTH",
"307 130 OFFCURVE",
"289 141 OFFCURVE",
"269 141 CURVE SMOOTH",
"249 141 OFFCURVE",
"239 119 OFFCURVE"
);
},
{
closed = 1;
nodes = (
"602 621 LINE",
"602 -146 LINE",
"688 -146 LINE",
"688 621 LINE"
);
},
{
closed = 1;
nodes = (
"382 76 LINE",
"609 76 LINE",
"609 128 LINE",
"382 128 LINE"
);
},
{
closed = 1;
nodes = (
"274 241 LINE SMOOTH",
"328 241 OFFCURVE",
"347 213 OFFCURVE",
"347 171 CURVE SMOOTH",
"347 118 LINE",
"433 118 LINE",
"433 171 LINE SMOOTH",
"433 249 OFFCURVE",
"377 292 OFFCURVE",
"295 293 CURVE SMOOTH",
"203 293 LINE SMOOTH",
"146 294 OFFCURVE",
"127 325 OFFCURVE",
"127 371 CURVE SMOOTH",
"127 423 OFFCURVE",
"157 447 OFFCURVE",
"245 447 CURVE SMOOTH",
"384 447 LINE",
"384 621 LINE",
"791 621 LINE",
"791 666 LINE",
"-13 666 LINE",
"-13 621 LINE",
"298 621 LINE",
"298 498 LINE",
"216 498 LINE SMOOTH",
"100 498 OFFCURVE",
"44 454 OFFCURVE",
"44 377 CURVE SMOOTH",
"44 291 OFFCURVE",
"99 243 OFFCURVE",
"182 242 CURVE SMOOTH"
);
}
);
width = 778;
}
);
userData = {
org.fontforge.glyphclass = baseglyph;
};
},
{
glyphname = dadeva_viramadeva_nadeva;
lastChange = "2016-09-19 15:51:21 +0000";
layers = (
{
anchors = (
{
name = "Lohit-Devanagari-DVAnchor0";
position = "{487, -86}";
}
);
components = (
{
name = dadeva;
}
);
layerId = "25D154CF-C470-4D68-A10D-6356F2BE0292";
paths = (
{
closed = 1;
nodes = (
"244 -125 CURVE SMOOTH",
"244 -102 OFFCURVE",
"196 -87 OFFCURVE",
"196 -59 CURVE SMOOTH",
"196 -40 OFFCURVE",
"205 -31 OFFCURVE",
"230 -16 CURVE SMOOTH",
"435 101 LINE",
"410 147 LINE",
"160 4 LINE SMOOTH",
"125 -16 OFFCURVE",
"97 -47 OFFCURVE",
"97 -91 CURVE SMOOTH",
"97 -142 OFFCURVE",
"136 -166 OFFCURVE",
"180 -166 CURVE SMOOTH",
"203 -166 OFFCURVE",
"244 -153 OFFCURVE"
);
}
);
width = 550;
}
);
userData = {
org.fontforge.glyphclass = baseglyph;
};
},
{
glyphname = dadeva_viramadeva_radeva;
lastChange = "2016-09-19 15:51:21 +0000";
layers = (
{
components = (
{
name = dadeva;
}
);
layerId = "25D154CF-C470-4D68-A10D-6356F2BE0292";
paths = (
{
closed = 1;
nodes = (
"445 99 LINE",
"436 129 LINE",
"102 -11 LINE",
"96 -14 OFFCURVE",
"94 -20 OFFCURVE",
"94 -27 CURVE SMOOTH",
"94 -50 OFFCURVE",
"122 -92 OFFCURVE",
"141 -92 CURVE SMOOTH",
"144 -92 OFFCURVE",
"147 -91 OFFCURVE",
"152 -88 CURVE SMOOTH"
);
}
);
width = 550;
}
);
userData = {
org.fontforge.glyphclass = baseglyph;
};
},
{
glyphname = dadeva_viramadeva_vadeva;
lastChange = "2016-09-19 15:51:21 +0000";
layers = (
{
anchors = (
{
name = "Lohit-Devanagari-DVAnchor0";
position = "{611, -86}";
}
);
layerId = "25D154CF-C470-4D68-A10D-6356F2BE0292";
paths = (
{
closed = 1;
nodes = (
"459 173 CURVE SMOOTH",
"459 130 OFFCURVE",
"493 95 OFFCURVE",
"537 95 CURVE SMOOTH",
"580 95 OFFCURVE",
"615 130 OFFCURVE",
"615 173 CURVE SMOOTH",
"615 217 OFFCURVE",
"580 252 OFFCURVE",
"537 252 CURVE SMOOTH",
"493 252 OFFCURVE",
"459 217 OFFCURVE"
);
},
{
closed = 1;
nodes = (
"557 152 LINE",
"519 127 OFFCURVE",
"472 113 OFFCURVE",
"414 113 CURVE SMOOTH",
"318 113 OFFCURVE",
"253 171.557 OFFCURVE",
"253 256 CURVE SMOOTH",
"253 328 OFFCURVE",
"282 440 OFFCURVE",
"590 445 CURVE",
"590 621 LINE",
"689 621 LINE",
"689 666 LINE",
"-13 666 LINE",
"-13 621 LINE",
"504 621 LINE",
"504 491 LINE",
"294 481 OFFCURVE",
"167 381 OFFCURVE",
"167 257 CURVE SMOOTH",
"167 122.729 OFFCURVE",
"291 63 OFFCURVE",
"414 63 CURVE SMOOTH",
"484 63 OFFCURVE",
"615 85 OFFCURVE",
"615 173 CURVE"
);
},
{
closed = 1;
nodes = (
"459 173 LINE",
"459 44 OFFCURVE",
"554 -63 OFFCURVE",
"600 -95 CURVE SMOOTH",
"612.53 -103.717 OFFCURVE",
"618 -104 OFFCURVE",
"623 -104 CURVE SMOOTH",
"635 -104 OFFCURVE",
"647 -87 OFFCURVE",
"647 -76 CURVE SMOOTH",
"647 -69 OFFCURVE",
"646.034 -64.144 OFFCURVE",
"634 -53 CURVE SMOOTH",
"580 -3 OFFCURVE",
"524 96 OFFCURVE",
"524 173 CURVE"
);
},
{
closed = 1;
nodes = (
"246 -134 CURVE SMOOTH",
"351 -134 OFFCURVE",
"468 -66 OFFCURVE",
"497 103 CURVE",
"444 103 LINE",
"424 -12 OFFCURVE",
"355 -81 OFFCURVE",
"260 -81 CURVE SMOOTH",
"169 -81 OFFCURVE",
"128 -24 OFFCURVE",
"128 33 CURVE SMOOTH",
"128 90 OFFCURVE",
"168 148 OFFCURVE",
"239 148 CURVE SMOOTH",
"246 148 OFFCURVE",
"254 160 OFFCURVE",
"254 174 CURVE SMOOTH",
"254 190 OFFCURVE",
"251 195 OFFCURVE",
"245 195 CURVE SMOOTH",
"111 195 OFFCURVE",
"41 110 OFFCURVE",
"41 27 CURVE SMOOTH",
"41 -54 OFFCURVE",
"108 -134 OFFCURVE"
);
}
);
width = 676;
}
);
userData = {
org.fontforge.glyphclass = baseglyph;
};
},
{
glyphname = dadeva_viramadeva_yadeva;
lastChange = "2016-09-19 15:51:21 +0000";
layers = (
{
layerId = "25D154CF-C470-4D68-A10D-6356F2BE0292";
paths = (
{
closed = 1;
nodes = (
"538 621 LINE",
"538 0 LINE",
"624 0 LINE",
"624 621 LINE"
);
},
{
closed = 1;
nodes = (
"254 282 LINE",
"275 333 LINE",
"213 333 LINE SMOOTH",
"156 333 OFFCURVE",
"137 365 OFFCURVE",
"137 411 CURVE SMOOTH",
"137 463 OFFCURVE",
"167 487 OFFCURVE",
"255 487 CURVE SMOOTH",
"364 487 LINE",
"364 621 LINE",
"727 621 LINE",
"727 666 LINE",
"-13 666 LINE",
"-13 621 LINE",
"278 621 LINE",
"278 538 LINE",
"226 538 LINE SMOOTH",
"110 538 OFFCURVE",
"54 494 OFFCURVE",
"54 417 CURVE SMOOTH",
"54 331 OFFCURVE",
"109 282 OFFCURVE",
"192 282 CURVE SMOOTH"
);
},
{
closed = 1;
nodes = (
"150 203 CURVE SMOOTH",
"150 114 OFFCURVE",
"225 54 OFFCURVE",
"335 54 CURVE SMOOTH",
"403 54 OFFCURVE",
"485 93 OFFCURVE",
"538 153 CURVE",
"538 211 LINE",
"491 154 OFFCURVE",
"434 107 OFFCURVE",
"345 107 CURVE SMOOTH",
"273 107 OFFCURVE",
"236 159 OFFCURVE",
"236 211 CURVE SMOOTH",
"236 263 OFFCURVE",
"281 315 OFFCURVE",
"370 315 CURVE SMOOTH",
"381 315 OFFCURVE",
"393 314 OFFCURVE",
"401 314 CURVE SMOOTH",
"410 314 OFFCURVE",
"416 326 OFFCURVE",
"416 339 CURVE SMOOTH",
"416 349 OFFCURVE",
"413 355 OFFCURVE",
"407 356 CURVE SMOOTH",
"388 359 OFFCURVE",
"370 361 OFFCURVE",
"353 361 CURVE SMOOTH",
"268 361 OFFCURVE",
"150 315 OFFCURVE"
);
}
);
width = 714;
}
);
userData = {
org.fontforge.glyphclass = baseglyph;
};
},
{
glyphname = danda;
lastChange = "2016-09-19 15:51:21 +0000";
layers = (
{
layerId = "25D154CF-C470-4D68-A10D-6356F2BE0292";
paths = (
{
closed = 1;
nodes = (
"180 0 LINE",
"180 666 LINE",
"266 666 LINE",
"266 0 LINE"
);
}
);
width = 356;
}
);
unicode = 0964;
userData = {
org.fontforge.glyphclass = baseglyph;
};
},
{
glyphname = dbldanda;
lastChange = "2016-09-19 15:51:21 +0000";
layers = (
{
layerId = "25D154CF-C470-4D68-A10D-6356F2BE0292";
paths = (
{
closed = 1;
nodes = (
"393 0 LINE",
"393 666 LINE",
"479 666 LINE",
"479 0 LINE"
);
},
{
closed = 1;
nodes = (
"180 0 LINE",
"180 666 LINE",
"266 666 LINE",
"266 0 LINE"
);
}
);
width = 569;
}
);
unicode = 0965;
userData = {
org.fontforge.glyphclass = baseglyph;
};
},
{
glyphname = ddadeva;
lastChange = "2016-09-19 15:51:21 +0000";
layers = (
{
anchors = (
{
name = "Lohit-Devanagari-DVAnchor0";
position = "{378, 45}";
},
{
name = "Lohit-Devanagari-DVAnchor3";
position = "{495, 664}";
}
);
layerId = "25D154CF-C470-4D68-A10D-6356F2BE0292";
paths = (
{
closed = 1;
nodes = (
"377 73 CURVE SMOOTH",
"229 73 OFFCURVE",
"113 177 OFFCURVE",
"88 305 CURVE SMOOTH",
"87 311 OFFCURVE",
"82 315 OFFCURVE",
"70 315 CURVE SMOOTH",
"57 315 OFFCURVE",
"43 309 OFFCURVE",
"43 298 CURVE SMOOTH",
"43 213 OFFCURVE",
"165 15 OFFCURVE",
"377 15 CURVE SMOOTH",
"466 15 OFFCURVE",
"594 57 OFFCURVE",
"594 174 CURVE SMOOTH",
"594 268 OFFCURVE",
"505 324 OFFCURVE",
"410 324 CURVE SMOOTH",
"365 324 OFFCURVE",
"343 318 OFFCURVE",
"307 306 CURVE",
"270 317 OFFCURVE",
"246 341 OFFCURVE",
"246 382 CURVE SMOOTH",
"246 423 OFFCURVE",
"268 447 OFFCURVE",
"324 447 CURVE SMOOTH",
"534 447 LINE",
"534 621 LINE",
"644 621 LINE",
"644 666 LINE",
"-13 666 LINE",
"-13 621 LINE",
"448 621 LINE",
"448 498 LINE",
"298 498 LINE SMOOTH",
"203 498 OFFCURVE",
"163 453 OFFCURVE",
"163 389 CURVE SMOOTH",
"163 321 OFFCURVE",
"215 263 OFFCURVE",
"303 253 CURVE",
"332 265 OFFCURVE",
"366 272 OFFCURVE",
"391 272 CURVE SMOOTH",
"464 272 OFFCURVE",
"509 234 OFFCURVE",
"509 177 CURVE SMOOTH",
"509 114 OFFCURVE",
"452 73 OFFCURVE"
);
}
);
width = 631;
}
);
unicode = 0921;
userData = {
org.fontforge.glyphclass = baseglyph;
};
},
{
glyphname = ddadeva_viramadeva_ddadeva;
lastChange = "2016-09-19 15:51:21 +0000";
layers = (
{
anchors = (
{
name = "Lohit-Devanagari-DVAnchor0";
position = "{423, -120}";
}
);
layerId = "25D154CF-C470-4D68-A10D-6356F2BE0292";
paths = (
{
closed = 1;
nodes = (
"409 202 CURVE SMOOTH",
"253 202 OFFCURVE",
"131 307 OFFCURVE",
"105 434 CURVE",
"103 440 OFFCURVE",
"99 444 OFFCURVE",
"87 444 CURVE SMOOTH",
"74 444 OFFCURVE",
"60 439 OFFCURVE",
"60 427 CURVE SMOOTH",
"60 343 OFFCURVE",
"192 145 OFFCURVE",
"424 145 CURVE SMOOTH",
"506 145 OFFCURVE",
"625 177 OFFCURVE",
"625 269 CURVE SMOOTH",
"625 342 OFFCURVE",
"542 385 OFFCURVE",
"451 385 CURVE SMOOTH",
"402 385 OFFCURVE",
"379 381 OFFCURVE",
"338 370 CURVE",
"301 381 OFFCURVE",
"277 407 OFFCURVE",
"277 438 CURVE SMOOTH",
"277 482 OFFCURVE",
"307 503 OFFCURVE",
"395 503 CURVE SMOOTH",
"566 503 LINE",
"566 621 LINE",
"687 621 LINE",
"687 666 LINE",
"-13 666 LINE",
"-13 621 LINE",
"479 621 LINE",
"479 554 LINE",
"366 554 LINE SMOOTH",
"250 554 OFFCURVE",
"194 510 OFFCURVE",
"194 445 CURVE SMOOTH",
"194 393 OFFCURVE",
"247 349 OFFCURVE",
"335 331 CURVE",
"366 341 OFFCURVE",
"404 346 OFFCURVE",
"432 346 CURVE SMOOTH",
"499 346 OFFCURVE",
"540 319 OFFCURVE",
"540 278 CURVE SMOOTH",
"540 232 OFFCURVE",
"483 202 OFFCURVE"
);
},
{
closed = 1;
nodes = (
"234 231 LINE",
"207 212 OFFCURVE",
"194 186 OFFCURVE",
"194 154 CURVE SMOOTH",
"194 102 OFFCURVE",
"247 58 OFFCURVE",
"335 40 CURVE",
"366 50 OFFCURVE",
"404 55 OFFCURVE",
"432 55 CURVE SMOOTH",
"499 55 OFFCURVE",
"540 28 OFFCURVE",
"540 -13 CURVE SMOOTH",
"540 -59 OFFCURVE",
"483 -89 OFFCURVE",
"409 -89 CURVE SMOOTH",
"253 -89 OFFCURVE",
"131 16 OFFCURVE",
"105 143 CURVE",
"103 149 OFFCURVE",
"99 153 OFFCURVE",
"87 153 CURVE SMOOTH",
"74 153 OFFCURVE",
"60 148 OFFCURVE",
"60 136 CURVE SMOOTH",
"60 52 OFFCURVE",
"192 -146 OFFCURVE",
"424 -146 CURVE SMOOTH",
"506 -146 OFFCURVE",
"625 -114 OFFCURVE",
"625 -22 CURVE SMOOTH",
"625 51 OFFCURVE",
"542 94 OFFCURVE",
"451 94 CURVE SMOOTH",
"402 94 OFFCURVE",
"379 90 OFFCURVE",
"338 79 CURVE",
"301 90 OFFCURVE",
"277 116 OFFCURVE",
"277 147 CURVE SMOOTH",
"277 168 OFFCURVE",
"283 183 OFFCURVE",
"299 194 CURVE"
);
}
);
width = 674;
}
);
userData = {
org.fontforge.glyphclass = baseglyph;
};
},
{
glyphname = ddadeva_viramadeva_ddhadeva;
lastChange = "2016-09-19 15:51:21 +0000";
layers = (
{
anchors = (
{
name = "Lohit-Devanagari-DVAnchor0";
position = "{341, -120}";
}
);
layerId = "25D154CF-C470-4D68-A10D-6356F2BE0292";
paths = (
{
closed = 1;
nodes = (
"78 7 CURVE SMOOTH",
"78 -95 OFFCURVE",
"210 -146 OFFCURVE",
"341 -146 CURVE SMOOTH",
"483 -146 OFFCURVE",
"573 -81 OFFCURVE",
"573 -6 CURVE SMOOTH",
"573 48 OFFCURVE",
"536 107.96 OFFCURVE",
"413 107.96 CURVE SMOOTH",
"340 107.96 OFFCURVE",
"262 79.52 OFFCURVE",
"262 10 CURVE SMOOTH",
"262 -46.881 OFFCURVE",
"325 -69 OFFCURVE",
"357 -69 CURVE SMOOTH",
"365 -69 OFFCURVE",
"374 -67.421 OFFCURVE",
"374 -61.101 CURVE SMOOTH",
"374 -51.62 OFFCURVE",
"339 -41.351 OFFCURVE",
"339 12.369 CURVE SMOOTH",
"339 51 OFFCURVE",
"373 71 OFFCURVE",
"412 71 CURVE SMOOTH",
"459 71 OFFCURVE",
"492 40 OFFCURVE",
"492 -8 CURVE SMOOTH",
"492 -71 OFFCURVE",
"423 -102 OFFCURVE",
"338 -102 CURVE SMOOTH",
"250 -102 OFFCURVE",
"165 -57 OFFCURVE",
"165 11 CURVE SMOOTH",
"165 76 OFFCURVE",
"219 145 OFFCURVE",
"425 150 CURVE",
"425 210 LINE",
"339 210 LINE",
"339 190 LINE",
"207 177.828 OFFCURVE",
"78 109.625 OFFCURVE"
);
},
{
closed = 1;
nodes = (
"409 236 CURVE SMOOTH",
"253 236 OFFCURVE",
"131 341 OFFCURVE",
"105 468 CURVE",
"103 473 OFFCURVE",
"99 478 OFFCURVE",
"87 478 CURVE SMOOTH",
"74 478 OFFCURVE",
"60 473 OFFCURVE",
"60 461 CURVE SMOOTH",
"60 377 OFFCURVE",
"192 179 OFFCURVE",
"424 179 CURVE SMOOTH",
"506 179 OFFCURVE",
"625 211 OFFCURVE",
"625 303 CURVE SMOOTH",
"625 371 OFFCURVE",
"542 412 OFFCURVE",
"451 412 CURVE SMOOTH",
"402 412 OFFCURVE",
"379 408 OFFCURVE",
"338 397 CURVE",
"301 408 OFFCURVE",
"277 434 OFFCURVE",
"277 465 CURVE SMOOTH",
"277 504 OFFCURVE",
"307 523 OFFCURVE",
"395 523 CURVE SMOOTH",
"566 523 LINE",
"566 621 LINE",
"687 621 LINE",
"687 666 LINE",
"-13 666 LINE",
"-13 621 LINE",
"479 621 LINE",
"479 574 LINE",
"366 574 LINE SMOOTH",
"250 574 OFFCURVE",
"194 533 OFFCURVE",
"194 472 CURVE SMOOTH",
"194 420 OFFCURVE",
"247 376 OFFCURVE",
"335 358 CURVE",
"366 367 OFFCURVE",
"404 373 OFFCURVE",
"432 373 CURVE SMOOTH",
"499 373 OFFCURVE",
"540 349 OFFCURVE",
"540 312 CURVE SMOOTH",
"540 266 OFFCURVE",
"483 236 OFFCURVE"
);
}
);
width = 674;
}
);
userData = {
org.fontforge.glyphclass = baseglyph;
};
},
{
glyphname = ddadeva_viramadeva_yadeva;
lastChange = "2016-09-19 15:51:21 +0000";
layers = (
{
layerId = "25D154CF-C470-4D68-A10D-6356F2BE0292";
paths = (
{
closed = 1;
nodes = (
"396 57 CURVE SMOOTH",
"240 57 OFFCURVE",
"118 162 OFFCURVE",
"92 290 CURVE",
"90 296 OFFCURVE",
"86 300 OFFCURVE",
"74 300 CURVE SMOOTH",
"61 300 OFFCURVE",
"47 294 OFFCURVE",
"47 283 CURVE SMOOTH",
"47 198 OFFCURVE",
"174 0 OFFCURVE",
"396 0 CURVE SMOOTH",
"484 0 OFFCURVE",
"612 42 OFFCURVE",
"612 159 CURVE SMOOTH",
"612 253 OFFCURVE",
"524 308 OFFCURVE",
"428 308 CURVE SMOOTH",
"383 308 OFFCURVE",
"362 303 OFFCURVE",
"325 291 CURVE",
"288 304 OFFCURVE",
"264 333 OFFCURVE",
"264 371 CURVE SMOOTH",
"264 423 OFFCURVE",
"294 447 OFFCURVE",
"382 447 CURVE SMOOTH",
"553 447 LINE",
"553 621 LINE",
"1250 621 LINE",
"1250 666 LINE",
"-13 666 LINE",
"-13 621 LINE",
"466 621 LINE",
"466 498 LINE",
"353 498 LINE SMOOTH",
"237 498 OFFCURVE",
"181 454 OFFCURVE",
"181 377 CURVE SMOOTH",
"181 314 OFFCURVE",
"234 260 OFFCURVE",
"322 238 CURVE",
"350 250 OFFCURVE",
"384 257 OFFCURVE",
"409 257 CURVE SMOOTH",
"482 257 OFFCURVE",
"527 219 OFFCURVE",
"527 162 CURVE SMOOTH",
"527 99 OFFCURVE",
"470 57 OFFCURVE"
);
},
{
closed = 1;
nodes = (
"698 274 CURVE",
"698 149 OFFCURVE",
"795 71 OFFCURVE",
"913 71 CURVE SMOOTH",
"993 71 OFFCURVE",
"1051 100 OFFCURVE",
"1085 123 CURVE SMOOTH",
"1114 143 OFFCURVE",
"1118 150 OFFCURVE",
"1118 155 CURVE SMOOTH",
"1118 167 OFFCURVE",
"1106 182 OFFCURVE",
"1095 182 CURVE SMOOTH",
"1085 182 OFFCURVE",
"1026 119 OFFCURVE",
"923 119 CURVE SMOOTH",
"852 119 OFFCURVE",
"792 158 OFFCURVE",
"783 252 CURVE",
"854 272 OFFCURVE",
"896 321 OFFCURVE",
"896 377 CURVE SMOOTH",
"896 454 OFFCURVE",
"841 498 OFFCURVE",
"725 498 CURVE SMOOTH",
"553 498 LINE",
"553 447 LINE",
"696 447 LINE SMOOTH",
"784 447 OFFCURVE",
"814 423 OFFCURVE",
"814 371 CURVE SMOOTH",
"814 326 OFFCURVE",
"768 290 OFFCURVE"
);
},
{
closed = 1;
nodes = (
"1053 0 LINE",
"1139 0 LINE",
"1139 636 LINE",
"1053 636 LINE"
);
}
);
width = 1237;
}
);
userData = {
org.fontforge.glyphclass = baseglyph;
};
},
{
glyphname = dddadeva;
lastChange = "2016-09-19 15:51:21 +0000";
layers = (
{
anchors = (
{
name = "Lohit-Devanagari-DVAnchor3";
position = "{491, 664}";
}
);
components = (
{
name = ddadeva;
}
);
layerId = "25D154CF-C470-4D68-A10D-6356F2BE0292";
paths = (
{
closed = 1;
nodes = (
"0 -45 LINE",
"0 0 LINE",
"632 0 LINE",
"632 -45 LINE"
);
}
);
width = 631;
}
);
unicode = 097E;
userData = {
org.fontforge.glyphclass = baseglyph;
};
},
{
glyphname = ddhadeva;
lastChange = "2016-09-19 15:51:21 +0000";
layers = (
{
anchors = (
{
name = "Lohit-Devanagari-DVAnchor0";
position = "{314, 47}";
},
{
name = "Lohit-Devanagari-DVAnchor3";
position = "{357, 664}";
}
);
layerId = "25D154CF-C470-4D68-A10D-6356F2BE0292";
paths = (
{
closed = 1;
nodes = (
"310 205 CURVE SMOOTH",
"310 147 OFFCURVE",
"334 128 OFFCURVE",
"334 116 CURVE SMOOTH",
"334 108 OFFCURVE",
"325 106 OFFCURVE",
"317 106 CURVE SMOOTH",
"285 106 OFFCURVE",
"233 130 OFFCURVE",
"233 202 CURVE SMOOTH",
"233 286 OFFCURVE",
"304 328 OFFCURVE",
"383 328 CURVE SMOOTH",
"488 328 OFFCURVE",
"548 261 OFFCURVE",
"548 188 CURVE SMOOTH",
"548 89 OFFCURVE",
"458 20 OFFCURVE",
"315 20 CURVE SMOOTH",
"184 20 OFFCURVE",
"53 91 OFFCURVE",
"53 234 CURVE SMOOTH",
"53 389 OFFCURVE",
"182 467 OFFCURVE",
"313 479 CURVE",
"313 621 LINE",
"-13 621 LINE",
"-13 666 LINE",
"605 666 LINE",
"605 621 LINE",
"400 621 LINE",
"400 439 LINE",
"194 431 OFFCURVE",
"139 330 OFFCURVE",
"139 233 CURVE SMOOTH",
"139 134 OFFCURVE",
"202 63 OFFCURVE",
"318 63 CURVE SMOOTH",
"412 63 OFFCURVE",
"467 116 OFFCURVE",
"467 189 CURVE SMOOTH",
"467 246 OFFCURVE",
"437 281 OFFCURVE",
"386 281 CURVE SMOOTH",
"331 281 OFFCURVE",
"310 241 OFFCURVE"
);
}
);
width = 592;
}
);
unicode = 0922;
userData = {
org.fontforge.glyphclass = baseglyph;
};
},
{
glyphname = ddhadeva_viramadeva_ddhadeva;
lastChange = "2016-09-19 15:51:21 +0000";
layers = (
{
anchors = (
{
name = "Lohit-Devanagari-DVAnchor0";
position = "{315, -120}";
}
);
layerId = "25D154CF-C470-4D68-A10D-6356F2BE0292";
paths = (
{
closed = 1;
nodes = (
"52 7 CURVE SMOOTH",
"52 117 OFFCURVE",
"181 179 OFFCURVE",
"313 190 CURVE",
"313 250 LINE",
"399 250 LINE",
"399 150 LINE",
"193 145 OFFCURVE",
"139 76 OFFCURVE",
"139 11 CURVE SMOOTH",
"139 -57 OFFCURVE",
"224 -102 OFFCURVE",
"312 -102 CURVE SMOOTH",
"397 -102 OFFCURVE",
"466 -71 OFFCURVE",
"466 -8 CURVE SMOOTH",
"466 40 OFFCURVE",
"433 71 OFFCURVE",
"386 71 CURVE SMOOTH",
"347 71 OFFCURVE",
"313 51 OFFCURVE",
"313 12.369 CURVE SMOOTH",
"313 -41.351 OFFCURVE",
"348 -51.62 OFFCURVE",
"348 -61.101 CURVE SMOOTH",
"348 -67.421 OFFCURVE",
"339 -69 OFFCURVE",
"331 -69 CURVE SMOOTH",
"299 -69 OFFCURVE",
"236 -46.881 OFFCURVE",
"236 10 CURVE SMOOTH",
"236 79.52 OFFCURVE",
"314 107.96 OFFCURVE",
"387 107.96 CURVE SMOOTH",
"510 107.96 OFFCURVE",
"547 48 OFFCURVE",
"547 -6 CURVE SMOOTH",
"547 -81 OFFCURVE",
"457 -146 OFFCURVE",
"315 -146 CURVE SMOOTH",
"184 -146 OFFCURVE",
"52 -95 OFFCURVE"
);
},
{
closed = 1;
nodes = (
"386 442 CURVE SMOOTH",
"347 442 OFFCURVE",
"313 422 OFFCURVE",
"313 383.369 CURVE SMOOTH",
"313 329.649 OFFCURVE",
"348 319.38 OFFCURVE",
"348 309.899 CURVE SMOOTH",
"348 303.579 OFFCURVE",
"339 302 OFFCURVE",
"331 302 CURVE SMOOTH",
"299 302 OFFCURVE",
"236 324.119 OFFCURVE",
"236 381 CURVE SMOOTH",
"236 450.52 OFFCURVE",
"314 478.96 OFFCURVE",
"387 478.96 CURVE SMOOTH",
"510 478.96 OFFCURVE",
"547 419 OFFCURVE",
"547 365 CURVE SMOOTH",
"547 290 OFFCURVE",
"457 225 OFFCURVE",
"315 225 CURVE SMOOTH",
"184 225 OFFCURVE",
"52 276 OFFCURVE",
"52 378 CURVE SMOOTH",
"52 488 OFFCURVE",
"181 550 OFFCURVE",
"313 561 CURVE",
"313 621 LINE",
"-13 621 LINE",
"-13 666 LINE",
"605 666 LINE",
"605 621 LINE",
"399 621 LINE",
"399 521 LINE",
"193 516 OFFCURVE",
"139 447 OFFCURVE",
"139 382 CURVE SMOOTH",
"139 314 OFFCURVE",
"224 269 OFFCURVE",
"312 269 CURVE SMOOTH",
"397 269 OFFCURVE",
"466 300 OFFCURVE",
"466 363 CURVE SMOOTH",
"466 411 OFFCURVE",
"433 442 OFFCURVE"
);
}
);
width = 592;
}
);
userData = {
org.fontforge.glyphclass = baseglyph;
};
},
{
glyphname = ddhadeva_viramadeva_yadeva;
lastChange = "2016-09-19 15:51:21 +0000";
layers = (
{
layerId = "25D154CF-C470-4D68-A10D-6356F2BE0292";
paths = (
{
closed = 1;
nodes = (
"37 261 CURVE SMOOTH",
"37 118 OFFCURVE",
"168 47 OFFCURVE",
"299 47 CURVE SMOOTH",
"442 47 OFFCURVE",
"532 116 OFFCURVE",
"532 215 CURVE SMOOTH",
"532 288 OFFCURVE",
"472 355 OFFCURVE",
"367 355 CURVE SMOOTH",
"288 355 OFFCURVE",
"217 313 OFFCURVE",
"217 229 CURVE SMOOTH",
"217 157 OFFCURVE",
"269 133 OFFCURVE",
"301 133 CURVE SMOOTH",
"309 133 OFFCURVE",
"318 135 OFFCURVE",
"318 143 CURVE SMOOTH",
"318 155 OFFCURVE",
"294 174 OFFCURVE",
"294 232 CURVE SMOOTH",
"294 268 OFFCURVE",
"315 308 OFFCURVE",
"370 308 CURVE SMOOTH",
"421 308 OFFCURVE",
"451 273 OFFCURVE",
"451 216 CURVE SMOOTH",
"451 143 OFFCURVE",
"396 90 OFFCURVE",
"302 90 CURVE SMOOTH",
"186 90 OFFCURVE",
"123 161 OFFCURVE",
"123 260 CURVE SMOOTH",
"123 358 OFFCURVE",
"163 467 OFFCURVE",
"313 467 CURVE SMOOTH",
"399 467 LINE",
"399 621 LINE",
"1187 621 LINE",
"1187 666 LINE",
"-13 666 LINE",
"-13 621 LINE",
"313 621 LINE",
"313 518 LINE",
"295 518 LINE SMOOTH",
"145 518 OFFCURVE",
"37 410 OFFCURVE"
);
},
{
closed = 1;
nodes = (
"636 255 CURVE",
"636 130 OFFCURVE",
"732 52 OFFCURVE",
"850 52 CURVE SMOOTH",
"930 52 OFFCURVE",
"988 81 OFFCURVE",
"1022 104 CURVE SMOOTH",
"1051 124 OFFCURVE",
"1055 131 OFFCURVE",
"1055 136 CURVE SMOOTH",
"1055 147 OFFCURVE",
"1043 163 OFFCURVE",
"1032 163 CURVE SMOOTH",
"1022 163 OFFCURVE",
"963 99 OFFCURVE",
"860 99 CURVE SMOOTH",
"789 99 OFFCURVE",
"730 139 OFFCURVE",
"720 233 CURVE",
"791 255 OFFCURVE",
"834 306 OFFCURVE",
"834 366 CURVE SMOOTH",
"834 450 OFFCURVE",
"778 518 OFFCURVE",
"662 518 CURVE SMOOTH",
"395 518 LINE",
"395 467 LINE",
"634 467 LINE SMOOTH",
"721 467 OFFCURVE",
"751 419 OFFCURVE",
"751 360 CURVE SMOOTH",
"751 311 OFFCURVE",
"706 272 OFFCURVE"
);
},
{
closed = 1;
nodes = (
"990 0 LINE",
"1076 0 LINE",
"1076 636 LINE",
"990 636 LINE"
);
}
);
width = 1174;
}
);
userData = {
org.fontforge.glyphclass = baseglyph;
};
},
{
glyphname = dhadeva;
lastChange = "2016-09-19 15:51:21 +0000";
layers = (
{
anchors = (
{
name = "Lohit-Devanagari-DVAnchor3";
position = "{520, 664}";
}
);
layerId = "25D154CF-C470-4D68-A10D-6356F2BE0292";
paths = (
{
closed = 1;
nodes = (
"342 412 CURVE SMOOTH",
"323 415 OFFCURVE",
"305 417 OFFCURVE",
"288 417 CURVE SMOOTH",
"266 417 OFFCURVE",
"246 414 OFFCURVE",
"225 408 CURVE",
"168 415 OFFCURVE",
"111 441 OFFCURVE",
"111 524 CURVE SMOOTH",
"111 587 OFFCURVE",
"145 636 OFFCURVE",
"186 636 CURVE SMOOTH",
"227 636 OFFCURVE",
"247 602 OFFCURVE",
"247 560 CURVE SMOOTH",
"247 526 OFFCURVE",
"239 520 OFFCURVE",
"239 513 CURVE SMOOTH",
"239 507 OFFCURVE",
"244 506 OFFCURVE",
"252 506 CURVE SMOOTH",
"289 506 OFFCURVE",
"319 531 OFFCURVE",
"319 575 CURVE SMOOTH",
"319 634 OFFCURVE",
"275 677 OFFCURVE",
"194 677 CURVE SMOOTH",
"99 677 OFFCURVE",
"32 610 OFFCURVE",
"32 528 CURVE SMOOTH",
"32 453 OFFCURVE",
"75 399 OFFCURVE",
"160 371 CURVE",
"108 341 OFFCURVE",
"85 300 OFFCURVE",
"85 259 CURVE SMOOTH",
"85 170 OFFCURVE",
"160 110 OFFCURVE",
"270 110 CURVE SMOOTH",
"338 110 OFFCURVE",
"420 149 OFFCURVE",
"473 209 CURVE",
"473 0 LINE",
"560 0 LINE",
"560 621 LINE",
"661 621 LINE",
"661 666 LINE",
"367 666 LINE",
"367 621 LINE",
"473 621 LINE",
"473 267 LINE",
"426 210 OFFCURVE",
"369 163 OFFCURVE",
"280 163 CURVE SMOOTH",
"208 163 OFFCURVE",
"171 215 OFFCURVE",
"171 267 CURVE SMOOTH",
"171 319 OFFCURVE",
"216 371 OFFCURVE",
"305 371 CURVE SMOOTH",
"316 371 OFFCURVE",
"328 370 OFFCURVE",
"336 370 CURVE SMOOTH",
"345 370 OFFCURVE",
"351 382 OFFCURVE",
"351 395 CURVE SMOOTH",
"351 405 OFFCURVE",
"348 411 OFFCURVE"
);
}
);
width = 648;
}
);
unicode = 0927;
userData = {
org.fontforge.glyphclass = baseglyph;
};
},
{
glyphname = dhadeva_viramadeva;
lastChange = "2016-09-19 15:51:21 +0000";
layers = (
{
layerId = "25D154CF-C470-4D68-A10D-6356F2BE0292";
paths = (
{
closed = 1;
nodes = (
"503 621 LINE",
"503 666 LINE",
"367 666 LINE",
"367 621 LINE"
);
},
{
closed = 1;
nodes = (
"280 163 CURVE SMOOTH",
"208 163 OFFCURVE",
"171 215 OFFCURVE",
"171 267 CURVE SMOOTH",
"171 319 OFFCURVE",
"216 371 OFFCURVE",
"305 371 CURVE SMOOTH",
"316 371 OFFCURVE",
"328 370 OFFCURVE",
"336 370 CURVE SMOOTH",
"345 370 OFFCURVE",
"351 382 OFFCURVE",
"351 395 CURVE SMOOTH",
"351 405 OFFCURVE",
"348 411 OFFCURVE",
"342 412 CURVE SMOOTH",
"323 415 OFFCURVE",
"305 417 OFFCURVE",
"288 417 CURVE SMOOTH",
"266 417 OFFCURVE",
"246 414 OFFCURVE",
"225 408 CURVE",
"168 415 OFFCURVE",
"111 441 OFFCURVE",
"111 524 CURVE SMOOTH",
"111 587 OFFCURVE",
"145 636 OFFCURVE",
"186 636 CURVE SMOOTH",
"227 636 OFFCURVE",
"247 602 OFFCURVE",
"247 560 CURVE SMOOTH",
"247 526 OFFCURVE",
"239 520 OFFCURVE",
"239 513 CURVE SMOOTH",
"239 507 OFFCURVE",
"244 506 OFFCURVE",
"252 506 CURVE SMOOTH",
"289 506 OFFCURVE",
"319 531 OFFCURVE",
"319 575 CURVE SMOOTH",
"319 634 OFFCURVE",
"275 677 OFFCURVE",
"194 677 CURVE SMOOTH",
"99 677 OFFCURVE",
"32 610 OFFCURVE",
"32 528 CURVE SMOOTH",
"32 453 OFFCURVE",
"75 399 OFFCURVE",
"160 371 CURVE",
"108 341 OFFCURVE",
"85 300 OFFCURVE",
"85 259 CURVE SMOOTH",
"85 170 OFFCURVE",
"160 110 OFFCURVE",
"270 110 CURVE SMOOTH",
"442 110 OFFCURVE",
"546 250 OFFCURVE",
"546 261 CURVE SMOOTH",
"546 271 OFFCURVE",
"533 284 OFFCURVE",
"519 284 CURVE SMOOTH",
"506 284 OFFCURVE",
"430 163 OFFCURVE"
);
}
);
width = 490;
}
);
userData = {
org.fontforge.glyphclass = baseglyph;
};
},
{
glyphname = dhadeva_viramadeva_radeva;
lastChange = "2016-09-19 15:51:21 +0000";
layers = (
{
components = (
{
name = dhadeva;
}
);
layerId = "25D154CF-C470-4D68-A10D-6356F2BE0292";
paths = (
{
closed = 1;
nodes = (
"473 193 LINE",
"473 223 LINE",
"66 54 LINE",
"60 51 OFFCURVE",
"58 45 OFFCURVE",
"58 38 CURVE SMOOTH",
"58 13 OFFCURVE",
"80 -32 OFFCURVE",
"95 -32 CURVE SMOOTH",
"98 -32 OFFCURVE",
"101 -32 OFFCURVE",
"106 -28 CURVE"
);
}
);
width = 648;
}
);
userData = {
org.fontforge.glyphclass = baseglyph;
};
},
{
glyphname = divide;
lastChange = "2016-09-19 15:51:21 +0000";
layers = (
{
layerId = "25D154CF-C470-4D68-A10D-6356F2BE0292";
paths = (
{
closed = 1;
nodes = (
"91 297 LINE",
"484 297 LINE",
"484 366 LINE",
"91 366 LINE"
);
},
{
closed = 1;
nodes = (
"230 485 CURVE SMOOTH",
"230 462 OFFCURVE",
"264 426 OFFCURVE",
"286 426 CURVE SMOOTH",
"308 426 OFFCURVE",
"345 462 OFFCURVE",
"345 485 CURVE SMOOTH",
"345 511 OFFCURVE",
"308 547 OFFCURVE",
"286 547 CURVE SMOOTH",
"264 547 OFFCURVE",
"230 511 OFFCURVE"
);
},
{
closed = 1;
nodes = (
"230 176 CURVE SMOOTH",
"230 153 OFFCURVE",
"264 116 OFFCURVE",
"286 116 CURVE SMOOTH",
"308 116 OFFCURVE",
"345 153 OFFCURVE",
"345 176 CURVE SMOOTH",
"345 202 OFFCURVE",
"308 237 OFFCURVE",
"286 237 CURVE SMOOTH",
"264 237 OFFCURVE",
"230 202 OFFCURVE"
);
}
);
width = 636;
}
);
unicode = 00F7;
userData = {
org.fontforge.glyphclass = baseglyph;
};
},
{
glyphname = dollar;
lastChange = "2016-09-19 15:51:21 +0000";
layers = (
{
layerId = "25D154CF-C470-4D68-A10D-6356F2BE0292";
paths = (
{
closed = 1;
nodes = (
"266 52 CURVE SMOOTH",
"201 52 OFFCURVE",
"140 89 OFFCURVE",
"140 157 CURVE SMOOTH",
"140 207 OFFCURVE",
"169 228 OFFCURVE",
"169 237 CURVE SMOOTH",
"169 248 OFFCURVE",
"164 248 OFFCURVE",
"149 248 CURVE SMOOTH",
"93 248 OFFCURVE",
"50 210 OFFCURVE",
"50 150 CURVE SMOOTH",
"50 59 OFFCURVE",
"136 10 OFFCURVE",
"234 1 CURVE",
"234 -141 LINE",
"255 -141 OFFCURVE",
"281 -136 OFFCURVE",
"293 -120 CURVE",
"293 1 LINE",
"403 11 OFFCURVE",
"471 81 OFFCURVE",
"471 172 CURVE SMOOTH",
"471 390 OFFCURVE",
"149 327 OFFCURVE",
"149 515 CURVE SMOOTH",
"149 562 OFFCURVE",
"183 615 OFFCURVE",
"257 615 CURVE SMOOTH",
"304 615 OFFCURVE",
"353 586 OFFCURVE",
"353 532 CURVE SMOOTH",
"353 483 OFFCURVE",
"324 459 OFFCURVE",
"324 452 CURVE SMOOTH",
"324 440 OFFCURVE",
"331 440 OFFCURVE",
"345 440 CURVE SMOOTH",
"400 440 OFFCURVE",
"444 482 OFFCURVE",
"444 539 CURVE SMOOTH",
"444 611 OFFCURVE",
"375 653 OFFCURVE",
"293 664 CURVE",
"293 810 LINE",
"274 810 OFFCURVE",
"247 803 OFFCURVE",
"234 786 CURVE",
"234 666 LINE",
"116 656 OFFCURVE",
"61 570 OFFCURVE",
"61 490 CURVE SMOOTH",
"61 264 OFFCURVE",
"378 309 OFFCURVE",
"378 156 CURVE SMOOTH",
"378 90 OFFCURVE",
"323 52 OFFCURVE"
);
}
);
width = 595;
}
);
unicode = 0024;
userData = {
org.fontforge.glyphclass = baseglyph;
};
},
{
glyphname = dottedcircle;
lastChange = "2016-09-19 15:51:21 +0000";
layers = (
{
layerId = "25D154CF-C470-4D68-A10D-6356F2BE0292";
paths = (
{
closed = 1;
nodes = (
"615 112 CURVE SMOOTH",
"642 112 OFFCURVE",
"663 91 OFFCURVE",
"663 64 CURVE SMOOTH",
"663 37 OFFCURVE",
"642 15 OFFCURVE",
"615 15 CURVE SMOOTH",
"588 15 OFFCURVE",
"567 37 OFFCURVE",
"567 64 CURVE SMOOTH",
"567 91 OFFCURVE",
"588 112 OFFCURVE"
);
},
{
closed = 1;
nodes = (
"304 651 CURVE SMOOTH",
"331 651 OFFCURVE",
"352 630 OFFCURVE",
"352 603 CURVE SMOOTH",
"352 576 OFFCURVE",
"331 555 OFFCURVE",
"304 555 CURVE SMOOTH",
"277 555 OFFCURVE",
"256 576 OFFCURVE",
"256 603 CURVE SMOOTH",
"256 630 OFFCURVE",
"277 651 OFFCURVE"
);
},
{
closed = 1;
nodes = (
"730 225 CURVE SMOOTH",
"757 225 OFFCURVE",
"778 204 OFFCURVE",
"778 177 CURVE SMOOTH",
"778 150 OFFCURVE",
"757 129 OFFCURVE",
"730 129 CURVE SMOOTH",
"703 129 OFFCURVE",
"682 150 OFFCURVE",
"682 177 CURVE SMOOTH",
"682 204 OFFCURVE",
"703 225 OFFCURVE"
);
},
{
closed = 1;
nodes = (
"190 537 CURVE SMOOTH",
"217 537 OFFCURVE",
"238 516 OFFCURVE",
"238 489 CURVE SMOOTH",
"238 462 OFFCURVE",
"217 441 OFFCURVE",
"190 441 CURVE SMOOTH",
"163 441 OFFCURVE",
"142 462 OFFCURVE",
"142 489 CURVE SMOOTH",
"142 516 OFFCURVE",
"163 537 OFFCURVE"
);
},
{
closed = 1;
nodes = (
"304 112 CURVE SMOOTH",
"331 112 OFFCURVE",
"352 91 OFFCURVE",
"352 64 CURVE SMOOTH",
"352 37 OFFCURVE",
"331 15 OFFCURVE",
"304 15 CURVE SMOOTH",
"277 15 OFFCURVE",
"256 37 OFFCURVE",
"256 64 CURVE SMOOTH",
"256 91 OFFCURVE",
"277 112 OFFCURVE"
);
},
{
closed = 1;
nodes = (
"615 651 CURVE SMOOTH",
"642 651 OFFCURVE",
"663 630 OFFCURVE",
"663 603 CURVE SMOOTH",
"663 576 OFFCURVE",
"642 555 OFFCURVE",
"615 555 CURVE SMOOTH",
"588 555 OFFCURVE",
"567 576 OFFCURVE",
"567 603 CURVE SMOOTH",
"567 630 OFFCURVE",
"588 651 OFFCURVE"
);
},
{
closed = 1;
nodes = (
"730 537 CURVE SMOOTH",
"757 537 OFFCURVE",
"778 516 OFFCURVE",
"778 489 CURVE SMOOTH",
"778 462 OFFCURVE",
"757 441 OFFCURVE",
"730 441 CURVE SMOOTH",
"703 441 OFFCURVE",
"682 462 OFFCURVE",
"682 489 CURVE SMOOTH",
"682 516 OFFCURVE",
"703 537 OFFCURVE"
);
},
{
closed = 1;
nodes = (
"190 225 CURVE SMOOTH",
"217 225 OFFCURVE",
"238 204 OFFCURVE",
"238 177 CURVE SMOOTH",
"238 150 OFFCURVE",
"217 129 OFFCURVE",
"190 129 CURVE SMOOTH",
"163 129 OFFCURVE",
"142 150 OFFCURVE",
"142 177 CURVE SMOOTH",
"142 204 OFFCURVE",
"163 225 OFFCURVE"
);
},
{
closed = 1;
nodes = (
"771 381 CURVE SMOOTH",
"798 381 OFFCURVE",
"819 360 OFFCURVE",
"819 333 CURVE SMOOTH",
"819 306 OFFCURVE",
"798 285 OFFCURVE",
"771 285 CURVE SMOOTH",
"744 285 OFFCURVE",
"723 306 OFFCURVE",
"723 333 CURVE SMOOTH",
"723 360 OFFCURVE",
"744 381 OFFCURVE"
);
},
{
closed = 1;
nodes = (
"148 381 CURVE SMOOTH",
"175 381 OFFCURVE",
"196 360 OFFCURVE",
"196 333 CURVE SMOOTH",
"196 306 OFFCURVE",
"175 285 OFFCURVE",
"148 285 CURVE SMOOTH",
"121 285 OFFCURVE",
"100 306 OFFCURVE",
"100 333 CURVE SMOOTH",
"100 360 OFFCURVE",
"121 381 OFFCURVE"
);
},
{
closed = 1;
nodes = (
"459 69 CURVE SMOOTH",
"486 69 OFFCURVE",
"507 48 OFFCURVE",
"507 21 CURVE SMOOTH",
"507 -6 OFFCURVE",
"486 -27 OFFCURVE",
"459 -27 CURVE SMOOTH",
"432 -27 OFFCURVE",
"411 -6 OFFCURVE",
"411 21 CURVE SMOOTH",
"411 48 OFFCURVE",
"432 69 OFFCURVE"
);
},
{
closed = 1;
nodes = (
"411 644 CURVE SMOOTH",
"411 671 OFFCURVE",
"432 692 OFFCURVE",
"459 692 CURVE SMOOTH",
"486 692 OFFCURVE",
"507 671 OFFCURVE",
"507 644 CURVE SMOOTH",
"507 619 OFFCURVE",
"486 597 OFFCURVE",
"459 597 CURVE SMOOTH",
"432 597 OFFCURVE",
"411 619 OFFCURVE"
);
}
);
width = 919;
}
);
unicode = 25CC;
userData = {
org.fontforge.glyphclass = baseglyph;
};
},
{
glyphname = doublecandrabinduviramadeva;
lastChange = "2016-09-19 15:51:21 +0000";
layers = (
{
layerId = "25D154CF-C470-4D68-A10D-6356F2BE0292";
paths = (
{
closed = 1;
nodes = (
"286 506 CURVE SMOOTH",
"228 506 OFFCURVE",
"186 546 OFFCURVE",
"181 609 CURVE SMOOTH",
"177 655 OFFCURVE",
"168 661 OFFCURVE",
"156 661 CURVE SMOOTH",
"133 661 OFFCURVE",
"105 636 OFFCURVE",
"105 592 CURVE SMOOTH",
"105 517 OFFCURVE",
"183 465 OFFCURVE",
"286 465 CURVE SMOOTH",
"388 465 OFFCURVE",
"466 517 OFFCURVE",
"466 592 CURVE SMOOTH",
"466 636 OFFCURVE",
"438 661 OFFCURVE",
"415 661 CURVE SMOOTH",
"403 661 OFFCURVE",
"394 655 OFFCURVE",
"390 609 CURVE SMOOTH",
"385 546 OFFCURVE",
"342 506 OFFCURVE"
);
},
{
closed = 1;
nodes = (
"236 644 CURVE SMOOTH",
"236 622 OFFCURVE",
"267 590 OFFCURVE",
"286 590 CURVE SMOOTH",
"307 590 OFFCURVE",
"338 622 OFFCURVE",
"338 644 CURVE SMOOTH",
"338 665 OFFCURVE",
"307 698 OFFCURVE",
"286 698 CURVE SMOOTH",
"266 698 OFFCURVE",
"236 665 OFFCURVE"
);
},
{
closed = 1;
nodes = (
"477 -149 CURVE SMOOTH",
"494 -149 OFFCURVE",
"525 -119 OFFCURVE",
"525 -100 CURVE SMOOTH",
"525 -94 OFFCURVE",
"522 -90 OFFCURVE",
"514 -84 CURVE SMOOTH",
"285 78 LINE",
"217 37 LINE SMOOTH",
"208 31 OFFCURVE",
"202 26 OFFCURVE",
"202 19 CURVE SMOOTH",
"202 4 OFFCURVE",
"227 -29 OFFCURVE",
"241 -29 CURVE SMOOTH",
"248 -29 OFFCURVE",
"254 -27 OFFCURVE",
"264 -13 CURVE SMOOTH",
"286 17 LINE",
"457 -139 LINE SMOOTH",
"465 -146 OFFCURVE",
"471 -149 OFFCURVE"
);
},
{
closed = 1;
nodes = (
"236 346 CURVE SMOOTH",
"236 324 OFFCURVE",
"267 292 OFFCURVE",
"286 292 CURVE SMOOTH",
"307 292 OFFCURVE",
"338 324 OFFCURVE",
"338 346 CURVE SMOOTH",
"338 367 OFFCURVE",
"307 400 OFFCURVE",
"286 400 CURVE SMOOTH",
"266 400 OFFCURVE",
"236 367 OFFCURVE"
);
},
{
closed = 1;
nodes = (
"286 208 CURVE SMOOTH",
"228 208 OFFCURVE",
"186 248 OFFCURVE",
"181 311 CURVE SMOOTH",
"177 357 OFFCURVE",
"168 363 OFFCURVE",
"156 363 CURVE SMOOTH",
"133 363 OFFCURVE",
"105 338 OFFCURVE",
"105 294 CURVE SMOOTH",
"105 219 OFFCURVE",
"183 167 OFFCURVE",
"286 167 CURVE SMOOTH",
"388 167 OFFCURVE",
"466 219 OFFCURVE",
"466 294 CURVE SMOOTH",
"466 338 OFFCURVE",
"438 363 OFFCURVE",
"415 363 CURVE SMOOTH",
"403 363 OFFCURVE",
"394 357 OFFCURVE",
"390 311 CURVE SMOOTH",
"385 248 OFFCURVE",
"342 208 OFFCURVE"
);
}
);
width = 571;
}
);
unicode = A8F4;
userData = {
org.fontforge.glyphclass = baseglyph;
};
},
{
glyphname = ecandralongsigndeva;
lastChange = "2016-09-19 15:51:21 +0000";
layers = (
{
anchors = (
{
name = "_Lohit-Devanagari-DVAnchor3";
position = "{-137, 664}";
}
);
layerId = "25D154CF-C470-4D68-A10D-6356F2BE0292";
paths = (
{
closed = 1;
nodes = (
"26 726 LINE",
"-313 726 LINE",
"-313 776 LINE",
"26 776 LINE"
);
},
{
closed = 1;
nodes = (
"-143 860 CURVE SMOOTH",
"-201 860 OFFCURVE",
"-243 900 OFFCURVE",
"-248 963 CURVE SMOOTH",
"-252 1009 OFFCURVE",
"-261 1015 OFFCURVE",
"-273 1015 CURVE SMOOTH",
"-296 1015 OFFCURVE",
"-324 990 OFFCURVE",
"-324 946 CURVE SMOOTH",
"-324 871 OFFCURVE",
"-246 819 OFFCURVE",
"-143 819 CURVE SMOOTH",
"-41 819 OFFCURVE",
"37 871 OFFCURVE",
"37 946 CURVE SMOOTH",
"37 990 OFFCURVE",
"9 1015 OFFCURVE",
"-14 1015 CURVE SMOOTH",
"-26 1015 OFFCURVE",
"-35 1009 OFFCURVE",
"-39 963 CURVE SMOOTH",
"-44 900 OFFCURVE",
"-87 860 OFFCURVE"
);
}
);
width = 0;
}
);
unicode = 0955;
userData = {
org.fontforge.glyphclass = mark;
};
},
{
glyphname = ecandrasigndeva;
lastChange = "2016-09-19 15:51:21 +0000";
layers = (
{
anchors = (
{
name = "Lohit-Devanagari-DVAnchor2";
position = "{-143, 900}";
},
{
name = "_Lohit-Devanagari-DVAnchor3";
position = "{-143, 666}";
}
);
layerId = "25D154CF-C470-4D68-A10D-6356F2BE0292";
paths = (
{
closed = 1;
nodes = (
"-143 801 CURVE SMOOTH",
"-201 801 OFFCURVE",
"-243 841 OFFCURVE",
"-248 904 CURVE SMOOTH",
"-252 950 OFFCURVE",
"-261 956 OFFCURVE",
"-273 956 CURVE SMOOTH",
"-296 956 OFFCURVE",
"-324 931 OFFCURVE",
"-324 887 CURVE SMOOTH",
"-324 812 OFFCURVE",
"-246 760 OFFCURVE",
"-143 760 CURVE SMOOTH",
"-41 760 OFFCURVE",
"37 812 OFFCURVE",
"37 887 CURVE SMOOTH",
"37 931 OFFCURVE",
"9 956 OFFCURVE",
"-14 956 CURVE SMOOTH",
"-26 956 OFFCURVE",
"-35 950 OFFCURVE",
"-39 904 CURVE SMOOTH",
"-44 841 OFFCURVE",
"-87 801 OFFCURVE"
);
}
);
width = 0;
}
);
unicode = 0945;
userData = {
org.fontforge.glyphclass = mark;
};
},
{
glyphname = edeva;
lastChange = "2016-09-19 15:51:21 +0000";
layers = (
{
anchors = (
{
name = "Lohit-Devanagari-DVAnchor3";
position = "{279, 664}";
}
);
layerId = "25D154CF-C470-4D68-A10D-6356F2BE0292";
paths = (
{
closed = 1;
nodes = (
"271 111 LINE SMOOTH",
"355 64 OFFCURVE",
"386 39 OFFCURVE",
"386 -13 CURVE SMOOTH",
"386 -51 OFFCURVE",
"357 -79.762 OFFCURVE",
"315 -79.762 CURVE SMOOTH",
"258 -79.762 OFFCURVE",
"248.802 -46.324 OFFCURVE",
"233 -46.324 CURVE SMOOTH",
"226.307 -46.324 OFFCURVE",
"215.587 -52.323 OFFCURVE",
"215.587 -69.402 CURVE SMOOTH",
"215.587 -115.742 OFFCURVE",
"257.769 -150.943 OFFCURVE",
"303.162 -150.943 CURVE SMOOTH",
"397 -150.943 OFFCURVE",
"443 -76 OFFCURVE",
"443 2 CURVE SMOOTH",
"443 96.085 OFFCURVE",
"388 141 OFFCURVE",
"289 194 CURVE SMOOTH",
"210.22 236.175 OFFCURVE",
"175 267 OFFCURVE",
"175 402 CURVE SMOOTH",
"175 621 LINE",
"383 621 LINE",
"383 447 LINE SMOOTH",
"383 338 OFFCURVE",
"327 289 OFFCURVE",
"327 280 CURVE SMOOTH",
"327 271 OFFCURVE",
"344 257 OFFCURVE",
"355 257 CURVE SMOOTH",
"377 257 OFFCURVE",
"468 343 OFFCURVE",
"468 469 CURVE SMOOTH",
"468 621 LINE",
"571 621 LINE",
"571 666 LINE",
"-13 666 LINE",
"-13 621 LINE",
"90 621 LINE",
"90 373 LINE SMOOTH",
"90 246 OFFCURVE",
"140 185 OFFCURVE",
"232 133 CURVE SMOOTH"
);
}
);
width = 558;
}
);
unicode = 090F;
userData = {
org.fontforge.glyphclass = baseglyph;
};
},
{
glyphname = eight;
lastChange = "2016-09-19 15:51:21 +0000";
layers = (
{
layerId = "25D154CF-C470-4D68-A10D-6356F2BE0292";
paths = (
{
closed = 1;
nodes = (
"504 511 CURVE SMOOTH",
"504 634 OFFCURVE",
"403 682 OFFCURVE",
"279 682 CURVE SMOOTH",
"133 682 OFFCURVE",
"66 589 OFFCURVE",
"66 494 CURVE SMOOTH",
"66 414 OFFCURVE",
"103 366 OFFCURVE",
"173 328 CURVE",
"112 292 OFFCURVE",
"50 235 OFFCURVE",
"50 153 CURVE SMOOTH",
"50 32 OFFCURVE",
"152 -15 OFFCURVE",
"278 -15 CURVE SMOOTH",
"430 -15 OFFCURVE",
"521 57 OFFCURVE",
"521 166 CURVE SMOOTH",
"521 243 OFFCURVE",
"479 301 OFFCURVE",
"390 347 CURVE",
"447 381 OFFCURVE",
"504 437 OFFCURVE"
);
},
{
closed = 1;
nodes = (
"317 264 LINE SMOOTH",
"387 233 OFFCURVE",
"419 205 OFFCURVE",
"419 141 CURVE SMOOTH",
"419 74 OFFCURVE",
"360 36 OFFCURVE",
"279 36 CURVE SMOOTH",
"196 36 OFFCURVE",
"148 87 OFFCURVE",
"148 156 CURVE SMOOTH",
"148 202 OFFCURVE",
"171 257 OFFCURVE",
"218 307 CURVE"
);
},
{
closed = 1;
nodes = (
"279 630 CURVE SMOOTH",
"360 630 OFFCURVE",
"404 580 OFFCURVE",
"404 512 CURVE SMOOTH",
"404 467 OFFCURVE",
"384 417 OFFCURVE",
"343 369 CURVE",
"284 396 LINE SMOOTH",
"193 436 OFFCURVE",
"163 471 OFFCURVE",
"163 521 CURVE SMOOTH",
"163 577 OFFCURVE",
"210 630 OFFCURVE"
);
}
);
width = 631;
}
);
unicode = 0038;
userData = {
org.fontforge.glyphclass = baseglyph;
};
},
{
glyphname = eightcombiningdigitdeva;
lastChange = "2016-09-19 15:51:21 +0000";
layers = (
{
anchors = (
{
name = "_Lohit-Devanagari-DVAnchor3";
position = "{-137, 681}";
}
);
layerId = "25D154CF-C470-4D68-A10D-6356F2BE0292";
paths = (
{
closed = 1;
nodes = (
"-131.5 764.6 CURVE SMOOTH",
"-169.492 764.6 OFFCURVE",
"-199.5 779.245 OFFCURVE",
"-199.5 828.699 CURVE SMOOTH",
"-199.5 877.405 OFFCURVE",
"-127.234 936.925 OFFCURVE",
"-38.793 1008.784 CURVE SMOOTH",
"-38.653 1008.897 LINE",
"-38.525 1009.025 LINE SMOOTH",
"-35.615 1011.936 OFFCURVE",
"-35.3 1015.082 OFFCURVE",
"-35.3 1016.45 CURVE SMOOTH",
"-35.3 1024.948 OFFCURVE",
"-46.84 1038.9 OFFCURVE",
"-53.899 1038.9 CURVE SMOOTH",
"-56.484 1038.9 OFFCURVE",
"-58.389 1037.632 OFFCURVE",
"-59.834 1036.562 CURVE SMOOTH",
"-190.479 939.76 OFFCURVE",
"-254.35 900.049 OFFCURVE",
"-254.35 828.699 CURVE SMOOTH",
"-254.35 764.232 OFFCURVE",
"-201.088 724 OFFCURVE",
"-137 724 CURVE SMOOTH",
"-87.052 724 OFFCURVE",
"-46.992 745.117 OFFCURVE",
"-25.427 761.567 CURVE SMOOTH",
"-7.392 775.324 OFFCURVE",
"-3.699 778.232 OFFCURVE",
"-3.699 783.6 CURVE SMOOTH",
"-3.699 790.866 OFFCURVE",
"-10.97 808.6 OFFCURVE",
"-20.949 808.6 CURVE SMOOTH",
"-35.524 808.6 OFFCURVE",
"-65.61 764.6 OFFCURVE"
);
}
);
width = 0;
}
);
unicode = A8E8;
userData = {
org.fontforge.glyphclass = mark;
};
},
{
glyphname = eightdeva;
lastChange = "2016-09-19 15:51:21 +0000";
layers = (
{
layerId = "25D154CF-C470-4D68-A10D-6356F2BE0292";
paths = (
{
closed = 1;
nodes = (
"165 184 CURVE SMOOTH",
"165 314 OFFCURVE",
"294 487 OFFCURVE",
"454 617 CURVE",
"458 621 OFFCURVE",
"458 624 OFFCURVE",
"458 626 CURVE SMOOTH",
"458 638 OFFCURVE",
"443 655 OFFCURVE",
"436 655 CURVE SMOOTH",
"433 655 OFFCURVE",
"432 654 OFFCURVE",
"429 652 CURVE SMOOTH",
"354 598 OFFCURVE",
"78 391 OFFCURVE",
"78 184 CURVE SMOOTH",
"78 71 OFFCURVE",
"171 0 OFFCURVE",
"285 0 CURVE SMOOTH",
"374 0 OFFCURVE",
"444 40 OFFCURVE",
"484 67 CURVE",
"513 90 OFFCURVE",
"521 97 OFFCURVE",
"521 102 CURVE SMOOTH",
"521 114 OFFCURVE",
"507 132 OFFCURVE",
"496 132 CURVE SMOOTH",
"478 132 OFFCURVE",
"416 52 OFFCURVE",
"295 52 CURVE SMOOTH",
"224 52 OFFCURVE",
"165 90 OFFCURVE"
);
}
);
width = 592;
}
);
unicode = 096E;
userData = {
org.fontforge.glyphclass = baseglyph;
};
},
{
glyphname = eightdeva.np;
lastChange = "2016-09-19 15:51:21 +0000";
layers = (
{
layerId = "25D154CF-C470-4D68-A10D-6356F2BE0292";
paths = (
{
closed = 1;
nodes = (
"548 578 LINE",
"66 578 LINE",
"66 533 LINE",
"548 533 LINE"
);
},
{
closed = 1;
nodes = (
"185 184 CURVE SMOOTH",
"185 314 OFFCURVE",
"294 407 OFFCURVE",
"454 537 CURVE",
"458 541 OFFCURVE",
"458 544 OFFCURVE",
"458 546 CURVE SMOOTH",
"458 558 OFFCURVE",
"438 565 OFFCURVE",
"431 565 CURVE SMOOTH",
"428 565 OFFCURVE",
"427 564 OFFCURVE",
"424 562 CURVE SMOOTH",
"349 508 OFFCURVE",
"98 361 OFFCURVE",
"98 184 CURVE SMOOTH",
"98 71 OFFCURVE",
"181 0 OFFCURVE",
"295 0 CURVE SMOOTH",
"384 0 OFFCURVE",
"444 40 OFFCURVE",
"484 67 CURVE",
"513 90 OFFCURVE",
"521 97 OFFCURVE",
"521 102 CURVE SMOOTH",
"521 114 OFFCURVE",
"507 132 OFFCURVE",
"496 132 CURVE SMOOTH",
"478 132 OFFCURVE",
"426 52 OFFCURVE",
"305 52 CURVE SMOOTH",
"234 52 OFFCURVE",
"185 90 OFFCURVE"
);
}
);
width = 592;
}
);
userData = {
org.fontforge.glyphclass = baseligature;
};
},
{
glyphname = ellipsis;
lastChange = "2016-09-19 15:51:21 +0000";
layers = (
{
layerId = "25D154CF-C470-4D68-A10D-6356F2BE0292";
paths = (
{
closed = 1;
nodes = (
"31 47 CURVE SMOOTH",
"31 24 OFFCURVE",
"65 -13 OFFCURVE",
"87 -13 CURVE SMOOTH",
"109 -13 OFFCURVE",
"146 24 OFFCURVE",
"146 47 CURVE SMOOTH",
"146 73 OFFCURVE",
"109 109 OFFCURVE",
"87 109 CURVE SMOOTH",
"65 109 OFFCURVE",
"31 73 OFFCURVE"
);
},
{
closed = 1;
nodes = (
"209 47 CURVE SMOOTH",
"209 24 OFFCURVE",
"243 -13 OFFCURVE",
"265 -13 CURVE SMOOTH",
"287 -13 OFFCURVE",
"322 24 OFFCURVE",
"322 47 CURVE SMOOTH",
"322 73 OFFCURVE",
"287 109 OFFCURVE",
"265 109 CURVE SMOOTH",
"242 109 OFFCURVE",
"209 73 OFFCURVE"
);
},
{
closed = 1;
nodes = (
"384 47 CURVE SMOOTH",
"384 24 OFFCURVE",
"421 -13 OFFCURVE",
"442 -13 CURVE SMOOTH",
"465 -13 OFFCURVE",
"500 24 OFFCURVE",
"500 47 CURVE SMOOTH",
"500 73 OFFCURVE",
"465 109 OFFCURVE",
"442 109 CURVE SMOOTH",
"420 109 OFFCURVE",
"384 73 OFFCURVE"
);
}
);
width = 587;
}
);
unicode = 2026;
userData = {
org.fontforge.glyphclass = baseglyph;
};
},
{
glyphname = emdash;
lastChange = "2016-09-19 15:51:21 +0000";
layers = (
{
layerId = "25D154CF-C470-4D68-A10D-6356F2BE0292";
paths = (
{
closed = 1;
nodes = (
"772 243 LINE",
"790 258 OFFCURVE",
"797 286 OFFCURVE",
"797 309 CURVE",
"71 299 LINE",
"53 284 OFFCURVE",
"47 256 OFFCURVE",
"47 234 CURVE"
);
}
);
width = 932;
}
);
unicode = 2014;
userData = {
org.fontforge.glyphclass = baseglyph;
};
},
{
glyphname = endash;
lastChange = "2016-09-19 15:51:21 +0000";
layers = (
{
layerId = "25D154CF-C470-4D68-A10D-6356F2BE0292";
paths = (
{
closed = 1;
nodes = (
"652 243 LINE",
"671 258 OFFCURVE",
"678 286 OFFCURVE",
"678 309 CURVE",
"71 299 LINE",
"53 284 OFFCURVE",
"47 256 OFFCURVE",
"47 234 CURVE"
);
}
);
width = 798;
}
);
unicode = 2013;
userData = {
org.fontforge.glyphclass = baseglyph;
};
},
{
glyphname = eprishthamatrasigndeva;
lastChange = "2016-09-19 15:51:21 +0000";
layers = (
{
layerId = "25D154CF-C470-4D68-A10D-6356F2BE0292";
paths = (
{
closed = 1;
nodes = (
"90 666 LINE",
"90 0 LINE",
"177 0 LINE",
"177 621 LINE",
"280 621 LINE",
"280 666 LINE"
);
}
);
width = 267;
}
);
unicode = 094E;
userData = {
org.fontforge.glyphclass = baseglyph;
};
},
{
glyphname = equal;
lastChange = "2016-09-19 15:51:21 +0000";
layers = (
{
layerId = "25D154CF-C470-4D68-A10D-6356F2BE0292";
paths = (
{
closed = 1;
nodes = (
"91 196 LINE",
"484 196 LINE",
"484 266 LINE",
"91 266 LINE"
);
},
{
closed = 1;
nodes = (
"91 397 LINE",
"484 397 LINE",
"484 466 LINE",
"91 466 LINE"
);
}
);
width = 636;
}
);
unicode = 003D;
userData = {
org.fontforge.glyphclass = baseglyph;
};
},
{
glyphname = eshortsigndeva;
lastChange = "2016-09-19 15:51:21 +0000";
layers = (
{
anchors = (
{
name = "Lohit-Devanagari-DVAnchor2";
position = "{-70, 880}";
},
{
name = "_Lohit-Devanagari-DVAnchor3";
position = "{-143, 665}";
}
);
layerId = "25D154CF-C470-4D68-A10D-6356F2BE0292";
paths = (
{
closed = 1;
nodes = (
"-371 915 CURVE SMOOTH",
"-371 949 OFFCURVE",
"-350 968 OFFCURVE",
"-350 976 CURVE SMOOTH",
"-350 984 OFFCURVE",
"-356 987 OFFCURVE",
"-368 987 CURVE SMOOTH",
"-409 987 OFFCURVE",
"-451 955 OFFCURVE",
"-451 903 CURVE SMOOTH",
"-451 732 OFFCURVE",
"-206 845 OFFCURVE",
"-176 666 CURVE",
"-110 666 LINE",
"-140 885 OFFCURVE",
"-371 789 OFFCURVE"
);
}
);
width = 0;
}
);
unicode = 0946;
userData = {
org.fontforge.glyphclass = mark;
};
},
{
glyphname = esign_ra_virama.alt1;
lastChange = "2016-09-19 15:51:21 +0000";
layers = (
{
anchors = (
{
name = "_Lohit-Devanagari-DVAnchor3";
position = "{-143, 664}";
}
);
layerId = "25D154CF-C470-4D68-A10D-6356F2BE0292";
paths = (
{
closed = 1;
nodes = (
"-179 666 LINE",
"-107 666 LINE",
"-165 727 OFFCURVE",
"-174 773 OFFCURVE",
"-174 799 CURVE SMOOTH",
"-174 861 OFFCURVE",
"-128 886 OFFCURVE",
"-91 886 CURVE SMOOTH",
"-34 886 OFFCURVE",
"-25 861 OFFCURVE",
"-6 861 CURVE SMOOTH",
"3 861 OFFCURVE",
"7 870 OFFCURVE",
"7 886 CURVE SMOOTH",
"7 922 OFFCURVE",
"-27 945 OFFCURVE",
"-81 945 CURVE SMOOTH",
"-134 945 OFFCURVE",
"-210 915 OFFCURVE",
"-224 828 CURVE",
"-340 990 LINE",
"-344 995 OFFCURVE",
"-348 997 OFFCURVE",
"-355 997 CURVE SMOOTH",
"-379 997 OFFCURVE",
"-422 964 OFFCURVE",
"-422 943 CURVE SMOOTH",
"-422 938 OFFCURVE",
"-420 933 OFFCURVE",
"-416 929 CURVE"
);
}
);
width = 0;
}
);
userData = {
org.fontforge.glyphclass = mark;
};
},
{
glyphname = esign_ra_virama_anusvara;
lastChange = "2016-09-19 15:51:21 +0000";
layers = (
{
anchors = (
{
name = "_Lohit-Devanagari-DVAnchor3";
position = "{-143, 664}";
}
);
layerId = "25D154CF-C470-4D68-A10D-6356F2BE0292";
paths = (
{
closed = 1;
nodes = (
"-179 666 LINE",
"-107 666 LINE",
"-165 727 OFFCURVE",
"-174 773 OFFCURVE",
"-174 799 CURVE SMOOTH",
"-174 861 OFFCURVE",
"-128 886 OFFCURVE",
"-91 886 CURVE SMOOTH",
"-34 886 OFFCURVE",
"-25 861 OFFCURVE",
"-6 861 CURVE SMOOTH",
"3 861 OFFCURVE",
"7 870 OFFCURVE",
"7 886 CURVE SMOOTH",
"7 922 OFFCURVE",
"-27 945 OFFCURVE",
"-81 945 CURVE SMOOTH",
"-134 945 OFFCURVE",
"-210 915 OFFCURVE",
"-224 828 CURVE",
"-340 990 LINE",
"-344 995 OFFCURVE",
"-348 997 OFFCURVE",
"-355 997 CURVE SMOOTH",
"-379 997 OFFCURVE",
"-422 964 OFFCURVE",
"-422 943 CURVE SMOOTH",
"-422 938 OFFCURVE",
"-420 933 OFFCURVE",
"-416 929 CURVE"
);
},
{
closed = 1;
nodes = (
"-119 786 CURVE SMOOTH",
"-119 766 OFFCURVE",
"-91 737 OFFCURVE",
"-74 737 CURVE SMOOTH",
"-55 737 OFFCURVE",
"-27 766 OFFCURVE",
"-27 786 CURVE SMOOTH",
"-27 805 OFFCURVE",
"-55 835 OFFCURVE",
"-74 835 CURVE SMOOTH",
"-92 835 OFFCURVE",
"-119 805 OFFCURVE"
);
}
);
width = 0;
}
);
userData = {
org.fontforge.glyphclass = mark;
};
},
{
glyphname = esigndeva;
lastChange = "2016-09-19 15:51:21 +0000";
layers = (
{
anchors = (
{
name = "Lohit-Devanagari-DVAnchor2";
position = "{-150, 820}";
},
{
name = "_Lohit-Devanagari-DVAnchor3";
position = "{-143, 664}";
}
);
layerId = "25D154CF-C470-4D68-A10D-6356F2BE0292";
paths = (
{
closed = 1;
nodes = (
"-316 935 CURVE SMOOTH",
"-243 935 OFFCURVE",
"-200 800 OFFCURVE",
"-183 666 CURVE",
"-106 666 LINE",
"-146 914 OFFCURVE",
"-220 975 OFFCURVE",
"-326 975 CURVE SMOOTH",
"-397 975 OFFCURVE",
"-440 940 OFFCURVE",
"-440 896 CURVE SMOOTH",
"-440 847 OFFCURVE",
"-399 822 OFFCURVE",
"-361 822 CURVE SMOOTH",
"-353 822 OFFCURVE",
"-345 824 OFFCURVE",
"-345 831 CURVE SMOOTH",
"-345 839 OFFCURVE",
"-362 854 OFFCURVE",
"-362 891 CURVE SMOOTH",
"-362 914 OFFCURVE",
"-348 935 OFFCURVE"
);
}
);
width = 0;
}
);
unicode = 0947;
userData = {
org.fontforge.glyphclass = mark;
};
},
{
glyphname = esigndeva_anusvaradeva;
lastChange = "2016-09-19 15:51:21 +0000";
layers = (
{
anchors = (
{
name = "_Lohit-Devanagari-DVAnchor3";
position = "{-143, 664}";
}
);
layerId = "25D154CF-C470-4D68-A10D-6356F2BE0292";
paths = (
{
closed = 1;
nodes = (
"-316 935 CURVE SMOOTH",
"-243 935 OFFCURVE",
"-200 800 OFFCURVE",
"-183 666 CURVE",
"-106 666 LINE",
"-146 914 OFFCURVE",
"-220 975 OFFCURVE",
"-326 975 CURVE SMOOTH",
"-397 975 OFFCURVE",
"-440 940 OFFCURVE",
"-440 896 CURVE SMOOTH",
"-440 847 OFFCURVE",
"-399 822 OFFCURVE",
"-361 822 CURVE SMOOTH",
"-353 822 OFFCURVE",
"-345 824 OFFCURVE",
"-345 831 CURVE SMOOTH",
"-345 839 OFFCURVE",
"-362 854 OFFCURVE",
"-362 891 CURVE SMOOTH",
"-362 914 OFFCURVE",
"-348 935 OFFCURVE"
);
},
{
closed = 1;
nodes = (
"-114 912 CURVE SMOOTH",
"-114 890 OFFCURVE",
"-83 858 OFFCURVE",
"-64 858 CURVE SMOOTH",
"-43 858 OFFCURVE",
"-12 890 OFFCURVE",
"-12 912 CURVE SMOOTH",
"-12 933 OFFCURVE",
"-43 966 OFFCURVE",
"-64 966 CURVE SMOOTH",
"-84 966 OFFCURVE",
"-114 933 OFFCURVE"
);
}
);
width = 0;
}
);
userData = {
org.fontforge.glyphclass = mark;
};
},
{
glyphname = exclam;
lastChange = "2016-09-19 15:51:21 +0000";
layers = (
{
layerId = "25D154CF-C470-4D68-A10D-6356F2BE0292";
paths = (
{
closed = 1;
nodes = (
"57 47 CURVE SMOOTH",
"57 24 OFFCURVE",
"93 -13 OFFCURVE",
"115 -13 CURVE SMOOTH",
"137 -13 OFFCURVE",
"172 24 OFFCURVE",
"172 47 CURVE SMOOTH",
"172 73 OFFCURVE",
"137 109 OFFCURVE",
"115 109 CURVE SMOOTH",
"92 109 OFFCURVE",
"57 73 OFFCURVE"
);
},
{
closed = 1;
nodes = (
"115 712 CURVE SMOOTH",
"89 712 OFFCURVE",
"70 704 OFFCURVE",
"55 688 CURVE",
"55 615 OFFCURVE",
"72 411 OFFCURVE",
"90 226 CURVE SMOOTH",
"93 198 OFFCURVE",
"101 184 OFFCURVE",
"115 184 CURVE SMOOTH",
"128 184 OFFCURVE",
"134 198 OFFCURVE",
"137 226 CURVE SMOOTH",
"155 411 OFFCURVE",
"172 615 OFFCURVE",
"172 688 CURVE",
"157 704 OFFCURVE",
"138 712 OFFCURVE"
);
}
);
width = 252;
}
);
unicode = 0021;
userData = {
org.fontforge.glyphclass = baseglyph;
};
},
{
glyphname = five;
lastChange = "2016-09-19 15:51:21 +0000";
layers = (
{
layerId = "25D154CF-C470-4D68-A10D-6356F2BE0292";
paths = (
{
closed = 1;
nodes = (
"401 179 CURVE SMOOTH",
"401 90 OFFCURVE",
"332 46 OFFCURVE",
"266 46 CURVE SMOOTH",
"202 46 OFFCURVE",
"144 81 OFFCURVE",
"144 145 CURVE SMOOTH",
"144 194 OFFCURVE",
"172 215 OFFCURVE",
"172 224 CURVE SMOOTH",
"172 235 OFFCURVE",
"166 235 OFFCURVE",
"152 235 CURVE SMOOTH",
"96 235 OFFCURVE",
"53 196 OFFCURVE",
"53 137 CURVE SMOOTH",
"53 37 OFFCURVE",
"159 -13 OFFCURVE",
"268 -13 CURVE SMOOTH",
"409 -13 OFFCURVE",
"502 60 OFFCURVE",
"502 179 CURVE SMOOTH",
"502 284 OFFCURVE",
"434 385 OFFCURVE",
"267 385 CURVE SMOOTH",
"233 385 OFFCURVE",
"195 382 OFFCURVE",
"152 372 CURVE",
"165 582 LINE",
"437 582 LINE",
"460 601 OFFCURVE",
"468 637 OFFCURVE",
"468 666 CURVE",
"107 666 LINE",
"90 357 LINE",
"110 322 LINE",
"147 329 OFFCURVE",
"179 334 OFFCURVE",
"209 334 CURVE SMOOTH",
"376 334 OFFCURVE",
"401 238 OFFCURVE"
);
}
);
width = 610;
}
);
unicode = 0035;
userData = {
org.fontforge.glyphclass = baseglyph;
};
},
{
glyphname = fivecombiningdigitdeva;
lastChange = "2016-09-19 15:51:21 +0000";
layers = (
{
anchors = (
{
name = "_Lohit-Devanagari-DVAnchor3";
position = "{-137, 679}";
}
);
layerId = "25D154CF-C470-4D68-A10D-6356F2BE0292";
paths = (
{
closed = 0;
nodes = (
"-85.62 876.459 LINE",
"-87.476 888.831 OFFCURVE",
"-88.45 901.774 OFFCURVE",
"-88.45 915.3 CURVE SMOOTH",
"-88.45 922.3 LINE",
"-93.35 918.625 LINE",
"-94.05 918.1 LINE SMOOTH",
"-104.851 910 OFFCURVE",
"-110.791 902.232 OFFCURVE",
"-112.622 894.809 CURVE SMOOTH",
"-115.96 881.271 OFFCURVE",
"-104.902 872.215 OFFCURVE",
"-92.162 869.417 CURVE"
);
},
{
closed = 1;
nodes = (
"-219.351 978.2 CURVE SMOOTH",
"-219.351 1029.553 OFFCURVE",
"-199.978 1063.965 OFFCURVE",
"-188.362 1087.75 CURVE SMOOTH",
"-187.069 1090.337 OFFCURVE",
"-186.9 1092.333 OFFCURVE",
"-186.9 1093.15 CURVE SMOOTH",
"-186.9 1103.103 OFFCURVE",
"-202.534 1108.2 OFFCURVE",
"-208 1108.2 CURVE SMOOTH",
"-214.576 1108.2 OFFCURVE",
"-218.859 1101.372 OFFCURVE",
"-223.418 1095.294 CURVE SMOOTH",
"-241.033 1073.274 OFFCURVE",
"-273.65 1028.619 OFFCURVE",
"-273.65 978.75 CURVE SMOOTH",
"-273.65 897.151 OFFCURVE",
"-207.077 857 OFFCURVE",
"-142 857 CURVE SMOOTH",
"-136.779 857 OFFCURVE",
"-130.765 857.242 OFFCURVE",
"-124.308 857.821 CURVE",
"-106.997 780.552 OFFCURVE",
"-40.018 708.5 OFFCURVE",
"-11.65 708.5 CURVE SMOOTH",
"-3.145 708.5 OFFCURVE",
"-0.45 720.818 OFFCURVE",
"-0.45 725.75 CURVE SMOOTH",
"-0.45 729.726 OFFCURVE",
"-0.678 734.081 OFFCURVE",
"-8.275 740.51 CURVE SMOOTH",
"-44.588 771.871 OFFCURVE",
"-72.057 813.528 OFFCURVE",
"-83.12 866.062 CURVE",
"-73.777 869.207 OFFCURVE",
"-64.915 873.335 OFFCURVE",
"-57.434 878.687 CURVE",
"-44.238 886.811 OFFCURVE",
"-35.65 901.467 OFFCURVE",
"-35.65 918.8 CURVE SMOOTH",
"-35.65 923.263 LINE",
"-35.854 923.214 LINE",
"-38.03 946.704 OFFCURVE",
"-57.422 965.2 OFFCURVE",
"-82.05 965.2 CURVE SMOOTH",
"-108.384 965.2 OFFCURVE",
"-127.675 944.043 OFFCURVE",
"-128.427 896.414 CURVE",
"-132.791 896.073 OFFCURVE",
"-137.312 895.9 OFFCURVE",
"-142 895.9 CURVE SMOOTH",
"-188.425 895.9 OFFCURVE",
"-219.351 928.153 OFFCURVE"
);
}
);
width = 0;
}
);
unicode = A8E5;
userData = {
org.fontforge.glyphclass = mark;
};
},
{
glyphname = fivedeva;
lastChange = "2016-09-19 15:51:21 +0000";
layers = (
{
layerId = "25D154CF-C470-4D68-A10D-6356F2BE0292";
paths = (
{
closed = 1;
nodes = (
"354 282 CURVE SMOOTH",
"354 122 OFFCURVE",
"507 -48 OFFCURVE",
"560 -48 CURVE SMOOTH",
"568 -48 OFFCURVE",
"574 -32 OFFCURVE",
"574 -23 CURVE SMOOTH",
"574 -16 OFFCURVE",
"575 -12 OFFCURVE",
"562 -1 CURVE SMOOTH",
"474 75 OFFCURVE",
"414 184 OFFCURVE",
"414 328 CURVE",
"354 283 OFFCURVE",
"388 249 OFFCURVE",
"432 249 CURVE SMOOTH",
"476 249 OFFCURVE",
"510 283 OFFCURVE",
"510 328 CURVE SMOOTH",
"510 371 OFFCURVE",
"476 406 OFFCURVE",
"432 406 CURVE SMOOTH",
"388 406 OFFCURVE",
"354 371 OFFCURVE"
);
},
{
closed = 1;
nodes = (
"233 638 CURVE SMOOTH",
"235 642 OFFCURVE",
"235 644 OFFCURVE",
"235 645 CURVE SMOOTH",
"235 656 OFFCURVE",
"212 666 OFFCURVE",
"203 666 CURVE SMOOTH",
"196 666 OFFCURVE",
"189 657 OFFCURVE",
"180 645 CURVE SMOOTH",
"148 605 OFFCURVE",
"90 525 OFFCURVE",
"90 437 CURVE SMOOTH",
"90 293 OFFCURVE",
"207 222 OFFCURVE",
"323 222 CURVE SMOOTH",
"388 222 OFFCURVE",
"510 243 OFFCURVE",
"510 328 CURVE",
"453 314 LINE",
"418 292 OFFCURVE",
"376 280 OFFCURVE",
"323 280 CURVE SMOOTH",
"235 280 OFFCURVE",
"176 342 OFFCURVE",
"176 436 CURVE SMOOTH",
"176 531 OFFCURVE",
"212 595 OFFCURVE"
);
}
);
width = 592;
}
);
unicode = 096B;
userData = {
org.fontforge.glyphclass = baseglyph;
};
},
{
color = (0,0,255,1);
glyphname = fivedeva.np;
lastChange = "2016-09-19 15:51:21 +0000";
layers = (
{
layerId = "25D154CF-C470-4D68-A10D-6356F2BE0292";
paths = (
{
closed = 1;
nodes = (
"412 73 CURVE",
"427 123 OFFCURVE",
"435 168 OFFCURVE",
"435 210 CURVE SMOOTH",
"435 245 OFFCURVE",
"430 276 OFFCURVE",
"419 306 CURVE",
"390 285 OFFCURVE",
"352 273 OFFCURVE",
"313 273 CURVE SMOOTH",
"195 273 OFFCURVE",
"100 371 OFFCURVE",
"100 493 CURVE SMOOTH",
"100 576 OFFCURVE",
"118 652 OFFCURVE",
"153 712 CURVE",
"213 686 LINE",
"182 632 OFFCURVE",
"166 565 OFFCURVE",
"166 493 CURVE SMOOTH",
"166 403 OFFCURVE",
"231 333 OFFCURVE",
"313 333 CURVE SMOOTH",
"345 333 OFFCURVE",
"375 341 OFFCURVE",
"399 360 CURVE",
"391 379 OFFCURVE",
"386 417 OFFCURVE",
"386 473 CURVE SMOOTH",
"386 532 OFFCURVE",
"422 579 OFFCURVE",
"466 579 CURVE SMOOTH",
"504 579 OFFCURVE",
"533 532 OFFCURVE",
"533 473 CURVE SMOOTH",
"533 435 OFFCURVE",
"514 395 OFFCURVE",
"479 353 CURVE",
"488 298 OFFCURVE",
"492 250 OFFCURVE",
"492 207 CURVE SMOOTH",
"492 121 OFFCURVE",
"475 58 OFFCURVE",
"442 15 CURVE",
"485 -60 OFFCURVE",
"512 -94 OFFCURVE",
"539 -106 CURVE",
"488 -150 LINE",
"446 -125 OFFCURVE",
"407 -73 OFFCURVE",
"370 6 CURVE",
"303 6 OFFCURVE",
"246 59 OFFCURVE",
"246 114 CURVE SMOOTH",
"246 129 OFFCURVE",
"252 141 OFFCURVE",
"263 152 CURVE",
"274 161 OFFCURVE",
"287 166 OFFCURVE",
"305 166 CURVE SMOOTH",
"306 166 OFFCURVE",
"307 166 OFFCURVE",
"308 166 CURVE SMOOTH",
"334 165 OFFCURVE",
"356 156 OFFCURVE",
"374 137 CURVE SMOOTH",
"394 116 OFFCURVE",
"407 95 OFFCURVE"
);
}
);
width = 665;
}
);
userData = {
org.fontforge.glyphclass = baseglyph;
public.markColor = "0,0,1,1";
};
},
{
glyphname = four;
lastChange = "2016-09-19 15:51:21 +0000";
layers = (
{
layerId = "25D154CF-C470-4D68-A10D-6356F2BE0292";
paths = (
{
closed = 1;
nodes = (
"515 150 LINE",
"532 164 OFFCURVE",
"536 189 OFFCURVE",
"536 210 CURVE",
"450 210 LINE",
"450 445 LINE",
"348 434 LINE",
"336 419 LINE",
"353 392 OFFCURVE",
"357 373 OFFCURVE",
"357 334 CURVE SMOOTH",
"357 210 LINE",
"119 210 LINE",
"319 651 LINE",
"302 666 LINE",
"243 666 LINE",
"29 150 LINE",
"357 150 LINE",
"357 123 LINE SMOOTH",
"357 64 OFFCURVE",
"347 53 OFFCURVE",
"299 41 CURVE SMOOTH",
"260 32 LINE",
"270 0 LINE",
"492 0 LINE",
"503 15 LINE",
"492 32 LINE",
"466 65 OFFCURVE",
"453 97 OFFCURVE",
"451 150 CURVE"
);
}
);
width = 623;
}
);
unicode = 0034;
userData = {
org.fontforge.glyphclass = baseglyph;
};
},
{
glyphname = fourcombiningdigitdeva;
lastChange = "2016-09-19 15:51:21 +0000";
layers = (
{
anchors = (
{
name = "_Lohit-Devanagari-DVAnchor3";
position = "{-130, 681}";
}
);
layerId = "25D154CF-C470-4D68-A10D-6356F2BE0292";
paths = (
{
closed = 1;
nodes = (
"-136.282 919.555 CURVE",
"-137.254 919.301 LINE",
"-175.441 943.894 OFFCURVE",
"-208.75 968.068 OFFCURVE",
"-208.75 1007.949 CURVE SMOOTH",
"-208.75 1014.355 OFFCURVE",
"-208.2 1019.204 OFFCURVE",
"-208.2 1023.899 CURVE SMOOTH",
"-208.2 1031.566 OFFCURVE",
"-213.882 1041.699 OFFCURVE",
"-236.45 1041.699 CURVE SMOOTH",
"-251.43 1041.699 OFFCURVE",
"-255.9 1029.203 OFFCURVE",
"-255.9 1015.649 CURVE SMOOTH",
"-255.9 958.876 OFFCURVE",
"-210.906 927.765 OFFCURVE",
"-169.735 897.852 CURVE",
"-202.939 875.007 OFFCURVE",
"-232.351 847.856 OFFCURVE",
"-232.351 805.05 CURVE SMOOTH",
"-232.351 754.734 OFFCURVE",
"-188.828 724 OFFCURVE",
"-137 724 CURVE SMOOTH",
"-85.15 724 OFFCURVE",
"-42.2 754.752 OFFCURVE",
"-42.2 805.05 CURVE SMOOTH",
"-42.2 847.964 OFFCURVE",
"-71.359 875.006 OFFCURVE",
"-104.339 897.799 CURVE",
"-63.134 927.736 OFFCURVE",
"-18.101 958.866 OFFCURVE",
"-18.101 1015.649 CURVE SMOOTH",
"-18.101 1029.036 OFFCURVE",
"-21.926 1041.699 OFFCURVE",
"-37 1041.699 CURVE SMOOTH",
"-59.977 1041.699 OFFCURVE",
"-66.351 1031.766 OFFCURVE",
"-66.351 1023.899 CURVE SMOOTH",
"-66.351 1018.622 OFFCURVE",
"-64.7 1013.97 OFFCURVE",
"-64.7 1007.949 CURVE SMOOTH",
"-64.7 968.217 OFFCURVE",
"-97.995 944.067 OFFCURVE"
);
},
{
closed = 1;
nodes = (
"-137.614 872.037 CURVE",
"-136.387 872.037 LINE",
"-113.184 851.836 OFFCURVE",
"-96.5 829.516 OFFCURVE",
"-96.5 798.449 CURVE SMOOTH",
"-96.5 771.498 OFFCURVE",
"-110.751 756.85 OFFCURVE",
"-137 756.85 CURVE SMOOTH",
"-162.709 756.85 OFFCURVE",
"-177.5 771.539 OFFCURVE",
"-177.5 798.449 CURVE SMOOTH",
"-177.5 829.517 OFFCURVE",
"-160.817 851.835 OFFCURVE"
);
}
);
width = 0;
}
);
unicode = A8E4;
userData = {
org.fontforge.glyphclass = mark;
};
},
{
glyphname = fourdeva;
lastChange = "2016-09-19 15:51:21 +0000";
layers = (
{
layerId = "25D154CF-C470-4D68-A10D-6356F2BE0292";
paths = (
{
closed = 1;
nodes = (
"143 617 CURVE SMOOTH",
"143 629 OFFCURVE",
"144 638 OFFCURVE",
"144 646 CURVE SMOOTH",
"144 656 OFFCURVE",
"138 672 OFFCURVE",
"99 672 CURVE SMOOTH",
"77 672 OFFCURVE",
"70 655 OFFCURVE",
"70 631 CURVE SMOOTH",
"70 440 OFFCURVE",
"378 323 OFFCURVE",
"378 127 CURVE SMOOTH",
"378 75 OFFCURVE",
"349 45 OFFCURVE",
"298 45 CURVE SMOOTH",
"248 45 OFFCURVE",
"218 75 OFFCURVE",
"218 127 CURVE SMOOTH",
"218 323 OFFCURVE",
"526 440 OFFCURVE",
"526 631 CURVE SMOOTH",
"526 655 OFFCURVE",
"520 672 OFFCURVE",
"498 672 CURVE SMOOTH",
"458 672 OFFCURVE",
"451 656 OFFCURVE",
"451 646 CURVE SMOOTH",
"451 638 OFFCURVE",
"454 629 OFFCURVE",
"454 617 CURVE SMOOTH",
"454 432 OFFCURVE",
"131 322 OFFCURVE",
"131 139 CURVE SMOOTH",
"131 52 OFFCURVE",
"206 -2 OFFCURVE",
"298 -2 CURVE SMOOTH",
"390 -2 OFFCURVE",
"464 52 OFFCURVE",
"464 139 CURVE SMOOTH",
"464 322 OFFCURVE",
"143 432 OFFCURVE"
);
}
);
width = 592;
}
);
unicode = 096A;
userData = {
org.fontforge.glyphclass = baseglyph;
};
},
{
glyphname = gadeva;
lastChange = "2016-09-19 15:51:21 +0000";
layers = (
{
anchors = (
{
name = "Lohit-Devanagari-DVAnchor3";
position = "{437, 664}";
}
);
layerId = "25D154CF-C470-4D68-A10D-6356F2BE0292";
paths = (
{
closed = 1;
nodes = (
"11 299 CURVE SMOOTH",
"11 241 OFFCURVE",
"55 205 OFFCURVE",
"108 205 CURVE SMOOTH",
"160 205 OFFCURVE",
"205 241 OFFCURVE",
"205 299 CURVE SMOOTH",
"205 352 OFFCURVE",
"169 379 OFFCURVE",
"119 379 CURVE",
"119 349 OFFCURVE",
"110 333 OFFCURVE",
"85 333 CURVE SMOOTH",
"70 333 OFFCURVE",
"61 345 OFFCURVE",
"41 345 CURVE SMOOTH",
"21 345 OFFCURVE",
"11 323 OFFCURVE"
);
},
{
closed = 1;
nodes = (
"205 299 LINE",
"205 621 LINE",
"393 621 LINE",
"393 0 LINE",
"479 0 LINE",
"479 621 LINE",
"582 621 LINE",
"582 666 LINE",
"-13 666 LINE",
"-13 621 LINE",
"119 621 LINE",
"119 299 LINE"
);
}
);
width = 569;
}
);
unicode = 0917;
userData = {
org.fontforge.glyphclass = baseglyph;
};
},
{
glyphname = gadeva_viramadeva;
lastChange = "2016-09-19 15:51:21 +0000";
layers = (
{
layerId = "25D154CF-C470-4D68-A10D-6356F2BE0292";
paths = (
{
closed = 1;
nodes = (
"8 269 CURVE SMOOTH",
"8 211 OFFCURVE",
"52 175 OFFCURVE",
"105 175 CURVE SMOOTH",
"157 175 OFFCURVE",
"202 211 OFFCURVE",
"202 269 CURVE SMOOTH",
"202 322 OFFCURVE",
"166 349 OFFCURVE",
"116 349 CURVE",
"116 319 OFFCURVE",
"107 303 OFFCURVE",
"82 303 CURVE SMOOTH",
"67 303 OFFCURVE",
"58 315 OFFCURVE",
"38 315 CURVE SMOOTH",
"18 315 OFFCURVE",
"8 293 OFFCURVE"
);
},
{
closed = 1;
nodes = (
"202 621 LINE",
"305 621 LINE",
"305 666 LINE",
"-13 666 LINE",
"-13 621 LINE",
"116 621 LINE",
"116 269 LINE",
"202 269 LINE"
);
}
);
width = 292;
}
);
userData = {
org.fontforge.glyphclass = baseglyph;
};
},
{
glyphname = gadeva_viramadeva_nadeva;
lastChange = "2016-09-19 15:51:21 +0000";
layers = (
{
layerId = "25D154CF-C470-4D68-A10D-6356F2BE0292";
paths = (
{
closed = 1;
nodes = (
"211 133 CURVE SMOOTH",
"211 153 OFFCURVE",
"221 171 OFFCURVE",
"255 190 CURVE SMOOTH",
"409 278 LINE",
"409 338 LINE",
"174 204 LINE SMOOTH",
"118.513 172.361 OFFCURVE",
"96 136 OFFCURVE",
"96 87 CURVE SMOOTH",
"96 42 OFFCURVE",
"133 2 OFFCURVE",
"186 2 CURVE SMOOTH",
"234 2 OFFCURVE",
"257 19 OFFCURVE",
"257 41 CURVE SMOOTH",
"257 75 OFFCURVE",
"211 90 OFFCURVE"
);
},
{
closed = 1;
nodes = (
"11 369 CURVE SMOOTH",
"11 311 OFFCURVE",
"55 275 OFFCURVE",
"108 275 CURVE SMOOTH",
"160 275 OFFCURVE",
"205 311 OFFCURVE",
"205 369 CURVE SMOOTH",
"205 422 OFFCURVE",
"169 449 OFFCURVE",
"119 449 CURVE",
"119 419 OFFCURVE",
"110 403 OFFCURVE",
"85 403 CURVE SMOOTH",
"70 403 OFFCURVE",
"61 415 OFFCURVE",
"41 415 CURVE SMOOTH",
"21 415 OFFCURVE",
"11 393 OFFCURVE"
);
},
{
closed = 1;
nodes = (
"205 369 LINE",
"205 621 LINE",
"393 621 LINE",
"393 0 LINE",
"479 0 LINE",
"479 621 LINE",
"582 621 LINE",
"582 666 LINE",
"-13 666 LINE",
"-13 621 LINE",
"119 621 LINE",
"119 369 LINE"
);
}
);
width = 569;
}
);
userData = {
org.fontforge.glyphclass = baseglyph;
};
},
{
glyphname = gapfillerdeva;
lastChange = "2016-09-19 15:51:21 +0000";
layers = (
{
anchors = (
{
name = "Lohit-Devanagari-DVAnchor0";
position = "{309, 56}";
},
{
name = "Lohit-Devanagari-DVAnchor3";
position = "{529, 664}";
}
);
layerId = "25D154CF-C470-4D68-A10D-6356F2BE0292";
paths = (
{
closed = 1;
nodes = (
"591 337 CURVE SMOOTH",
"591 189 OFFCURVE",
"481 87 OFFCURVE",
"308 87 CURVE SMOOTH",
"206 87 OFFCURVE",
"161 156 OFFCURVE",
"161 226 CURVE SMOOTH",
"161 297 OFFCURVE",
"207 368 OFFCURVE",
"303 368 CURVE SMOOTH",
"313 368 OFFCURVE",
"319 380 OFFCURVE",
"319 393 CURVE SMOOTH",
"319 403 OFFCURVE",
"316 410 OFFCURVE",
"309 410 CURVE SMOOTH",
"135 410 OFFCURVE",
"75 310 OFFCURVE",
"75 229 CURVE SMOOTH",
"75 112 OFFCURVE",
"159 34 OFFCURVE",
"308 34 CURVE SMOOTH",
"484 34 OFFCURVE",
"670 154 OFFCURVE",
"670 350 CURVE SMOOTH",
"670 393 OFFCURVE",
"649 492 OFFCURVE",
"517 492 CURVE SMOOTH",
"444 492 OFFCURVE",
"375 443 OFFCURVE",
"375 355 CURVE SMOOTH",
"375 268 OFFCURVE",
"429 248 OFFCURVE",
"461 248 CURVE SMOOTH",
"469 248 OFFCURVE",
"478 250 OFFCURVE",
"478 258 CURVE SMOOTH",
"478 270 OFFCURVE",
"452 290 OFFCURVE",
"452 358 CURVE SMOOTH",
"452 422 OFFCURVE",
"489 445 OFFCURVE",
"518 445 CURVE SMOOTH",
"562 445 OFFCURVE",
"591 400 OFFCURVE"
);
}
);
width = 709;
}
);
unicode = A8F9;
userData = {
org.fontforge.glyphclass = baseglyph;
};
},
{
glyphname = ggadeva;
lastChange = "2016-09-19 15:51:21 +0000";
layers = (
{
anchors = (
{
name = "Lohit-Devanagari-DVAnchor3";
position = "{437, 663}";
}
);
layerId = "25D154CF-C470-4D68-A10D-6356F2BE0292";
paths = (
{
closed = 1;
nodes = (
"37 299 CURVE SMOOTH",
"37 249 OFFCURVE",
"75 217 OFFCURVE",
"121 217 CURVE SMOOTH",
"166 217 OFFCURVE",
"205 249 OFFCURVE",
"205 299 CURVE SMOOTH",
"205 345 OFFCURVE",
"162 373 OFFCURVE",
"119 373 CURVE",
"119 331 OFFCURVE",
"104 323 OFFCURVE",
"95 323 CURVE SMOOTH",
"81 323 OFFCURVE",
"74 334 OFFCURVE",
"61 334 CURVE SMOOTH",
"45 334 OFFCURVE",
"37 318 OFFCURVE"
);
},
{
closed = 1;
nodes = (
"205 299 LINE",
"205 621 LINE",
"393 621 LINE",
"393 0 LINE",
"479 0 LINE",
"479 621 LINE",
"581 621 LINE",
"581 666 LINE",
"-13 666 LINE",
"-13 621 LINE",
"119 621 LINE",
"119 299 LINE"
);
},
{
closed = 1;
nodes = (
"479 0 LINE",
"479 -45 LINE",
"-13 -45 LINE",
"-13 0 LINE"
);
}
);
width = 568;
}
);
unicode = 097B;
userData = {
org.fontforge.glyphclass = baseglyph;
};
},
{
glyphname = ghadeva;
lastChange = "2016-09-19 15:51:21 +0000";
layers = (
{
anchors = (
{
name = "Lohit-Devanagari-DVAnchor3";
position = "{494, 664}";
}
);
layerId = "25D154CF-C470-4D68-A10D-6356F2BE0292";
paths = (
{
closed = 1;
nodes = (
"451 0 LINE",
"537 0 LINE",
"537 621 LINE",
"451 621 LINE"
);
},
{
closed = 1;
nodes = (
"-13 621 LINE",
"640 621 LINE",
"640 666 LINE",
"-13 666 LINE"
);
},
{
closed = 1;
nodes = (
"159 272 CURVE SMOOTH",
"159 329 OFFCURVE",
"199 387 OFFCURVE",
"290 387 CURVE SMOOTH",
"301 387 OFFCURVE",
"316 385 OFFCURVE",
"323 385 CURVE SMOOTH",
"333 385 OFFCURVE",
"338 397 OFFCURVE",
"338 410 CURVE SMOOTH",
"338 420 OFFCURVE",
"336 427 OFFCURVE",
"329 428 CURVE SMOOTH",
"310 431 OFFCURVE",
"292 432 OFFCURVE",
"275 432 CURVE SMOOTH",
"253 432 OFFCURVE",
"233 429 OFFCURVE",
"213 424 CURVE",
"169 430 OFFCURVE",
"125 453 OFFCURVE",
"125 527 CURVE SMOOTH",
"125 583 OFFCURVE",
"158 625 OFFCURVE",
"199 625 CURVE",
"197 648 LINE",
"109 648 OFFCURVE",
"46 593 OFFCURVE",
"46 527 CURVE SMOOTH",
"46 460 OFFCURVE",
"81 412 OFFCURVE",
"147 386 CURVE",
"95 356 OFFCURVE",
"73 316 OFFCURVE",
"73 264 CURVE SMOOTH",
"73 179 OFFCURVE",
"147 115 OFFCURVE",
"257 115 CURVE SMOOTH",
"415 115 OFFCURVE",
"500 247 OFFCURVE",
"500 287 CURVE SMOOTH",
"500 290 OFFCURVE",
"487 292 OFFCURVE",
"475 292 CURVE SMOOTH",
"465 292 OFFCURVE",
"459 285 OFFCURVE",
"452 278 CURVE",
"418 222 OFFCURVE",
"364 173 OFFCURVE",
"268 173 CURVE SMOOTH",
"192 173 OFFCURVE",
"159 223 OFFCURVE"
);
}
);
width = 627;
}
);
unicode = 0918;
userData = {
org.fontforge.glyphclass = baseglyph;
};
},
{
glyphname = ghadeva_viramadeva;
lastChange = "2016-09-19 15:51:21 +0000";
layers = (
{
layerId = "25D154CF-C470-4D68-A10D-6356F2BE0292";
paths = (
{
closed = 1;
nodes = (
"159 272 CURVE SMOOTH",
"159 329 OFFCURVE",
"199 387 OFFCURVE",
"290 387 CURVE SMOOTH",
"301 387 OFFCURVE",
"316 385 OFFCURVE",
"323 385 CURVE SMOOTH",
"333 385 OFFCURVE",
"338 397 OFFCURVE",
"338 410 CURVE SMOOTH",
"338 420 OFFCURVE",
"336 427 OFFCURVE",
"329 428 CURVE SMOOTH",
"310 431 OFFCURVE",
"292 432 OFFCURVE",
"275 432 CURVE SMOOTH",
"253 432 OFFCURVE",
"233 429 OFFCURVE",
"213 424 CURVE",
"169 430 OFFCURVE",
"125 453 OFFCURVE",
"125 527 CURVE SMOOTH",
"125 583 OFFCURVE",
"158 625 OFFCURVE",
"199 625 CURVE",
"197 648 LINE",
"109 648 OFFCURVE",
"46 593 OFFCURVE",
"46 527 CURVE SMOOTH",
"46 460 OFFCURVE",
"81 412 OFFCURVE",
"147 386 CURVE",
"95 356 OFFCURVE",
"73 316 OFFCURVE",
"73 264 CURVE SMOOTH",
"73 179 OFFCURVE",
"147 115 OFFCURVE",
"257 115 CURVE SMOOTH",
"341.557 115 OFFCURVE",
"434.45 149.36 OFFCURVE",
"504 205 CURVE SMOOTH",
"524 221 OFFCURVE",
"535 232.058 OFFCURVE",
"535 248 CURVE SMOOTH",
"535 271.697 OFFCURVE",
"529.537 278.504 OFFCURVE",
"522.84 278.504 CURVE SMOOTH",
"519.537 278.504 OFFCURVE",
"515.338 276.605 OFFCURVE",
"510 272 CURVE SMOOTH",
"462.31 230.848 OFFCURVE",
"397 173 OFFCURVE",
"268 173 CURVE SMOOTH",
"192 173 OFFCURVE",
"159 223 OFFCURVE"
);
},
{
closed = 1;
nodes = (
"-13 621 LINE",
"491 621 LINE",
"491 666 LINE",
"-13 666 LINE"
);
}
);
width = 478;
}
);
userData = {
org.fontforge.glyphclass = baseglyph;
};
},
{
glyphname = ghadeva_viramadeva_radeva;
lastChange = "2016-09-19 15:51:21 +0000";
layers = (
{
layerId = "25D154CF-C470-4D68-A10D-6356F2BE0292";
paths = (
{
closed = 1;
nodes = (
"469 202 LINE",
"469 232 LINE",
"76 54 LINE SMOOTH",
"70 51 OFFCURVE",
"68 45 OFFCURVE",
"68 38 CURVE SMOOTH",
"68 13 OFFCURVE",
"90 -32 OFFCURVE",
"105 -32 CURVE SMOOTH",
"108 -32 OFFCURVE",
"111 -32 OFFCURVE",
"116 -28 CURVE"
);
},
{
closed = 1;
nodes = (
"469 0 LINE",
"555 0 LINE",
"555 621 LINE",
"469 621 LINE"
);
},
{
closed = 1;
nodes = (
"-13 621 LINE",
"658 621 LINE",
"658 666 LINE",
"-13 666 LINE"
);
},
{
closed = 1;
nodes = (
"159 272 CURVE SMOOTH",
"159 329 OFFCURVE",
"199 387 OFFCURVE",
"290 387 CURVE SMOOTH",
"301 387 OFFCURVE",
"316 385 OFFCURVE",
"323 385 CURVE SMOOTH",
"333 385 OFFCURVE",
"338 397 OFFCURVE",
"338 410 CURVE SMOOTH",
"338 420 OFFCURVE",
"336 427 OFFCURVE",
"329 428 CURVE SMOOTH",
"310 431 OFFCURVE",
"292 432 OFFCURVE",
"275 432 CURVE SMOOTH",
"253 432 OFFCURVE",
"233 429 OFFCURVE",
"213 424 CURVE",
"169 430 OFFCURVE",
"125 453 OFFCURVE",
"125 527 CURVE SMOOTH",
"125 583 OFFCURVE",
"158 625 OFFCURVE",
"199 625 CURVE",
"197 648 LINE",
"109 648 OFFCURVE",
"46 593 OFFCURVE",
"46 527 CURVE SMOOTH",
"46 460 OFFCURVE",
"81 412 OFFCURVE",
"147 386 CURVE",
"95 356 OFFCURVE",
"73 316 OFFCURVE",
"73 264 CURVE SMOOTH",
"73 179 OFFCURVE",
"147 115 OFFCURVE",
"257 115 CURVE SMOOTH",
"410 115 OFFCURVE",
"518 255 OFFCURVE",
"518 297 CURVE SMOOTH",
"518 300 OFFCURVE",
"505 302 OFFCURVE",
"493 302 CURVE SMOOTH",
"487 302 OFFCURVE",
"484 295 OFFCURVE",
"480 288 CURVE",
"432 227 OFFCURVE",
"373 173 OFFCURVE",
"268 173 CURVE SMOOTH",
"192 173 OFFCURVE",
"159 223 OFFCURVE"
);
}
);
width = 645;
}
);
userData = {
org.fontforge.glyphclass = baseglyph;
};
},
{
glyphname = glottalstopdeva;
lastChange = "2016-09-19 15:51:21 +0000";
layers = (
{
layerId = "25D154CF-C470-4D68-A10D-6356F2BE0292";
paths = (
{
closed = 1;
nodes = (
"224 338 CURVE SMOOTH",
"220 338 OFFCURVE",
"218 335 OFFCURVE",
"218 328 CURVE SMOOTH",
"218 290 LINE",
"232 288 OFFCURVE",
"247 287 OFFCURVE",
"263 287 CURVE SMOOTH",
"446 287 OFFCURVE",
"538 385 OFFCURVE",
"538 482 CURVE SMOOTH",
"538 585 OFFCURVE",
"452 666 OFFCURVE",
"315 666 CURVE SMOOTH",
"173 666 OFFCURVE",
"105 608 OFFCURVE",
"105 532 CURVE SMOOTH",
"105 482 OFFCURVE",
"135 453 OFFCURVE",
"175 453 CURVE SMOOTH",
"186 453 OFFCURVE",
"192 455 OFFCURVE",
"192 465 CURVE SMOOTH",
"192 472 OFFCURVE",
"185 478 OFFCURVE",
"185 511 CURVE SMOOTH",
"185 574 OFFCURVE",
"224 626 OFFCURVE",
"315 626 CURVE SMOOTH",
"381 626 OFFCURVE",
"449 583 OFFCURVE",
"449 482 CURVE SMOOTH",
"449 375 OFFCURVE",
"362 330 OFFCURVE",
"275 330 CURVE SMOOTH",
"241 330 OFFCURVE",
"230 338 OFFCURVE"
);
},
{
closed = 1;
nodes = (
"218 0 LINE",
"304 0 LINE",
"304 317 LINE",
"218 317 LINE"
);
}
);
width = 631;
}
);
unicode = 097D;
userData = {
org.fontforge.glyphclass = baseglyph;
};
},
{
glyphname = glyph244;
lastChange = "2016-09-19 15:51:21 +0000";
layers = (
{
layerId = "25D154CF-C470-4D68-A10D-6356F2BE0292";
paths = (
{
closed = 1;
nodes = (
"-168 -211 CURVE SMOOTH",
"-183 -211 OFFCURVE",
"-227 -282 OFFCURVE",
"-323 -282 CURVE SMOOTH",
"-373 -282 OFFCURVE",
"-420 -250 OFFCURVE",
"-420 -186 CURVE SMOOTH",
"-420 -126 OFFCURVE",
"-388 -101 OFFCURVE",
"-352 -101 CURVE SMOOTH",
"-314 -101 OFFCURVE",
"-297 -124 OFFCURVE",
"-297 -154 CURVE SMOOTH",
"-297 -185 OFFCURVE",
"-304 -190 OFFCURVE",
"-304 -196 CURVE SMOOTH",
"-304 -202 OFFCURVE",
"-300 -203 OFFCURVE",
"-292 -203 CURVE SMOOTH",
"-260 -203 OFFCURVE",
"-233 -180 OFFCURVE",
"-233 -141 CURVE SMOOTH",
"-233 -97 OFFCURVE",
"-269 -59 OFFCURVE",
"-351 -59 CURVE SMOOTH",
"-445 -59 OFFCURVE",
"-497 -116 OFFCURVE",
"-497 -186 CURVE SMOOTH",
"-497 -272 OFFCURVE",
"-422 -326 OFFCURVE",
"-330 -326 CURVE SMOOTH",
"-230 -326 OFFCURVE",
"-145 -244 OFFCURVE",
"-145 -232 CURVE SMOOTH",
"-145 -223 OFFCURVE",
"-157 -211 OFFCURVE"
);
},
{
closed = 1;
nodes = (
"-176 -354 LINE",
"-90 -354 LINE",
"-90 53 LINE",
"-176 53 LINE"
);
}
);
width = 0;
}
);
userData = {
org.fontforge.glyphclass = baseglyph;
};
},
{
glyphname = grave;
lastChange = "2016-09-19 15:51:21 +0000";
layers = (
{
layerId = "25D154CF-C470-4D68-A10D-6356F2BE0292";
paths = (
{
closed = 1;
nodes = (
"89 705 LINE",
"65 693 OFFCURVE",
"50 674 OFFCURVE",
"50 646 CURVE SMOOTH",
"50 620 OFFCURVE",
"64 598 OFFCURVE",
"102 580 CURVE SMOOTH",
"207 529 LINE",
"234 560 LINE"
);
}
);
width = 295;
}
);
unicode = 0060;
userData = {
org.fontforge.glyphclass = baseglyph;
};
},
{
glyphname = gravedeva;
lastChange = "2016-09-19 15:51:21 +0000";
layers = (
{
anchors = (
{
name = _DVAnchor3;
position = "{-143, 664}";
},
{
name = "_Lohit-Devanagari-DVAnchor3";
position = "{-69, 664}";
}
);
layerId = "25D154CF-C470-4D68-A10D-6356F2BE0292";
paths = (
{
closed = 1;
nodes = (
"-214 899 LINE",
"-240 887 OFFCURVE",
"-258 864 OFFCURVE",
"-258 834 CURVE SMOOTH",
"-258 803 OFFCURVE",
"-242 779 OFFCURVE",
"-200 758 CURVE SMOOTH",
"-81 700 LINE",
"-51 736 LINE"
);
}
);
width = 0;
}
);
unicode = 0953;
userData = {
org.fontforge.glyphclass = mark;
};
},
{
glyphname = greater;
lastChange = "2016-09-19 15:51:21 +0000";
layers = (
{
layerId = "25D154CF-C470-4D68-A10D-6356F2BE0292";
paths = (
{
closed = 1;
nodes = (
"484 366 LINE",
"91 526 LINE",
"91 454 LINE",
"405 331 LINE",
"91 209 LINE",
"91 137 LINE",
"484 297 LINE"
);
}
);
width = 636;
}
);
unicode = 003E;
userData = {
org.fontforge.glyphclass = baseglyph;
};
},
{
glyphname = hadeva;
lastChange = "2016-09-19 15:51:21 +0000";
layers = (
{
anchors = (
{
name = "Lohit-Devanagari-DVAnchor0";
position = "{214, -47}";
},
{
name = "Lohit-Devanagari-DVAnchor3";
position = "{418, 664}";
}
);
layerId = "25D154CF-C470-4D68-A10D-6356F2BE0292";
paths = (
{
closed = 1;
nodes = (
"242 -97 CURVE SMOOTH",
"254 -97 OFFCURVE",
"265 -77 OFFCURVE",
"265 -68 CURVE SMOOTH",
"265 -62 OFFCURVE",
"260.454 -58.398 OFFCURVE",
"250 -51 CURVE SMOOTH",
"161.197 11.842 OFFCURVE",
"132 56 OFFCURVE",
"132 138 CURVE SMOOTH",
"132 229 OFFCURVE",
"211 263 OFFCURVE",
"273 263 CURVE SMOOTH",
"373 263 OFFCURVE",
"419 223 OFFCURVE",
"419 162 CURVE SMOOTH",
"419 91 OFFCURVE",
"378 57 OFFCURVE",
"337 41 CURVE",
"334 40 OFFCURVE",
"333 38 OFFCURVE",
"333 34 CURVE SMOOTH",
"333 16 OFFCURVE",
"346 1 OFFCURVE",
"352 1 CURVE SMOOTH",
"387 1 OFFCURVE",
"502 47 OFFCURVE",
"502 159 CURVE SMOOTH",
"502 257 OFFCURVE",
"414 315 OFFCURVE",
"294 315 CURVE SMOOTH",
"132 315 OFFCURVE",
"51 239 OFFCURVE",
"51 138 CURVE SMOOTH",
"51 4 OFFCURVE",
"202 -97 OFFCURVE"
);
},
{
closed = 1;
nodes = (
"199 293 LINE",
"165 307 OFFCURVE",
"144 336 OFFCURVE",
"144 371 CURVE SMOOTH",
"144 423 OFFCURVE",
"174 447 OFFCURVE",
"261 447 CURVE SMOOTH",
"460 447 LINE",
"460 621 LINE",
"571 621 LINE",
"571 666 LINE",
"-13 666 LINE",
"-13 621 LINE",
"374 621 LINE",
"374 498 LINE",
"233 498 LINE SMOOTH",
"117 498 OFFCURVE",
"61 454 OFFCURVE",
"61 377 CURVE SMOOTH",
"61 332 OFFCURVE",
"87 292 OFFCURVE",
"134 265 CURVE"
);
}
);
width = 558;
}
);
unicode = 0939;
userData = {
org.fontforge.glyphclass = baseglyph;
};
},
{
glyphname = hadeva_rvocalicdeva;
lastChange = "2016-09-19 15:51:21 +0000";
layers = (
{
layerId = "25D154CF-C470-4D68-A10D-6356F2BE0292";
paths = (
{
closed = 1;
nodes = (
"199 293 LINE",
"165 307 OFFCURVE",
"144 336 OFFCURVE",
"144 371 CURVE SMOOTH",
"144 423 OFFCURVE",
"174 447 OFFCURVE",
"261 447 CURVE SMOOTH",
"460 447 LINE",
"460 621 LINE",
"591 621 LINE",
"591 666 LINE",
"-13 666 LINE",
"-13 621 LINE",
"374 621 LINE",
"374 498 LINE",
"233 498 LINE SMOOTH",
"117 498 OFFCURVE",
"61 454 OFFCURVE",
"61 377 CURVE SMOOTH",
"61 332 OFFCURVE",
"87 292 OFFCURVE",
"134 265 CURVE"
);
},
{
closed = 1;
nodes = (
"502 159 LINE",
"502 257 OFFCURVE",
"414 315 OFFCURVE",
"294 315 CURVE SMOOTH",
"132 315 OFFCURVE",
"49 245 OFFCURVE",
"49 124 CURVE SMOOTH",
"49 -34 OFFCURVE",
"239 -172 OFFCURVE",
"291 -210 CURVE",
"293 -211 OFFCURVE",
"294 -212 OFFCURVE",
"297 -212 CURVE SMOOTH",
"304 -212 OFFCURVE",
"319 -195 OFFCURVE",
"319 -183 CURVE SMOOTH",
"319 -181 OFFCURVE",
"319 -178 OFFCURVE",
"315 -175 CURVE",
"214 -82 OFFCURVE",
"131 5 OFFCURVE",
"131 135 CURVE SMOOTH",
"131 246 OFFCURVE",
"211 263 OFFCURVE",
"273 263 CURVE SMOOTH",
"373 263 OFFCURVE",
"419 223 OFFCURVE",
"419 162 CURVE"
);
},
{
closed = 1;
nodes = (
"493 138 CURVE SMOOTH",
"501 138 OFFCURVE",
"502 148 OFFCURVE",
"502 159 CURVE SMOOTH",
"502 170 OFFCURVE",
"499 176 OFFCURVE",
"486 176 CURVE SMOOTH",
"398 176 OFFCURVE",
"293 132 OFFCURVE",
"293 30 CURVE SMOOTH",
"293 -66 OFFCURVE",
"370 -119 OFFCURVE",
"461 -119 CURVE SMOOTH",
"497 -119 OFFCURVE",
"535 -109 OFFCURVE",
"572 -91 CURVE",
"579 -87 OFFCURVE",
"581 -83 OFFCURVE",
"581 -78 CURVE SMOOTH",
"581 -65 OFFCURVE",
"571 -41 OFFCURVE",
"561 -41 CURVE SMOOTH",
"556 -41 OFFCURVE",
"526 -67 OFFCURVE",
"469 -67 CURVE SMOOTH",
"420 -67 OFFCURVE",
"372 -37 OFFCURVE",
"372 38 CURVE SMOOTH",
"372 109 OFFCURVE",
"427 138 OFFCURVE"
);
}
);
width = 578;
}
);
userData = {
org.fontforge.glyphclass = baseglyph;
};
},
{
glyphname = hadeva_viramadeva;
lastChange = "2016-09-19 15:51:21 +0000";
layers = (
{
layerId = "25D154CF-C470-4D68-A10D-6356F2BE0292";
paths = (
{
closed = 1;
nodes = (
"558 252 LINE",
"558 304 LINE",
"288 304 LINE SMOOTH",
"124 304 OFFCURVE",
"50 233 OFFCURVE",
"50 122 CURVE SMOOTH",
"50 0 OFFCURVE",
"215 -106 OFFCURVE",
"260 -135 CURVE",
"263 -136 OFFCURVE",
"264 -137 OFFCURVE",
"267 -137 CURVE SMOOTH",
"274 -137 OFFCURVE",
"289 -121 OFFCURVE",
"289 -109 CURVE SMOOTH",
"289 -106 OFFCURVE",
"289 -103 OFFCURVE",
"285 -100 CURVE SMOOTH",
"200 -30 OFFCURVE",
"132 34 OFFCURVE",
"132 133 CURVE SMOOTH",
"132 236 OFFCURVE",
"219 252 OFFCURVE",
"313 252 CURVE SMOOTH"
);
},
{
closed = 1;
nodes = (
"201 281 LINE",
"156 295 OFFCURVE",
"127 329 OFFCURVE",
"127 371 CURVE SMOOTH",
"127 423 OFFCURVE",
"157 447 OFFCURVE",
"244 447 CURVE SMOOTH",
"402 447 LINE",
"402 621 LINE",
"518 621 LINE",
"518 666 LINE",
"-13 666 LINE",
"-13 621 LINE",
"316 621 LINE",
"316 498 LINE",
"215 498 LINE SMOOTH",
"100 498 OFFCURVE",
"44 454 OFFCURVE",
"44 377 CURVE SMOOTH",
"44 314 OFFCURVE",
"96 260 OFFCURVE",
"184 238 CURVE"
);
}
);
width = 505;
}
);
userData = {
org.fontforge.glyphclass = baseglyph;
};
},
{
glyphname = hadeva_viramadeva_ladeva;
lastChange = "2016-09-19 15:51:21 +0000";
layers = (
{
anchors = (
{
name = "Lohit-Devanagari-DVAnchor0";
position = "{712, 23}";
},
{
name = "Lohit-Devanagari-DVAnchor3";
position = "{641, 664}";
}
);
layerId = "25D154CF-C470-4D68-A10D-6356F2BE0292";
paths = (
{
closed = 1;
nodes = (
"239 343 LINE",
"205 357 OFFCURVE",
"184 386 OFFCURVE",
"184 421 CURVE SMOOTH",
"184 473 OFFCURVE",
"214 497 OFFCURVE",
"301 497 CURVE SMOOTH",
"683 497 LINE",
"683 621 LINE",
"866 621 LINE",
"866 666 LINE",
"-13 666 LINE",
"-13 621 LINE",
"597 621 LINE",
"597 548 LINE",
"273 548 LINE SMOOTH",
"157 548 OFFCURVE",
"101 504 OFFCURVE",
"101 427 CURVE SMOOTH",
"101 382 OFFCURVE",
"127 342 OFFCURVE",
"174 315 CURVE"
);
},
{
closed = 1;
nodes = (
"602 346 LINE SMOOTH",
"636 346 OFFCURVE",
"669 337 OFFCURVE",
"669 284 CURVE SMOOTH",
"669 0 LINE",
"755 0 LINE",
"755 273 LINE SMOOTH",
"755 349 OFFCURVE",
"715 398 OFFCURVE",
"628 398 CURVE SMOOTH",
"327 398 LINE SMOOTH",
"162 398 OFFCURVE",
"89 322 OFFCURVE",
"89 206 CURVE SMOOTH",
"89 51 OFFCURVE",
"264 -82 OFFCURVE",
"312 -120 CURVE",
"315 -121 OFFCURVE",
"316 -122 OFFCURVE",
"319 -122 CURVE SMOOTH",
"324 -122 OFFCURVE",
"341 -105 OFFCURVE",
"341 -93 CURVE SMOOTH",
"341 -91 OFFCURVE",
"341 -88 OFFCURVE",
"337 -85 CURVE",
"245 6 OFFCURVE",
"171 89 OFFCURVE",
"171 216 CURVE SMOOTH",
"171 328 OFFCURVE",
"257 346 OFFCURVE",
"352 346 CURVE SMOOTH"
);
},
{
closed = 1;
nodes = (
"595 210 LINE",
"558 247 OFFCURVE",
"514 261 OFFCURVE",
"466 261 CURVE SMOOTH",
"377 261 OFFCURVE",
"322 210 OFFCURVE",
"322 131 CURVE SMOOTH",
"322 20 OFFCURVE",
"452 -62 OFFCURVE",
"494 -89 CURVE",
"498 -92 OFFCURVE",
"501 -93 OFFCURVE",
"504 -93 CURVE SMOOTH",
"511 -93 OFFCURVE",
"528 -75 OFFCURVE",
"528 -64 CURVE SMOOTH",
"528 -60 OFFCURVE",
"527 -58 OFFCURVE",
"523 -54 CURVE SMOOTH",
"451 12 OFFCURVE",
"399 43 OFFCURVE",
"399 130 CURVE SMOOTH",
"399 185 OFFCURVE",
"433 212 OFFCURVE",
"473 212 CURVE SMOOTH",
"508 212 OFFCURVE",
"546 188 OFFCURVE",
"564 153 CURVE"
);
},
{
closed = 1;
nodes = (
"692 264 LINE",
"567 248 OFFCURVE",
"511 152 OFFCURVE",
"511 89 CURVE SMOOTH",
"511 72 OFFCURVE",
"528 62 OFFCURVE",
"546 62 CURVE SMOOTH",
"563 62 OFFCURVE",
"576 62 OFFCURVE",
"576 79 CURVE SMOOTH",
"576 147 OFFCURVE",
"620 206 OFFCURVE",
"691 216 CURVE"
);
}
);
width = 855;
}
);
userData = {
org.fontforge.glyphclass = baseglyph;
};
},
{
glyphname = hadeva_viramadeva_madeva;
lastChange = "2016-09-19 15:51:21 +0000";
layers = (
{
anchors = (
{
name = "Lohit-Devanagari-DVAnchor0";
position = "{705, 23}";
},
{
name = "Lohit-Devanagari-DVAnchor3";
position = "{705, 664}";
}
);
layerId = "25D154CF-C470-4D68-A10D-6356F2BE0292";
paths = (
{
closed = 1;
nodes = (
"199 343 LINE",
"165 357 OFFCURVE",
"144 386 OFFCURVE",
"144 421 CURVE SMOOTH",
"144 473 OFFCURVE",
"174 497 OFFCURVE",
"261 497 CURVE SMOOTH",
"460 497 LINE",
"460 621 LINE",
"859 621 LINE",
"859 666 LINE",
"-13 666 LINE",
"-13 621 LINE",
"374 621 LINE",
"374 548 LINE",
"233 548 LINE SMOOTH",
"117 548 OFFCURVE",
"61 504 OFFCURVE",
"61 427 CURVE SMOOTH",
"61 382 OFFCURVE",
"87 342 OFFCURVE",
"134 315 CURVE"
);
},
{
closed = 1;
nodes = (
"493 242 LINE SMOOTH",
"493 340 OFFCURVE",
"414 395 OFFCURVE",
"294 395 CURVE SMOOTH",
"132 395 OFFCURVE",
"49 321 OFFCURVE",
"49 196 CURVE SMOOTH",
"49 41 OFFCURVE",
"224 -92 OFFCURVE",
"272 -130 CURVE",
"275 -131 OFFCURVE",
"276 -132 OFFCURVE",
"279 -132 CURVE SMOOTH",
"284 -132 OFFCURVE",
"301 -115 OFFCURVE",
"301 -103 CURVE SMOOTH",
"301 -101 OFFCURVE",
"301 -98 OFFCURVE",
"297 -95 CURVE",
"205 -4 OFFCURVE",
"131 79 OFFCURVE",
"131 206 CURVE SMOOTH",
"131 325 OFFCURVE",
"211 343 OFFCURVE",
"273 343 CURVE SMOOTH",
"373 343 OFFCURVE",
"407 303 OFFCURVE",
"407 242 CURVE SMOOTH",
"407 175 LINE",
"493 175 LINE"
);
},
{
closed = 1;
nodes = (
"662 621 LINE",
"662 0 LINE",
"748 0 LINE",
"748 621 LINE"
);
},
{
closed = 1;
nodes = (
"442 133 LINE",
"669 133 LINE",
"669 185 LINE",
"442 185 LINE"
);
},
{
closed = 1;
nodes = (
"334 175 CURVE SMOOTH",
"334 127 OFFCURVE",
"369 97 OFFCURVE",
"413 97 CURVE SMOOTH",
"456 97 OFFCURVE",
"493 127 OFFCURVE",
"493 175 CURVE SMOOTH",
"493 219 OFFCURVE",
"467 246 OFFCURVE",
"443 246 CURVE",
"443 199 OFFCURVE",
"428 190 OFFCURVE",
"417 190 CURVE SMOOTH",
"390 190 OFFCURVE",
"378 208 OFFCURVE",
"356 208 CURVE SMOOTH",
"341 208 OFFCURVE",
"334 192 OFFCURVE"
);
}
);
width = 846;
}
);
userData = {
org.fontforge.glyphclass = baseglyph;
};
},
{
glyphname = hadeva_viramadeva_nadeva;
lastChange = "2016-09-19 15:51:21 +0000";
layers = (
{
anchors = (
{
name = "Lohit-Devanagari-DVAnchor0";
position = "{617, 23}";
},
{
name = "Lohit-Devanagari-DVAnchor3";
position = "{546, 664}";
}
);
layerId = "25D154CF-C470-4D68-A10D-6356F2BE0292";
paths = (
{
closed = 1;
nodes = (
"239 343 LINE",
"205 357 OFFCURVE",
"184 386 OFFCURVE",
"184 421 CURVE SMOOTH",
"184 473 OFFCURVE",
"214 497 OFFCURVE",
"301 497 CURVE SMOOTH",
"589 497 LINE",
"589 621 LINE",
"772 621 LINE",
"772 666 LINE",
"-13 666 LINE",
"-13 621 LINE",
"503 621 LINE",
"503 548 LINE",
"273 548 LINE SMOOTH",
"157 548 OFFCURVE",
"101 504 OFFCURVE",
"101 427 CURVE SMOOTH",
"101 382 OFFCURVE",
"127 342 OFFCURVE",
"174 315 CURVE"
);
},
{
closed = 1;
nodes = (
"508 346 LINE SMOOTH",
"542 346 OFFCURVE",
"574 337 OFFCURVE",
"574 284 CURVE SMOOTH",
"574 0 LINE",
"661 0 LINE",
"661 273 LINE SMOOTH",
"661 349 OFFCURVE",
"621 398 OFFCURVE",
"533 398 CURVE SMOOTH",
"327 398 LINE SMOOTH",
"162 398 OFFCURVE",
"89 322 OFFCURVE",
"89 206 CURVE SMOOTH",
"89 51 OFFCURVE",
"264 -82 OFFCURVE",
"312 -120 CURVE",
"315 -121 OFFCURVE",
"316 -122 OFFCURVE",
"319 -122 CURVE SMOOTH",
"324 -122 OFFCURVE",
"341 -105 OFFCURVE",
"341 -93 CURVE SMOOTH",
"341 -91 OFFCURVE",
"341 -88 OFFCURVE",
"337 -85 CURVE",
"245 6 OFFCURVE",
"171 89 OFFCURVE",
"171 216 CURVE SMOOTH",
"171 328 OFFCURVE",
"257 346 OFFCURVE",
"352 346 CURVE SMOOTH"
);
},
{
closed = 1;
nodes = (
"575 240 LINE",
"383 240 LINE",
"383 188 LINE",
"575 188 LINE"
);
},
{
closed = 1;
nodes = (
"383 72 CURVE SMOOTH",
"402 72 OFFCURVE",
"419 81 OFFCURVE",
"419 96 CURVE SMOOTH",
"419 114 OFFCURVE",
"405 124 OFFCURVE",
"405 146 CURVE SMOOTH",
"405 164 OFFCURVE",
"414 188 OFFCURVE",
"459 188 CURVE",
"459 212 OFFCURVE",
"430 240 OFFCURVE",
"383 240 CURVE SMOOTH",
"332 240 OFFCURVE",
"301 201 OFFCURVE",
"301 156 CURVE SMOOTH",
"301 110 OFFCURVE",
"332 72 OFFCURVE"
);
}
);
width = 761;
}
);
userData = {
org.fontforge.glyphclass = baseglyph;
};
},
{
glyphname = hadeva_viramadeva_nnadeva;
lastChange = "2016-09-19 15:51:21 +0000";
layers = (
{
anchors = (
{
name = "Lohit-Devanagari-DVAnchor0";
position = "{696, 23}";
},
{
name = "Lohit-Devanagari-DVAnchor3";
position = "{625, 664}";
}
);
layerId = "25D154CF-C470-4D68-A10D-6356F2BE0292";
paths = (
{
closed = 1;
nodes = (
"239 343 LINE",
"205 357 OFFCURVE",
"184 386 OFFCURVE",
"184 421 CURVE SMOOTH",
"184 473 OFFCURVE",
"214 497 OFFCURVE",
"301 497 CURVE SMOOTH",
"668 497 LINE",
"668 621 LINE",
"851 621 LINE",
"851 666 LINE",
"-13 666 LINE",
"-13 621 LINE",
"582 621 LINE",
"582 548 LINE",
"273 548 LINE SMOOTH",
"157 548 OFFCURVE",
"101 504 OFFCURVE",
"101 427 CURVE SMOOTH",
"101 382 OFFCURVE",
"127 342 OFFCURVE",
"174 315 CURVE"
);
},
{
closed = 1;
nodes = (
"587 346 LINE SMOOTH",
"621 346 OFFCURVE",
"653 337 OFFCURVE",
"653 284 CURVE SMOOTH",
"653 0 LINE",
"739 0 LINE",
"739 273 LINE SMOOTH",
"739 349 OFFCURVE",
"700 398 OFFCURVE",
"612 398 CURVE SMOOTH",
"327 398 LINE SMOOTH",
"162 398 OFFCURVE",
"89 322 OFFCURVE",
"89 206 CURVE SMOOTH",
"89 51 OFFCURVE",
"264 -82 OFFCURVE",
"312 -120 CURVE",
"315 -121 OFFCURVE",
"316 -122 OFFCURVE",
"319 -122 CURVE SMOOTH",
"324 -122 OFFCURVE",
"341 -105 OFFCURVE",
"341 -93 CURVE SMOOTH",
"341 -91 OFFCURVE",
"341 -88 OFFCURVE",
"337 -85 CURVE",
"245 6 OFFCURVE",
"171 89 OFFCURVE",
"171 216 CURVE SMOOTH",
"171 328 OFFCURVE",
"257 346 OFFCURVE",
"352 346 CURVE SMOOTH"
);
},
{
closed = 1;
nodes = (
"431 93 CURVE SMOOTH",
"375 93 OFFCURVE",
"368 144 OFFCURVE",
"368 218 CURVE SMOOTH",
"368 363 LINE",
"290 363 LINE",
"290 239 LINE SMOOTH",
"290 103 OFFCURVE",
"329 46 OFFCURVE",
"431 46 CURVE SMOOTH",
"533 46 OFFCURVE",
"572 103 OFFCURVE",
"572 239 CURVE SMOOTH",
"572 363 LINE",
"494 363 LINE",
"494 218 LINE SMOOTH",
"494 144 OFFCURVE",
"487 93 OFFCURVE"
);
}
);
width = 839;
}
);
userData = {
org.fontforge.glyphclass = baseglyph;
};
},
{
glyphname = hadeva_viramadeva_radeva;
lastChange = "2016-09-19 15:51:21 +0000";
layers = (
{
anchors = (
{
name = "Lohit-Devanagari-DVAnchor0";
position = "{272, -90}";
}
);
layerId = "25D154CF-C470-4D68-A10D-6356F2BE0292";
paths = (
{
closed = 1;
nodes = (
"212 343 LINE",
"178 357 OFFCURVE",
"157 386 OFFCURVE",
"157 421 CURVE SMOOTH",
"157 473 OFFCURVE",
"187 497 OFFCURVE",
"274 497 CURVE SMOOTH",
"499 497 LINE",
"499 621 LINE",
"611 621 LINE",
"611 666 LINE",
"-13 666 LINE",
"-13 621 LINE",
"413 621 LINE",
"413 548 LINE",
"246 548 LINE SMOOTH",
"130 548 OFFCURVE",
"74 504 OFFCURVE",
"74 427 CURVE SMOOTH",
"74 382 OFFCURVE",
"100 342 OFFCURVE",
"147 315 CURVE"
);
},
{
closed = 1;
nodes = (
"467 207 CURVE SMOOTH",
"467 152 OFFCURVE",
"456 106 OFFCURVE",
"423 39 CURVE",
"423 38 OFFCURVE",
"422 35 OFFCURVE",
"422 33 CURVE SMOOTH",
"422 18 OFFCURVE",
"441 10 OFFCURVE",
"447 10 CURVE SMOOTH",
"450 10 OFFCURVE",
"453 11 OFFCURVE",
"455 13 CURVE SMOOTH",
"522 84 OFFCURVE",
"547 151 OFFCURVE",
"547 209 CURVE SMOOTH",
"547 307 OFFCURVE",
"458 365 OFFCURVE",
"339 365 CURVE SMOOTH",
"156 365 OFFCURVE",
"62 295 OFFCURVE",
"62 174 CURVE SMOOTH",
"62 3 OFFCURVE",
"233 -102 OFFCURVE",
"282 -135 CURVE SMOOTH",
"285 -137 OFFCURVE",
"287 -138 OFFCURVE",
"289 -138 CURVE SMOOTH",
"298 -138 OFFCURVE",
"311 -121 OFFCURVE",
"311 -109 CURVE SMOOTH",
"311 -106 OFFCURVE",
"310 -104 OFFCURVE",
"306 -100 CURVE SMOOTH",
"217 -15 OFFCURVE",
"144 40 OFFCURVE",
"144 185 CURVE SMOOTH",
"144 296 OFFCURVE",
"242 313 OFFCURVE",
"318 313 CURVE SMOOTH",
"420 313 OFFCURVE",
"467 271 OFFCURVE"
);
},
{
closed = 1;
nodes = (
"254 154 LINE SMOOTH",
"245 148 OFFCURVE",
"241 144 OFFCURVE",
"241 129 CURVE SMOOTH",
"241 99 OFFCURVE",
"264 76 OFFCURVE",
"279 76 CURVE SMOOTH",
"283 76 OFFCURVE",
"286 76 OFFCURVE",
"290 79 CURVE",
"483 242 LINE SMOOTH",
"497 254 OFFCURVE",
"500 260 OFFCURVE",
"500 267 CURVE SMOOTH",
"500 277 OFFCURVE",
"490 292 OFFCURVE",
"476 292 CURVE SMOOTH",
"471 292 OFFCURVE",
"467 291 OFFCURVE",
"456 285 CURVE"
);
}
);
width = 552;
}
);
userData = {
org.fontforge.glyphclass = baseglyph;
};
},
{
glyphname = hadeva_viramadeva_vadeva;
lastChange = "2016-09-19 15:51:21 +0000";
layers = (
{
anchors = (
{
name = "Lohit-Devanagari-DVAnchor0";
position = "{696, 23}";
},
{
name = "Lohit-Devanagari-DVAnchor3";
position = "{626, 664}";
}
);
layerId = "25D154CF-C470-4D68-A10D-6356F2BE0292";
paths = (
{
closed = 1;
nodes = (
"239 343 LINE",
"205 357 OFFCURVE",
"184 386 OFFCURVE",
"184 421 CURVE SMOOTH",
"184 473 OFFCURVE",
"214 497 OFFCURVE",
"301 497 CURVE SMOOTH",
"668 497 LINE",
"668 621 LINE",
"851 621 LINE",
"851 666 LINE",
"-13 666 LINE",
"-13 621 LINE",
"582 621 LINE",
"582 548 LINE",
"273 548 LINE SMOOTH",
"157 548 OFFCURVE",
"101 504 OFFCURVE",
"101 427 CURVE SMOOTH",
"101 382 OFFCURVE",
"127 342 OFFCURVE",
"174 315 CURVE"
);
},
{
closed = 1;
nodes = (
"587 346 LINE SMOOTH",
"621 346 OFFCURVE",
"653 337 OFFCURVE",
"653 284 CURVE SMOOTH",
"653 0 LINE",
"739 0 LINE",
"739 273 LINE SMOOTH",
"739 349 OFFCURVE",
"700 398 OFFCURVE",
"612 398 CURVE SMOOTH",
"327 398 LINE SMOOTH",
"162 398 OFFCURVE",
"89 322 OFFCURVE",
"89 206 CURVE SMOOTH",
"89 51 OFFCURVE",
"264 -82 OFFCURVE",
"312 -120 CURVE",
"315 -121 OFFCURVE",
"316 -122 OFFCURVE",
"319 -122 CURVE SMOOTH",
"324 -122 OFFCURVE",
"341 -105 OFFCURVE",
"341 -93 CURVE SMOOTH",
"341 -91 OFFCURVE",
"341 -88 OFFCURVE",
"337 -85 CURVE",
"245 6 OFFCURVE",
"171 89 OFFCURVE",
"171 216 CURVE SMOOTH",
"171 328 OFFCURVE",
"257 346 OFFCURVE",
"352 346 CURVE SMOOTH"
);
},
{
closed = 1;
nodes = (
"718 119 CURVE SMOOTH",
"718 131 OFFCURVE",
"704 145 OFFCURVE",
"691 145 CURVE SMOOTH",
"677 145 OFFCURVE",
"625 72 OFFCURVE",
"526 72 CURVE SMOOTH",
"473 72 OFFCURVE",
"430 99 OFFCURVE",
"430 164 CURVE SMOOTH",
"430 230 OFFCURVE",
"459 260 OFFCURVE",
"494 260 CURVE SMOOTH",
"525 260 OFFCURVE",
"540 241 OFFCURVE",
"540 215 CURVE SMOOTH",
"540 187 OFFCURVE",
"535 184 OFFCURVE",
"535 176 CURVE SMOOTH",
"535 169 OFFCURVE",
"540 169 OFFCURVE",
"548 169 CURVE SMOOTH",
"584 169 OFFCURVE",
"612 191 OFFCURVE",
"612 230 CURVE SMOOTH",
"612 269 OFFCURVE",
"574 299 OFFCURVE",
"504 299 CURVE SMOOTH",
"404 299 OFFCURVE",
"346 240 OFFCURVE",
"346 164 CURVE SMOOTH",
"346 79 OFFCURVE",
"423 25 OFFCURVE",
"516 25 CURVE SMOOTH",
"589 25 OFFCURVE",
"647 62 OFFCURVE",
"681 87 CURVE",
"713 107 OFFCURVE",
"718 115 OFFCURVE"
);
}
);
width = 839;
}
);
userData = {
org.fontforge.glyphclass = baseglyph;
};
},
{
glyphname = hadeva_viramadeva_yadeva;
lastChange = "2016-09-19 15:51:21 +0000";
layers = (
{
anchors = (
{
name = "Lohit-Devanagari-DVAnchor0";
position = "{731, 23}";
},
{
name = "Lohit-Devanagari-DVAnchor3";
position = "{731, 664}";
}
);
layerId = "25D154CF-C470-4D68-A10D-6356F2BE0292";
paths = (
{
closed = 1;
nodes = (
"230 349 LINE",
"202 362 OFFCURVE",
"184 389 OFFCURVE",
"184 421 CURVE SMOOTH",
"184 473 OFFCURVE",
"214 497 OFFCURVE",
"301 497 CURVE SMOOTH",
"500 497 LINE",
"500 621 LINE",
"885 621 LINE",
"885 666 LINE",
"-13 666 LINE",
"-13 621 LINE",
"414 621 LINE",
"414 548 LINE",
"273 548 LINE SMOOTH",
"157 548 OFFCURVE",
"101 504 OFFCURVE",
"101 427 CURVE SMOOTH",
"101 384 OFFCURVE",
"124 347 OFFCURVE",
"165 321 CURVE"
);
},
{
closed = 1;
nodes = (
"542 290 CURVE SMOOTH",
"542 370 OFFCURVE",
"459 415 OFFCURVE",
"334 415 CURVE SMOOTH",
"172 415 OFFCURVE",
"89 341 OFFCURVE",
"89 216 CURVE SMOOTH",
"89 59 OFFCURVE",
"276 -77 OFFCURVE",
"327 -115 CURVE",
"330 -116 OFFCURVE",
"331 -117 OFFCURVE",
"333 -117 CURVE SMOOTH",
"339 -117 OFFCURVE",
"356 -101 OFFCURVE",
"356 -89 CURVE SMOOTH",
"356 -86 OFFCURVE",
"355 -83 OFFCURVE",
"352 -80 CURVE SMOOTH",
"252 12 OFFCURVE",
"171 97 OFFCURVE",
"171 226 CURVE SMOOTH",
"171 345 OFFCURVE",
"259 363 OFFCURVE",
"327 363 CURVE SMOOTH",
"425 363 OFFCURVE",
"459 334 OFFCURVE",
"459 289 CURVE SMOOTH",
"459 245 OFFCURVE",
"415 211 OFFCURVE",
"346 196 CURVE",
"346 84 OFFCURVE",
"438 14 OFFCURVE",
"551 14 CURVE SMOOTH",
"632 14 OFFCURVE",
"690 43 OFFCURVE",
"723 66 CURVE SMOOTH",
"753 86 OFFCURVE",
"756 93 OFFCURVE",
"756 98 CURVE SMOOTH",
"756 109 OFFCURVE",
"744 125 OFFCURVE",
"734 125 CURVE SMOOTH",
"724 125 OFFCURVE",
"665 61 OFFCURVE",
"561 61 CURVE SMOOTH",
"495 61 OFFCURVE",
"439 94 OFFCURVE",
"431 174 CURVE",
"500 193 OFFCURVE",
"542 238 OFFCURVE"
);
},
{
closed = 1;
nodes = (
"688 621 LINE",
"688 0 LINE",
"774 0 LINE",
"774 621 LINE"
);
}
);
width = 864;
}
);
userData = {
org.fontforge.glyphclass = baseglyph;
};
},
{
glyphname = headstrokedeva;
lastChange = "2016-09-19 15:51:21 +0000";
layers = (
{
layerId = "25D154CF-C470-4D68-A10D-6356F2BE0292";
paths = (
{
closed = 1;
nodes = (
"45 818 LINE",
"45 863 LINE",
"571 863 LINE",
"571 818 LINE"
);
}
);
width = 616;
}
);
unicode = A8FB;
userData = {
org.fontforge.glyphclass = baseglyph;
};
},
{
glyphname = hyphen;
lastChange = "2016-09-19 15:51:21 +0000";
layers = (
{
layerId = "25D154CF-C470-4D68-A10D-6356F2BE0292";
paths = (
{
closed = 1;
nodes = (
"274 243 LINE",
"292 258 OFFCURVE",
"299 286 OFFCURVE",
"299 309 CURVE",
"54 299 LINE",
"37 284 OFFCURVE",
"31 256 OFFCURVE",
"31 234 CURVE"
);
}
);
width = 364;
}
);
unicode = 002D;
userData = {
org.fontforge.glyphclass = baseglyph;
};
},
{
glyphname = ideva;
lastChange = "2016-09-19 15:51:21 +0000";
layers = (
{
anchors = (
{
name = "Lohit-Devanagari-DVAnchor3";
position = "{365, 664}";
}
);
layerId = "25D154CF-C470-4D68-A10D-6356F2BE0292";
paths = (
{
closed = 1;
nodes = (
"187 42 LINE",
"288 -47 OFFCURVE",
"415 -82 OFFCURVE",
"465 -82 CURVE SMOOTH",
"479 -82 OFFCURVE",
"483 -68 OFFCURVE",
"483 -54 CURVE SMOOTH",
"483 -42 OFFCURVE",
"481.043 -37.769 OFFCURVE",
"461 -34 CURVE SMOOTH",
"394.106 -21.421 OFFCURVE",
"283 23 OFFCURVE",
"225 83 CURVE"
);
},
{
closed = 1;
nodes = (
"458 189 CURVE SMOOTH",
"458 283 OFFCURVE",
"380 329 OFFCURVE",
"297 329 CURVE SMOOTH",
"253 329 OFFCURVE",
"230 323 OFFCURVE",
"194 311 CURVE",
"156 324 OFFCURVE",
"133 353 OFFCURVE",
"133 392 CURVE SMOOTH",
"133 443 OFFCURVE",
"163 467 OFFCURVE",
"251 467 CURVE SMOOTH",
"408 467 LINE",
"408 621 LINE",
"517 621 LINE",
"517 666 LINE",
"-13 666 LINE",
"-13 621 LINE",
"322 621 LINE",
"322 519 LINE",
"222 519 LINE SMOOTH",
"107 519 OFFCURVE",
"50 475 OFFCURVE",
"50 397 CURVE SMOOTH",
"50 334 OFFCURVE",
"103 280 OFFCURVE",
"190 259 CURVE",
"219 271 OFFCURVE",
"253 278 OFFCURVE",
"278 278 CURVE SMOOTH",
"337 278 OFFCURVE",
"373 250 OFFCURVE",
"373 192 CURVE SMOOTH",
"373 121 OFFCURVE",
"312 83 OFFCURVE",
"233 83 CURVE",
"189 125 OFFCURVE",
"157 138 OFFCURVE",
"128 138 CURVE SMOOTH",
"92 138 OFFCURVE",
"76 121 OFFCURVE",
"76 100 CURVE SMOOTH",
"76 73 OFFCURVE",
"112 36 OFFCURVE",
"207 36 CURVE SMOOTH",
"310 36 OFFCURVE",
"458 70 OFFCURVE"
);
}
);
width = 503;
}
);
unicode = 0907;
userData = {
org.fontforge.glyphclass = baseglyph;
};
},
{
glyphname = iisign_ra_virama_anusvara;
lastChange = "2016-09-19 15:51:21 +0000";
layers = (
{
components = (
{
name = iisigndeva;
}
);
layerId = "25D154CF-C470-4D68-A10D-6356F2BE0292";
paths = (
{
closed = 1;
nodes = (
"152 757 LINE",
"147 771 OFFCURVE",
"144 785 OFFCURVE",
"144 799 CURVE SMOOTH",
"144 861 OFFCURVE",
"190 886 OFFCURVE",
"227 886 CURVE SMOOTH",
"284 886 OFFCURVE",
"293 861 OFFCURVE",
"312 861 CURVE SMOOTH",
"321 861 OFFCURVE",
"325 870 OFFCURVE",
"325 886 CURVE SMOOTH",
"325 922 OFFCURVE",
"291 945 OFFCURVE",
"237 945 CURVE SMOOTH",
"178 945 OFFCURVE",
"92 908 OFFCURVE",
"92 799 CURVE SMOOTH",
"92 780 OFFCURVE",
"95 760 OFFCURVE",
"102 741 CURVE"
);
},
{
closed = 1;
nodes = (
"199 786 CURVE SMOOTH",
"199 766 OFFCURVE",
"227 737 OFFCURVE",
"244 737 CURVE SMOOTH",
"263 737 OFFCURVE",
"291 766 OFFCURVE",
"291 786 CURVE SMOOTH",
"291 805 OFFCURVE",
"263 835 OFFCURVE",
"244 835 CURVE SMOOTH",
"226 835 OFFCURVE",
"199 805 OFFCURVE"
);
}
);
width = 266;
}
);
userData = {
org.fontforge.glyphclass = mark;
};
},
{
glyphname = iisign_ra_virama_anusvara.alt1;
lastChange = "2016-09-19 15:51:21 +0000";
layers = (
{
components = (
{
name = iisigndeva.alt1;
}
);
layerId = "25D154CF-C470-4D68-A10D-6356F2BE0292";
paths = (
{
closed = 1;
nodes = (
"133 757 LINE",
"128 771 OFFCURVE",
"125 785 OFFCURVE",
"125 799 CURVE SMOOTH",
"125 861 OFFCURVE",
"171 886 OFFCURVE",
"208 886 CURVE SMOOTH",
"265 886 OFFCURVE",
"274 861 OFFCURVE",
"293 861 CURVE SMOOTH",
"302 861 OFFCURVE",
"306 870 OFFCURVE",
"306 886 CURVE SMOOTH",
"306 922 OFFCURVE",
"272 945 OFFCURVE",
"218 945 CURVE SMOOTH",
"159 945 OFFCURVE",
"73 908 OFFCURVE",
"73 799 CURVE SMOOTH",
"73 780 OFFCURVE",
"76 760 OFFCURVE",
"83 741 CURVE"
);
},
{
closed = 1;
nodes = (
"180 786 CURVE SMOOTH",
"180 766 OFFCURVE",
"208 737 OFFCURVE",
"225 737 CURVE SMOOTH",
"244 737 OFFCURVE",
"272 766 OFFCURVE",
"272 786 CURVE SMOOTH",
"272 805 OFFCURVE",
"244 835 OFFCURVE",
"225 835 CURVE SMOOTH",
"207 835 OFFCURVE",
"180 805 OFFCURVE"
);
}
);
width = 267;
}
);
userData = {
org.fontforge.glyphclass = mark;
};
},
{
glyphname = iisigndeva;
lastChange = "2016-09-19 15:51:21 +0000";
layers = (
{
anchors = (
{
name = "Lohit-Devanagari-DVAnchor2";
position = "{192, 764}";
}
);
layerId = "25D154CF-C470-4D68-A10D-6356F2BE0292";
paths = (
{
closed = 1;
nodes = (
"90 621 LINE",
"90 0 LINE",
"176 0 LINE",
"176 621 LINE",
"280 621 LINE",
"280 666 LINE",
"176 666 LINE",
"147 841 OFFCURVE",
"48 935 OFFCURVE",
"-60 935 CURVE SMOOTH",
"-153 935 OFFCURVE",
"-225 875 OFFCURVE",
"-225 799 CURVE SMOOTH",
"-225 752 OFFCURVE",
"-209 710 OFFCURVE",
"-178 679 CURVE",
"-95 679 LINE",
"-129 713 OFFCURVE",
"-148 756 OFFCURVE",
"-148 799 CURVE SMOOTH",
"-148 852 OFFCURVE",
"-109 895 OFFCURVE",
"-60 895 CURVE SMOOTH",
"5 895 OFFCURVE",
"68 819 OFFCURVE",
"90 666 CURVE",
"-13 666 LINE",
"-13 621 LINE"
);
}
);
width = 266;
}
);
unicode = 0940;
userData = {
org.fontforge.glyphclass = mark;
};
},
{
glyphname = iisigndeva.alt1;
lastChange = "2016-09-19 15:51:21 +0000";
layers = (
{
layerId = "25D154CF-C470-4D68-A10D-6356F2BE0292";
paths = (
{
closed = 1;
nodes = (
"90 621 LINE",
"90 0 LINE",
"177 0 LINE",
"177 621 LINE",
"281 621 LINE",
"281 666 LINE",
"177 666 LINE",
"115 849 OFFCURVE",
"-43 935 OFFCURVE",
"-219 935 CURVE SMOOTH",
"-342 935 OFFCURVE",
"-443 865 OFFCURVE",
"-443 779 CURVE SMOOTH",
"-443 727 OFFCURVE",
"-426 684 OFFCURVE",
"-397 659 CURVE",
"-314 659 LINE",
"-348 687 OFFCURVE",
"-367 731 OFFCURVE",
"-367 779 CURVE SMOOTH",
"-367 843 OFFCURVE",
"-302 895 OFFCURVE",
"-219 895 CURVE SMOOTH",
"-79 895 OFFCURVE",
"44 822 OFFCURVE",
"90 666 CURVE",
"-12 666 LINE",
"-12 621 LINE"
);
}
);
width = 267;
}
);
userData = {
org.fontforge.glyphclass = mark;
};
},
{
glyphname = iisigndeva_ra_virama;
lastChange = "2016-09-19 15:51:21 +0000";
layers = (
{
components = (
{
name = iisigndeva;
}
);
layerId = "25D154CF-C470-4D68-A10D-6356F2BE0292";
paths = (
{
closed = 1;
nodes = (
"82 789 CURVE SMOOTH",
"82 764 OFFCURVE",
"89 739 OFFCURVE",
"103 715 CURVE",
"145 735 LINE",
"134 752 OFFCURVE",
"129 771 OFFCURVE",
"129 789 CURVE SMOOTH",
"129 851 OFFCURVE",
"176 876 OFFCURVE",
"215 876 CURVE SMOOTH",
"272 876 OFFCURVE",
"281 851 OFFCURVE",
"300 851 CURVE SMOOTH",
"309 851 OFFCURVE",
"313 860 OFFCURVE",
"313 876 CURVE SMOOTH",
"313 912 OFFCURVE",
"279 935 OFFCURVE",
"225 935 CURVE SMOOTH",
"167 935 OFFCURVE",
"82 898 OFFCURVE"
);
}
);
width = 266;
}
);
userData = {
org.fontforge.glyphclass = mark;
};
},
{
glyphname = iisigndeva_ra_virama.alt1;
lastChange = "2016-09-19 15:51:21 +0000";
layers = (
{
components = (
{
name = iisigndeva.alt1;
}
);
layerId = "25D154CF-C470-4D68-A10D-6356F2BE0292";
paths = (
{
closed = 1;
nodes = (
"83 789 CURVE SMOOTH",
"83 764 OFFCURVE",
"90 739 OFFCURVE",
"104 715 CURVE",
"146 735 LINE",
"135 752 OFFCURVE",
"130 771 OFFCURVE",
"130 789 CURVE SMOOTH",
"130 851 OFFCURVE",
"177 876 OFFCURVE",
"216 876 CURVE SMOOTH",
"273 876 OFFCURVE",
"282 851 OFFCURVE",
"301 851 CURVE SMOOTH",
"310 851 OFFCURVE",
"314 860 OFFCURVE",
"314 876 CURVE SMOOTH",
"314 912 OFFCURVE",
"280 935 OFFCURVE",
"226 935 CURVE SMOOTH",
"168 935 OFFCURVE",
"83 898 OFFCURVE"
);
}
);
width = 267;
}
);
userData = {
org.fontforge.glyphclass = mark;
};
},
{
glyphname = inr_currency;
lastChange = "2016-09-19 15:51:21 +0000";
layers = (
{
layerId = "25D154CF-C470-4D68-A10D-6356F2BE0292";
paths = (
{
closed = 1;
nodes = (
"514 614 LINE",
"533 625 OFFCURVE",
"539 648 OFFCURVE",
"539 666 CURVE",
"87 666 LINE",
"69 654 OFFCURVE",
"62 632 OFFCURVE",
"62 614 CURVE"
);
},
{
closed = 1;
nodes = (
"514 455 LINE",
"533 466 OFFCURVE",
"539 489 OFFCURVE",
"539 507 CURVE",
"87 507 LINE",
"69 496 OFFCURVE",
"62 473 OFFCURVE",
"62 455 CURVE"
);
},
{
closed = 1;
nodes = (
"133 348 CURVE SMOOTH",
"80 348 OFFCURVE",
"72 326 OFFCURVE",
"72 304 CURVE SMOOTH",
"72 223 OFFCURVE",
"299 34 OFFCURVE",
"362 -7 CURVE",
"364 -9 OFFCURVE",
"365 -9 OFFCURVE",
"368 -9 CURVE SMOOTH",
"375 -9 OFFCURVE",
"390 7 OFFCURVE",
"390 19 CURVE SMOOTH",
"390 22 OFFCURVE",
"390 24 OFFCURVE",
"386 28 CURVE",
"262 139 OFFCURVE",
"213 200 OFFCURVE",
"152 309 CURVE",
"245 309 OFFCURVE",
"383 337 OFFCURVE",
"383 480 CURVE SMOOTH",
"383 609 OFFCURVE",
"239 637 OFFCURVE",
"142 637 CURVE",
"62 614 LINE",
"133 614 LINE SMOOTH",
"247 614 OFFCURVE",
"294 561 OFFCURVE",
"296 481 CURVE",
"294 401 OFFCURVE",
"247 348 OFFCURVE"
);
}
);
width = 609;
}
);
unicode = 20B9;
userData = {
org.fontforge.glyphclass = baseglyph;
};
},
{
glyphname = isign_ra_virama;
lastChange = "2016-09-19 15:51:21 +0000";
layers = (
{
layerId = "25D154CF-C470-4D68-A10D-6356F2BE0292";
paths = (
{
closed = 1;
nodes = (
"539 753 LINE",
"531 769 OFFCURVE",
"528 782 OFFCURVE",
"528 799 CURVE SMOOTH",
"528 861 OFFCURVE",
"581 886 OFFCURVE",
"624 886 CURVE SMOOTH",
"681 886 OFFCURVE",
"690 861 OFFCURVE",
"709 861 CURVE SMOOTH",
"718 861 OFFCURVE",
"722 870 OFFCURVE",
"722 886 CURVE SMOOTH",
"722 922 OFFCURVE",
"688 945 OFFCURVE",
"634 945 CURVE SMOOTH",
"570 945 OFFCURVE",
"476 908 OFFCURVE",
"476 799 CURVE SMOOTH",
"476 774 OFFCURVE",
"483 749 OFFCURVE",
"497 725 CURVE"
);
},
{
closed = 1;
nodes = (
"279 666 LINE",
"170 666 LINE",
"153 698 OFFCURVE",
"138 733 OFFCURVE",
"138 782 CURVE SMOOTH",
"138 860 OFFCURVE",
"185 907 OFFCURVE",
"267 907 CURVE SMOOTH",
"358 907 OFFCURVE",
"436 836 OFFCURVE",
"508 689 CURVE",
"563 705 LINE",
"488 868 OFFCURVE",
"390 960 OFFCURVE",
"253 960 CURVE SMOOTH",
"129 960 OFFCURVE",
"52 888 OFFCURVE",
"52 783 CURVE SMOOTH",
"52 739 OFFCURVE",
"63 703 OFFCURVE",
"83 666 CURVE",
"-13 666 LINE",
"-13 621 LINE",
"90 621 LINE",
"90 0 LINE",
"176 0 LINE",
"176 621 LINE",
"279 621 LINE"
);
}
);
width = 266;
}
);
userData = {
org.fontforge.glyphclass = mark;
};
},
{
glyphname = isign_ra_virama.alt1;
lastChange = "2016-09-19 15:51:21 +0000";
layers = (
{
layerId = "25D154CF-C470-4D68-A10D-6356F2BE0292";
paths = (
{
closed = 1;
nodes = (
"958 706 LINE",
"929 737 OFFCURVE",
"911 766 OFFCURVE",
"911 799 CURVE SMOOTH",
"911 861 OFFCURVE",
"964 886 OFFCURVE",
"1007 886 CURVE SMOOTH",
"1064 886 OFFCURVE",
"1073 861 OFFCURVE",
"1092 861 CURVE SMOOTH",
"1101 861 OFFCURVE",
"1105 870 OFFCURVE",
"1105 886 CURVE SMOOTH",
"1105 922 OFFCURVE",
"1071 945 OFFCURVE",
"1017 945 CURVE SMOOTH",
"953 945 OFFCURVE",
"859 908 OFFCURVE",
"859 799 CURVE SMOOTH",
"859 762 OFFCURVE",
"876 724 OFFCURVE",
"906 691 CURVE"
);
},
{
closed = 1;
nodes = (
"958 706 LINE",
"823 854 OFFCURVE",
"626 960 OFFCURVE",
"345 960 CURVE SMOOTH",
"162 960 OFFCURVE",
"52 891 OFFCURVE",
"52 775 CURVE SMOOTH",
"52 730 OFFCURVE",
"63 698 OFFCURVE",
"81 666 CURVE",
"-13 666 LINE",
"-13 621 LINE",
"90 621 LINE",
"90 0 LINE",
"176 0 LINE",
"176 621 LINE",
"279 621 LINE",
"279 666 LINE",
"170 666 LINE",
"152 692 OFFCURVE",
"138 727 OFFCURVE",
"138 769 CURVE SMOOTH",
"138 862 OFFCURVE",
"217 907 OFFCURVE",
"372 907 CURVE SMOOTH",
"571 907 OFFCURVE",
"750 831 OFFCURVE",
"904 689 CURVE"
);
}
);
width = 266;
}
);
userData = {
org.fontforge.glyphclass = mark;
};
},
{
glyphname = isign_ra_virama.alt2;
lastChange = "2016-09-19 15:51:21 +0000";
layers = (
{
layerId = "25D154CF-C470-4D68-A10D-6356F2BE0292";
paths = (
{
closed = 1;
nodes = (
"1176 706 LINE",
"1011 851 OFFCURVE",
"767 960 OFFCURVE",
"397 960 CURVE SMOOTH",
"178 960 OFFCURVE",
"52 895 OFFCURVE",
"52 776 CURVE SMOOTH",
"52 729 OFFCURVE",
"63 698 OFFCURVE",
"81 666 CURVE",
"-13 666 LINE",
"-13 621 LINE",
"90 621 LINE",
"90 0 LINE",
"176 0 LINE",
"176 621 LINE",
"279 621 LINE",
"279 666 LINE",
"170 666 LINE",
"152 692 OFFCURVE",
"138 727 OFFCURVE",
"138 765 CURVE SMOOTH",
"138 867 OFFCURVE",
"233 907 OFFCURVE",
"431 907 CURVE SMOOTH",
"694 907 OFFCURVE",
"926 831 OFFCURVE",
"1121 690 CURVE"
);
},
{
closed = 1;
nodes = (
"1176 706 LINE",
"1147 737 OFFCURVE",
"1129 766 OFFCURVE",
"1129 799 CURVE SMOOTH",
"1129 861 OFFCURVE",
"1182 886 OFFCURVE",
"1225 886 CURVE SMOOTH",
"1282 886 OFFCURVE",
"1291 861 OFFCURVE",
"1310 861 CURVE SMOOTH",
"1319 861 OFFCURVE",
"1323 870 OFFCURVE",
"1323 886 CURVE SMOOTH",
"1323 922 OFFCURVE",
"1289 945 OFFCURVE",
"1235 945 CURVE SMOOTH",
"1171 945 OFFCURVE",
"1077 908 OFFCURVE",
"1077 799 CURVE SMOOTH",
"1077 762 OFFCURVE",
"1094 725 OFFCURVE",
"1124 692 CURVE"
);
}
);
width = 266;
}
);
userData = {
org.fontforge.glyphclass = mark;
};
},
{
glyphname = isign_ra_virama.alt3;
lastChange = "2016-09-19 15:51:21 +0000";
layers = (
{
layerId = "25D154CF-C470-4D68-A10D-6356F2BE0292";
paths = (
{
closed = 1;
nodes = (
"580 746 LINE",
"570 763 OFFCURVE",
"564 780 OFFCURVE",
"564 799 CURVE SMOOTH",
"564 861 OFFCURVE",
"617 886 OFFCURVE",
"660 886 CURVE SMOOTH",
"717 886 OFFCURVE",
"726 861 OFFCURVE",
"745 861 CURVE SMOOTH",
"754 861 OFFCURVE",
"758 870 OFFCURVE",
"758 886 CURVE SMOOTH",
"758 922 OFFCURVE",
"724 945 OFFCURVE",
"670 945 CURVE SMOOTH",
"606 945 OFFCURVE",
"512 908 OFFCURVE",
"512 799 CURVE SMOOTH",
"512 774 OFFCURVE",
"520 749 OFFCURVE",
"534 726 CURVE"
);
},
{
closed = 1;
nodes = (
"279 666 LINE",
"170 666 LINE",
"153 698 OFFCURVE",
"138 733 OFFCURVE",
"138 782 CURVE SMOOTH",
"138 860 OFFCURVE",
"188 907 OFFCURVE",
"276 907 CURVE SMOOTH",
"379 907 OFFCURVE",
"466 836 OFFCURVE",
"547 689 CURVE",
"602 705 LINE",
"520 868 OFFCURVE",
"412 960 OFFCURVE",
"262 960 CURVE SMOOTH",
"132 960 OFFCURVE",
"52 888 OFFCURVE",
"52 783 CURVE SMOOTH",
"52 739 OFFCURVE",
"63 703 OFFCURVE",
"83 666 CURVE",
"-13 666 LINE",
"-13 621 LINE",
"90 621 LINE",
"90 0 LINE",
"176 0 LINE",
"176 621 LINE",
"279 621 LINE"
);
}
);
width = 266;
}
);
userData = {
org.fontforge.glyphclass = mark;
};
},
{
glyphname = isign_ra_virama.alt4;
lastChange = "2016-09-19 15:51:21 +0000";
layers = (
{
layerId = "25D154CF-C470-4D68-A10D-6356F2BE0292";
paths = (
{
closed = 1;
nodes = (
"836 722 LINE",
"815 746 OFFCURVE",
"804 772 OFFCURVE",
"804 799 CURVE SMOOTH",
"804 861 OFFCURVE",
"857 886 OFFCURVE",
"900 886 CURVE SMOOTH",
"957 886 OFFCURVE",
"966 861 OFFCURVE",
"985 861 CURVE SMOOTH",
"994 861 OFFCURVE",
"998 870 OFFCURVE",
"998 886 CURVE SMOOTH",
"998 922 OFFCURVE",
"964 945 OFFCURVE",
"910 945 CURVE SMOOTH",
"846 945 OFFCURVE",
"752 908 OFFCURVE",
"752 799 CURVE SMOOTH",
"752 766 OFFCURVE",
"765 733 OFFCURVE",
"789 702 CURVE"
);
},
{
closed = 1;
nodes = (
"850 705 LINE",
"729 856 OFFCURVE",
"557 960 OFFCURVE",
"319 960 CURVE SMOOTH",
"153 960 OFFCURVE",
"52 889 OFFCURVE",
"52 775 CURVE SMOOTH",
"52 731 OFFCURVE",
"63 698 OFFCURVE",
"81 666 CURVE",
"-13 666 LINE",
"-13 621 LINE",
"90 621 LINE",
"90 0 LINE",
"176 0 LINE",
"176 621 LINE",
"279 621 LINE",
"279 666 LINE",
"170 666 LINE",
"153 692 OFFCURVE",
"138 727 OFFCURVE",
"138 772 CURVE SMOOTH",
"138 860 OFFCURVE",
"210 907 OFFCURVE",
"343 907 CURVE SMOOTH",
"510 907 OFFCURVE",
"661 833 OFFCURVE",
"795 689 CURVE"
);
}
);
width = 266;
}
);
userData = {
org.fontforge.glyphclass = mark;
};
},
{
glyphname = isign_ra_virama.ja;
lastChange = "2016-09-19 15:51:21 +0000";
layers = (
{
layerId = "25D154CF-C470-4D68-A10D-6356F2BE0292";
paths = (
{
closed = 1;
nodes = (
"876 724 LINE",
"857 747 OFFCURVE",
"846 773 OFFCURVE",
"846 799 CURVE SMOOTH",
"846 861 OFFCURVE",
"899 886 OFFCURVE",
"942 886 CURVE SMOOTH",
"999 886 OFFCURVE",
"1008 861 OFFCURVE",
"1027 861 CURVE SMOOTH",
"1036 861 OFFCURVE",
"1040 870 OFFCURVE",
"1040 886 CURVE SMOOTH",
"1040 922 OFFCURVE",
"1006 945 OFFCURVE",
"952 945 CURVE SMOOTH",
"888 945 OFFCURVE",
"794 908 OFFCURVE",
"794 799 CURVE SMOOTH",
"794 763 OFFCURVE",
"809 728 OFFCURVE",
"836 696 CURVE"
);
},
{
closed = 1;
nodes = (
"892 705 LINE",
"772 854 OFFCURVE",
"595 960 OFFCURVE",
"345 960 CURVE SMOOTH",
"162 960 OFFCURVE",
"52 891 OFFCURVE",
"52 775 CURVE SMOOTH",
"52 730 OFFCURVE",
"63 698 OFFCURVE",
"81 666 CURVE",
"-13 666 LINE",
"-13 621 LINE",
"90 621 LINE",
"90 0 LINE",
"176 0 LINE",
"176 621 LINE",
"279 621 LINE",
"279 666 LINE",
"170 666 LINE",
"152 692 OFFCURVE",
"138 727 OFFCURVE",
"138 769 CURVE SMOOTH",
"138 862 OFFCURVE",
"217 907 OFFCURVE",
"372 907 CURVE SMOOTH",
"546 907 OFFCURVE",
"702 831 OFFCURVE",
"837 689 CURVE"
);
}
);
width = 266;
}
);
userData = {
org.fontforge.glyphclass = mark;
};
},
{
glyphname = isign_ra_virama.tha;
lastChange = "2016-09-19 15:51:21 +0000";
layers = (
{
layerId = "25D154CF-C470-4D68-A10D-6356F2BE0292";
paths = (
{
closed = 1;
nodes = (
"836 722 LINE",
"815 746 OFFCURVE",
"804 772 OFFCURVE",
"804 799 CURVE SMOOTH",
"804 861 OFFCURVE",
"857 886 OFFCURVE",
"900 886 CURVE SMOOTH",
"957 886 OFFCURVE",
"966 861 OFFCURVE",
"985 861 CURVE SMOOTH",
"994 861 OFFCURVE",
"998 870 OFFCURVE",
"998 886 CURVE SMOOTH",
"998 922 OFFCURVE",
"964 945 OFFCURVE",
"910 945 CURVE SMOOTH",
"846 945 OFFCURVE",
"752 908 OFFCURVE",
"752 799 CURVE SMOOTH",
"752 764 OFFCURVE",
"766 730 OFFCURVE",
"792 698 CURVE"
);
},
{
closed = 1;
nodes = (
"850 705 LINE",
"729 856 OFFCURVE",
"557 960 OFFCURVE",
"319 960 CURVE SMOOTH",
"153 960 OFFCURVE",
"52 889 OFFCURVE",
"52 775 CURVE SMOOTH",
"52 731 OFFCURVE",
"63 698 OFFCURVE",
"81 666 CURVE",
"-13 666 LINE",
"-13 621 LINE",
"90 621 LINE",
"90 0 LINE",
"176 0 LINE",
"176 621 LINE",
"279 621 LINE",
"279 666 LINE",
"170 666 LINE",
"153 692 OFFCURVE",
"138 727 OFFCURVE",
"138 772 CURVE SMOOTH",
"138 860 OFFCURVE",
"210 907 OFFCURVE",
"343 907 CURVE SMOOTH",
"510 907 OFFCURVE",
"661 833 OFFCURVE",
"795 689 CURVE"
);
}
);
width = 266;
}
);
userData = {
org.fontforge.glyphclass = mark;
};
},
{
glyphname = isigndeva;
lastChange = "2016-09-19 15:51:21 +0000";
layers = (
{
layerId = "25D154CF-C470-4D68-A10D-6356F2BE0292";
paths = (
{
closed = 1;
nodes = (
"742 705 LINE",
"635 858 OFFCURVE",
"487 960 OFFCURVE",
"292 960 CURVE SMOOTH",
"146 960 OFFCURVE",
"52 887 OFFCURVE",
"52 774 CURVE SMOOTH",
"52 731 OFFCURVE",
"63 698 OFFCURVE",
"81 666 CURVE",
"-13 666 LINE",
"-13 621 LINE",
"90 621 LINE",
"90 0 LINE",
"176 0 LINE",
"176 621 LINE",
"279 621 LINE",
"279 666 LINE",
"170 666 LINE",
"153 693 OFFCURVE",
"138 727 OFFCURVE",
"138 774 CURVE SMOOTH",
"138 858 OFFCURVE",
"203 907 OFFCURVE",
"313 907 CURVE SMOOTH",
"449 907 OFFCURVE",
"574 834 OFFCURVE",
"687 689 CURVE"
);
}
);
width = 266;
}
);
unicode = 093F;
userData = {
org.fontforge.glyphclass = mark;
};
},
{
glyphname = isigndeva.alt1;
lastChange = "2016-09-19 15:51:21 +0000";
layers = (
{
layerId = "25D154CF-C470-4D68-A10D-6356F2BE0292";
paths = (
{
closed = 1;
nodes = (
"959 705 LINE",
"824 854 OFFCURVE",
"626 960 OFFCURVE",
"345 960 CURVE SMOOTH",
"162 960 OFFCURVE",
"52 891 OFFCURVE",
"52 775 CURVE SMOOTH",
"52 730 OFFCURVE",
"63 698 OFFCURVE",
"81 666 CURVE",
"-13 666 LINE",
"-13 621 LINE",
"90 621 LINE",
"90 0 LINE",
"176 0 LINE",
"176 621 LINE",
"279 621 LINE",
"279 666 LINE",
"170 666 LINE",
"152 692 OFFCURVE",
"138 727 OFFCURVE",
"138 769 CURVE SMOOTH",
"138 862 OFFCURVE",
"217 907 OFFCURVE",
"372 907 CURVE SMOOTH",
"571 907 OFFCURVE",
"750 831 OFFCURVE",
"904 689 CURVE"
);
}
);
width = 266;
}
);
userData = {
org.fontforge.glyphclass = mark;
};
},
{
glyphname = isigndeva.alt2;
lastChange = "2016-09-19 15:51:21 +0000";
layers = (
{
layerId = "25D154CF-C470-4D68-A10D-6356F2BE0292";
paths = (
{
closed = 1;
nodes = (
"1176 705 LINE",
"1011 850 OFFCURVE",
"767 960 OFFCURVE",
"397 960 CURVE SMOOTH",
"178 960 OFFCURVE",
"52 895 OFFCURVE",
"52 776 CURVE SMOOTH",
"52 729 OFFCURVE",
"63 698 OFFCURVE",
"81 666 CURVE",
"-13 666 LINE",
"-13 621 LINE",
"90 621 LINE",
"90 0 LINE",
"176 0 LINE",
"176 621 LINE",
"279 621 LINE",
"279 666 LINE",
"170 666 LINE",
"152 692 OFFCURVE",
"138 727 OFFCURVE",
"138 765 CURVE SMOOTH",
"138 867 OFFCURVE",
"233 907 OFFCURVE",
"431 907 CURVE SMOOTH",
"694 907 OFFCURVE",
"926 830 OFFCURVE",
"1121 689 CURVE"
);
}
);
width = 266;
}
);
userData = {
org.fontforge.glyphclass = mark;
};
},
{
glyphname = isigndeva.alt3;
lastChange = "2016-09-19 15:51:21 +0000";
layers = (
{
layerId = "25D154CF-C470-4D68-A10D-6356F2BE0292";
paths = (
{
closed = 1;
nodes = (
"279 666 LINE",
"170 666 LINE",
"153 698 OFFCURVE",
"138 733 OFFCURVE",
"138 782 CURVE SMOOTH",
"138 860 OFFCURVE",
"188 907 OFFCURVE",
"276 907 CURVE SMOOTH",
"379 907 OFFCURVE",
"466 836 OFFCURVE",
"547 689 CURVE",
"602 705 LINE",
"520 868 OFFCURVE",
"412 960 OFFCURVE",
"262 960 CURVE SMOOTH",
"132 960 OFFCURVE",
"52 888 OFFCURVE",
"52 783 CURVE SMOOTH",
"52 739 OFFCURVE",
"63 703 OFFCURVE",
"83 666 CURVE",
"-13 666 LINE",
"-13 621 LINE",
"90 621 LINE",
"90 0 LINE",
"176 0 LINE",
"176 621 LINE",
"279 621 LINE"
);
}
);
width = 266;
}
);
userData = {
org.fontforge.glyphclass = mark;
};
},
